{"glyphs":{"0":{"ha":833,"x_min":0,"x_max":764,"o":"m 694 69 l 694 0 l 69 0 l 69 69 l 0 69 l 0 625 l 69 625 l 69 694 l 694 694 l 694 625 l 764 625 l 764 69 l 694 69 m 278 139 l 486 139 l 486 556 l 278 556 l 278 139 z "},"1":{"ha":347,"x_min":0,"x_max":278,"o":"m 0 0 l 0 694 l 278 694 l 278 0 l 0 0 l 0 0 z "},"2":{"ha":833,"x_min":0,"x_max":764,"o":"m 694 278 l 278 278 l 278 139 l 764 139 l 764 0 l 0 0 l 0 347 l 69 347 l 69 417 l 486 417 l 486 556 l 0 556 l 0 694 l 694 694 l 694 625 l 764 625 l 764 347 l 694 347 l 694 278 l 694 278 z "},"3":{"ha":833,"x_min":0,"x_max":764,"o":"m 278 417 l 486 417 l 486 556 l 0 556 l 0 694 l 694 694 l 694 625 l 764 625 l 764 417 l 694 417 l 694 278 l 764 278 l 764 69 l 694 69 l 694 0 l 0 0 l 0 139 l 486 139 l 486 278 l 278 278 l 278 417 l 278 417 z "},"4":{"ha":833,"x_min":0,"x_max":764,"o":"m 764 694 l 764 0 l 486 0 l 486 278 l 69 278 l 69 347 l 0 347 l 0 694 l 278 694 l 278 417 l 486 417 l 486 694 l 764 694 l 764 694 z "},"5":{"ha":833,"x_min":0,"x_max":764,"o":"m 486 278 l 69 278 l 69 347 l 0 347 l 0 694 l 764 694 l 764 556 l 278 556 l 278 417 l 694 417 l 694 347 l 764 347 l 764 69 l 694 69 l 694 0 l 0 0 l 0 139 l 486 139 l 486 278 l 486 278 z "},"6":{"ha":833,"x_min":0,"x_max":764,"o":"m 694 0 l 69 0 l 69 69 l 0 69 l 0 625 l 69 625 l 69 694 l 764 694 l 764 556 l 278 556 l 278 417 l 694 417 l 694 347 l 764 347 l 764 69 l 694 69 l 694 0 m 486 278 l 278 278 l 278 139 l 486 139 l 486 278 z "},"7":{"ha":833,"x_min":0,"x_max":764,"o":"m 0 694 l 764 694 l 764 486 l 694 486 l 694 417 l 625 417 l 625 347 l 556 347 l 556 278 l 486 278 l 486 208 l 417 208 l 417 139 l 347 139 l 347 69 l 278 69 l 278 0 l 0 0 l 0 139 l 69 139 l 69 208 l 139 208 l 139 278 l 208 278 l 208 347 l 278 347 l 278 417 l 347 417 l 347 486 l 417 486 l 417 556 l 0 556 l 0 694 l 0 694 z "},"8":{"ha":833,"x_min":0,"x_max":764,"o":"m 278 139 l 486 139 l 486 278 l 278 278 l 278 139 m 278 417 l 486 417 l 486 556 l 278 556 l 278 417 m 69 694 l 694 694 l 694 625 l 764 625 l 764 417 l 694 417 l 694 278 l 764 278 l 764 69 l 694 69 l 694 0 l 69 0 l 69 69 l 0 69 l 0 278 l 69 278 l 69 417 l 0 417 l 0 625 l 69 625 l 69 694 z "},"9":{"ha":833,"x_min":0,"x_max":764,"o":"m 694 625 l 764 625 l 764 0 l 486 0 l 486 278 l 69 278 l 69 347 l 0 347 l 0 625 l 69 625 l 69 694 l 694 694 l 694 625 m 486 417 l 486 556 l 278 556 l 278 417 l 486 417 z "},"!":{"ha":347,"x_min":0,"x_max":278,"o":"m 0 208 l 0 694 l 278 694 l 278 208 l 0 208 m 0 0 l 0 139 l 278 139 l 278 0 l 0 0 z "},"\"":{"ha":556,"x_min":0,"x_max":486,"o":"m 278 556 l 278 694 l 486 694 l 486 556 l 278 556 m 0 556 l 0 694 l 208 694 l 208 556 l 0 556 z "},"#":{"ha":833,"x_min":0,"x_max":764,"o":"m 417 556 l 417 694 l 694 694 l 694 556 l 764 556 l 764 417 l 694 417 l 694 278 l 764 278 l 764 139 l 694 139 l 694 0 l 417 0 l 417 139 l 347 139 l 347 0 l 69 0 l 69 139 l 0 139 l 0 278 l 69 278 l 69 417 l 0 417 l 0 556 l 69 556 l 69 694 l 347 694 l 347 556 l 417 556 m 347 278 l 417 278 l 417 417 l 347 417 l 347 278 z "},"$":{"ha":833,"x_min":0,"x_max":764,"o":"m 694 0 l 486 0 l 486 -67 l 278 -67 l 278 0 l 0 0 l 0 139 l 486 139 l 486 278 l 69 278 l 69 347 l 0 347 l 0 625 l 69 625 l 69 694 l 278 694 l 278 764 l 486 764 l 486 694 l 764 694 l 764 556 l 278 556 l 278 417 l 694 417 l 694 347 l 764 347 l 764 69 l 694 69 l 694 0 l 694 0 z "},"%":{"ha":903,"x_min":0,"x_max":833,"o":"m 625 208 l 625 278 l 764 278 l 764 208 l 833 208 l 833 69 l 764 69 l 764 0 l 625 0 l 625 69 l 556 69 l 556 208 l 625 208 m 69 625 l 69 694 l 208 694 l 208 625 l 278 625 l 278 486 l 208 486 l 208 417 l 69 417 l 69 486 l 0 486 l 0 625 l 69 625 m 556 625 l 556 694 l 833 694 l 833 556 l 764 556 l 764 486 l 694 486 l 694 417 l 625 417 l 625 347 l 556 347 l 556 278 l 486 278 l 486 208 l 417 208 l 417 139 l 347 139 l 347 69 l 278 69 l 278 0 l 0 0 l 0 139 l 69 139 l 69 208 l 139 208 l 139 278 l 208 278 l 208 347 l 278 347 l 278 417 l 347 417 l 347 486 l 417 486 l 417 556 l 486 556 l 486 625 l 556 625 z "},"&":{"ha":833,"x_min":0,"x_max":764,"o":"m 764 0 l 486 0 l 486 -67 l 278 -67 l 278 0 l 69 0 l 69 69 l 0 69 l 0 625 l 69 625 l 69 694 l 278 694 l 278 764 l 486 764 l 486 694 l 764 694 l 764 556 l 278 556 l 278 417 l 486 417 l 486 278 l 278 278 l 278 139 l 764 139 l 764 0 l 764 0 z "},"'":{"ha":347,"x_min":0,"x_max":278,"o":"m 278 417 l 139 417 l 139 556 l 0 556 l 0 694 l 278 694 l 278 417 l 278 417 z "},"(":{"ha":556,"x_min":0,"x_max":486,"o":"m 278 556 l 278 139 l 486 139 l 486 0 l 69 0 l 69 69 l 0 69 l 0 625 l 69 625 l 69 694 l 486 694 l 486 556 l 278 556 l 278 556 z "},")":{"ha":556,"x_min":0,"x_max":486,"o":"m 208 139 l 208 556 l 0 556 l 0 694 l 417 694 l 417 625 l 486 625 l 486 69 l 417 69 l 417 0 l 0 0 l 0 139 l 208 139 l 208 139 z "},"*":{"ha":694,"x_min":0,"x_max":625,"o":"m 278 625 l 278 694 l 347 694 l 347 625 l 417 625 l 417 556 l 486 556 l 486 625 l 625 625 l 625 486 l 556 486 l 556 417 l 486 417 l 486 347 l 556 347 l 556 208 l 417 208 l 417 278 l 347 278 l 347 347 l 278 347 l 278 278 l 208 278 l 208 208 l 69 208 l 69 347 l 139 347 l 139 417 l 69 417 l 69 486 l 0 486 l 0 625 l 139 625 l 139 556 l 208 556 l 208 625 l 278 625 l 278 625 z "},"+":{"ha":833,"x_min":0,"x_max":764,"o":"m 278 417 l 278 556 l 486 556 l 486 417 l 764 417 l 764 278 l 486 278 l 486 139 l 278 139 l 278 278 l 0 278 l 0 417 l 278 417 l 278 417 z "},",":{"ha":278,"x_min":0,"x_max":208,"o":"m 0 -139 l 0 139 l 208 139 l 208 -139 l 0 -139 l 0 -139 z "},"-":{"ha":833,"x_min":0,"x_max":764,"o":"m 0 278 l 0 417 l 764 417 l 764 278 l 0 278 l 0 278 z "},".":{"ha":278,"x_min":0,"x_max":208,"o":"m 0 0 l 0 139 l 208 139 l 208 0 l 0 0 l 0 0 z "},"/":{"ha":903,"x_min":0,"x_max":833,"o":"m 556 625 l 556 694 l 833 694 l 833 556 l 764 556 l 764 486 l 694 486 l 694 417 l 625 417 l 625 347 l 556 347 l 556 278 l 486 278 l 486 208 l 417 208 l 417 139 l 347 139 l 347 69 l 278 69 l 278 0 l 0 0 l 0 139 l 69 139 l 69 208 l 139 208 l 139 278 l 208 278 l 208 347 l 278 347 l 278 417 l 347 417 l 347 486 l 417 486 l 417 556 l 486 556 l 486 625 l 556 625 l 556 625 z "},":":{"ha":278,"x_min":0,"x_max":208,"o":"m 0 0 l 0 139 l 208 139 l 208 0 l 0 0 m 0 556 l 0 694 l 208 694 l 208 556 l 0 556 z "},";":{"ha":278,"x_min":0,"x_max":208,"o":"m 0 -139 l 0 139 l 208 139 l 208 -139 l 0 -139 m 0 556 l 0 694 l 208 694 l 208 556 l 0 556 z "},"<":{"ha":625,"x_min":0,"x_max":556,"o":"m 556 694 l 556 556 l 486 556 l 486 486 l 417 486 l 417 417 l 347 417 l 347 278 l 417 278 l 417 208 l 486 208 l 486 139 l 556 139 l 556 0 l 278 0 l 278 69 l 208 69 l 208 139 l 139 139 l 139 208 l 69 208 l 69 278 l 0 278 l 0 417 l 69 417 l 69 486 l 139 486 l 139 556 l 208 556 l 208 625 l 278 625 l 278 694 l 556 694 l 556 694 z "},"=":{"ha":833,"x_min":0,"x_max":764,"o":"m 0 139 l 0 278 l 764 278 l 764 139 l 0 139 m 0 417 l 0 556 l 764 556 l 764 417 l 0 417 z "},">":{"ha":625,"x_min":0,"x_max":556,"o":"m 0 556 l 0 694 l 278 694 l 278 625 l 347 625 l 347 556 l 417 556 l 417 486 l 486 486 l 486 417 l 556 417 l 556 278 l 486 278 l 486 208 l 417 208 l 417 139 l 347 139 l 347 69 l 278 69 l 278 0 l 0 0 l 0 139 l 69 139 l 69 208 l 139 208 l 139 278 l 208 278 l 208 417 l 139 417 l 139 486 l 69 486 l 69 556 l 0 556 l 0 556 z "},"?":{"ha":833,"x_min":0,"x_max":764,"o":"m 694 278 l 486 278 l 486 208 l 278 208 l 278 347 l 347 347 l 347 417 l 486 417 l 486 556 l 278 556 l 278 417 l 0 417 l 0 625 l 69 625 l 69 694 l 694 694 l 694 625 l 764 625 l 764 347 l 694 347 l 694 278 m 278 0 l 278 139 l 486 139 l 486 0 l 278 0 z "},"@":{"ha":972,"x_min":0,"x_max":903,"o":"m 556 486 l 556 278 l 625 278 l 625 556 l 278 556 l 278 139 l 903 139 l 903 69 l 833 69 l 833 0 l 69 0 l 69 69 l 0 69 l 0 625 l 69 625 l 69 694 l 833 694 l 833 625 l 903 625 l 903 278 l 833 278 l 833 208 l 347 208 l 347 486 l 556 486 m 486 417 l 417 417 l 417 278 l 486 278 l 486 417 z "},"A":{"ha":833,"x_min":0,"x_max":764,"o":"m 486 556 l 278 556 l 278 417 l 486 417 l 486 556 m 278 0 l 0 0 l 0 625 l 69 625 l 69 694 l 694 694 l 694 625 l 764 625 l 764 0 l 486 0 l 486 278 l 278 278 l 278 0 z "},"B":{"ha":833,"x_min":0,"x_max":764,"o":"m 486 278 l 278 278 l 278 139 l 486 139 l 486 278 m 486 556 l 278 556 l 278 417 l 486 417 l 486 556 m 694 0 l 0 0 l 0 694 l 694 694 l 694 625 l 764 625 l 764 417 l 694 417 l 694 278 l 764 278 l 764 69 l 694 69 l 694 0 z "},"C":{"ha":833,"x_min":0,"x_max":764,"o":"m 278 556 l 278 139 l 486 139 l 486 278 l 764 278 l 764 69 l 694 69 l 694 0 l 69 0 l 69 69 l 0 69 l 0 625 l 69 625 l 69 694 l 694 694 l 694 625 l 764 625 l 764 417 l 486 417 l 486 556 l 278 556 l 278 556 z "},"D":{"ha":833,"x_min":0,"x_max":764,"o":"m 417 556 l 278 556 l 278 139 l 417 139 l 417 208 l 486 208 l 486 486 l 417 486 l 417 556 m 0 0 l 0 694 l 625 694 l 625 625 l 694 625 l 694 556 l 764 556 l 764 139 l 694 139 l 694 69 l 625 69 l 625 0 l 0 0 z "},"E":{"ha":833,"x_min":0,"x_max":764,"o":"m 278 417 l 486 417 l 486 278 l 278 278 l 278 139 l 764 139 l 764 0 l 69 0 l 69 69 l 0 69 l 0 625 l 69 625 l 69 694 l 764 694 l 764 556 l 278 556 l 278 417 l 278 417 z "},"F":{"ha":833,"x_min":0,"x_max":764,"o":"m 486 417 l 486 278 l 278 278 l 278 0 l 0 0 l 0 625 l 69 625 l 69 694 l 764 694 l 764 556 l 278 556 l 278 417 l 486 417 l 486 417 z "},"G":{"ha":833,"x_min":0,"x_max":764,"o":"m 694 0 l 69 0 l 69 69 l 0 69 l 0 625 l 69 625 l 69 694 l 764 694 l 764 556 l 278 556 l 278 139 l 486 139 l 486 278 l 347 278 l 347 417 l 694 417 l 694 347 l 764 347 l 764 69 l 694 69 l 694 0 l 694 0 z "},"H":{"ha":833,"x_min":0,"x_max":764,"o":"m 0 0 l 0 694 l 278 694 l 278 417 l 486 417 l 486 694 l 764 694 l 764 0 l 486 0 l 486 278 l 278 278 l 278 0 l 0 0 l 0 0 z "},"I":{"ha":764,"x_min":0,"x_max":694,"o":"m 0 694 l 694 694 l 694 556 l 486 556 l 486 139 l 694 139 l 694 0 l 0 0 l 0 139 l 208 139 l 208 556 l 0 556 l 0 694 l 0 694 z "},"J":{"ha":833,"x_min":0,"x_max":764,"o":"m 278 278 l 278 139 l 486 139 l 486 694 l 764 694 l 764 69 l 694 69 l 694 0 l 69 0 l 69 69 l 0 69 l 0 278 l 278 278 l 278 278 z "},"K":{"ha":833,"x_min":0,"x_max":764,"o":"m 0 0 l 0 694 l 278 694 l 278 486 l 347 486 l 347 556 l 417 556 l 417 625 l 486 625 l 486 694 l 764 694 l 764 556 l 694 556 l 694 486 l 625 486 l 625 417 l 556 417 l 556 278 l 625 278 l 625 208 l 694 208 l 694 139 l 764 139 l 764 0 l 486 0 l 486 69 l 417 69 l 417 139 l 347 139 l 347 208 l 278 208 l 278 0 l 0 0 l 0 0 z "},"L":{"ha":833,"x_min":0,"x_max":764,"o":"m 278 694 l 278 139 l 764 139 l 764 0 l 0 0 l 0 694 l 278 694 l 278 694 z "},"M":{"ha":972,"x_min":0,"x_max":903,"o":"m 486 278 l 486 208 l 417 208 l 417 278 l 347 278 l 347 347 l 278 347 l 278 0 l 0 0 l 0 694 l 278 694 l 278 625 l 347 625 l 347 556 l 417 556 l 417 486 l 486 486 l 486 556 l 556 556 l 556 625 l 625 625 l 625 694 l 903 694 l 903 0 l 625 0 l 625 347 l 556 347 l 556 278 l 486 278 l 486 278 z "},"N":{"ha":833,"x_min":0,"x_max":764,"o":"m 486 486 l 486 694 l 764 694 l 764 0 l 486 0 l 486 208 l 417 208 l 417 278 l 347 278 l 347 347 l 278 347 l 278 0 l 0 0 l 0 694 l 278 694 l 278 625 l 347 625 l 347 556 l 417 556 l 417 486 l 486 486 l 486 486 z "},"O":{"ha":833,"x_min":0,"x_max":764,"o":"m 694 69 l 694 0 l 69 0 l 69 69 l 0 69 l 0 625 l 69 625 l 69 694 l 694 694 l 694 625 l 764 625 l 764 69 l 694 69 m 278 139 l 486 139 l 486 556 l 278 556 l 278 139 z "},"P":{"ha":833,"x_min":0,"x_max":764,"o":"m 486 556 l 278 556 l 278 417 l 486 417 l 486 556 m 278 0 l 0 0 l 0 694 l 694 694 l 694 625 l 764 625 l 764 347 l 694 347 l 694 278 l 278 278 l 278 0 z "},"Q":{"ha":833,"x_min":0,"x_max":764,"o":"m 694 0 l 486 0 l 486 -136 l 278 -136 l 278 0 l 69 0 l 69 69 l 0 69 l 0 625 l 69 625 l 69 694 l 694 694 l 694 625 l 764 625 l 764 69 l 694 69 l 694 0 m 278 139 l 486 139 l 486 556 l 278 556 l 278 139 z "},"R":{"ha":833,"x_min":0,"x_max":764,"o":"m 486 278 l 278 278 l 278 0 l 0 0 l 0 694 l 694 694 l 694 625 l 764 625 l 764 417 l 694 417 l 694 278 l 764 278 l 764 0 l 486 0 l 486 278 m 486 556 l 278 556 l 278 417 l 486 417 l 486 556 z "},"S":{"ha":833,"x_min":0,"x_max":764,"o":"m 486 278 l 69 278 l 69 347 l 0 347 l 0 625 l 69 625 l 69 694 l 764 694 l 764 556 l 278 556 l 278 417 l 694 417 l 694 347 l 764 347 l 764 69 l 694 69 l 694 0 l 0 0 l 0 139 l 486 139 l 486 278 l 486 278 z "},"T":{"ha":764,"x_min":0,"x_max":694,"o":"m 0 694 l 694 694 l 694 556 l 486 556 l 486 0 l 208 0 l 208 556 l 0 556 l 0 694 l 0 694 z "},"U":{"ha":833,"x_min":0,"x_max":764,"o":"m 278 139 l 486 139 l 486 694 l 764 694 l 764 69 l 694 69 l 694 0 l 69 0 l 69 69 l 0 69 l 0 694 l 278 694 l 278 139 l 278 139 z "},"V":{"ha":833,"x_min":0,"x_max":764,"o":"m 486 694 l 764 694 l 764 278 l 694 278 l 694 208 l 625 208 l 625 139 l 556 139 l 556 69 l 486 69 l 486 0 l 0 0 l 0 694 l 278 694 l 278 208 l 347 208 l 347 278 l 417 278 l 417 347 l 486 347 l 486 694 l 486 694 z "},"W":{"ha":972,"x_min":0,"x_max":903,"o":"m 486 486 l 486 417 l 556 417 l 556 347 l 625 347 l 625 694 l 903 694 l 903 0 l 625 0 l 625 69 l 556 69 l 556 139 l 486 139 l 486 208 l 417 208 l 417 139 l 347 139 l 347 69 l 278 69 l 278 0 l 0 0 l 0 694 l 278 694 l 278 347 l 347 347 l 347 417 l 417 417 l 417 486 l 486 486 l 486 486 z "},"X":{"ha":833,"x_min":0,"x_max":764,"o":"m 347 556 l 347 486 l 417 486 l 417 556 l 486 556 l 486 625 l 556 625 l 556 694 l 764 694 l 764 486 l 694 486 l 694 417 l 625 417 l 625 278 l 694 278 l 694 208 l 764 208 l 764 0 l 556 0 l 556 69 l 486 69 l 486 139 l 417 139 l 417 208 l 347 208 l 347 139 l 278 139 l 278 69 l 208 69 l 208 0 l 0 0 l 0 208 l 69 208 l 69 278 l 139 278 l 139 417 l 69 417 l 69 486 l 0 486 l 0 694 l 208 694 l 208 625 l 278 625 l 278 556 l 347 556 l 347 556 z "},"Y":{"ha":903,"x_min":0,"x_max":833,"o":"m 556 694 l 833 694 l 833 417 l 764 417 l 764 347 l 694 347 l 694 278 l 556 278 l 556 0 l 278 0 l 278 278 l 139 278 l 139 347 l 69 347 l 69 417 l 0 417 l 0 694 l 278 694 l 278 486 l 347 486 l 347 417 l 486 417 l 486 486 l 556 486 l 556 694 l 556 694 z "},"Z":{"ha":833,"x_min":0,"x_max":764,"o":"m 0 694 l 764 694 l 764 486 l 694 486 l 694 417 l 625 417 l 625 347 l 556 347 l 556 278 l 486 278 l 486 208 l 417 208 l 417 139 l 764 139 l 764 0 l 0 0 l 0 139 l 69 139 l 69 208 l 139 208 l 139 278 l 208 278 l 208 347 l 278 347 l 278 417 l 347 417 l 347 486 l 417 486 l 417 556 l 0 556 l 0 694 l 0 694 z "},"[":{"ha":556,"x_min":0,"x_max":486,"o":"m 278 556 l 278 139 l 486 139 l 486 0 l 0 0 l 0 694 l 486 694 l 486 556 l 278 556 l 278 556 z "},"\\":{"ha":903,"x_min":0,"x_max":833,"o":"m 278 694 l 278 625 l 347 625 l 347 556 l 417 556 l 417 486 l 486 486 l 486 417 l 556 417 l 556 347 l 625 347 l 625 278 l 694 278 l 694 208 l 764 208 l 764 139 l 833 139 l 833 0 l 556 0 l 556 69 l 486 69 l 486 139 l 417 139 l 417 208 l 347 208 l 347 278 l 278 278 l 278 347 l 208 347 l 208 417 l 139 417 l 139 486 l 69 486 l 69 556 l 0 556 l 0 694 l 278 694 l 278 694 z "},"]":{"ha":556,"x_min":0,"x_max":486,"o":"m 208 139 l 208 556 l 0 556 l 0 694 l 486 694 l 486 0 l 0 0 l 0 139 l 208 139 l 208 139 z "},"^":{"ha":694,"x_min":0,"x_max":625,"o":"m 556 556 l 556 486 l 625 486 l 625 347 l 417 347 l 417 417 l 347 417 l 347 486 l 278 486 l 278 417 l 208 417 l 208 347 l 0 347 l 0 486 l 69 486 l 69 556 l 139 556 l 139 625 l 208 625 l 208 694 l 417 694 l 417 625 l 486 625 l 486 556 l 556 556 l 556 556 z "},"_":{"ha":833,"x_min":0,"x_max":764,"o":"m 0 -206 l 0 -67 l 764 -67 l 764 -206 l 0 -206 l 0 -206 z "},"‘":{"ha":347,"x_min":0,"x_max":278,"o":"m 0 694 l 139 694 l 139 556 l 278 556 l 278 417 l 0 417 l 0 694 l 0 694 z "},"a":{"ha":833,"x_min":0,"x_max":764,"o":"m 486 556 l 278 556 l 278 417 l 486 417 l 486 556 m 278 0 l 0 0 l 0 625 l 69 625 l 69 694 l 694 694 l 694 625 l 764 625 l 764 0 l 486 0 l 486 278 l 278 278 l 278 0 z "},"b":{"ha":833,"x_min":0,"x_max":764,"o":"m 486 278 l 278 278 l 278 139 l 486 139 l 486 278 m 486 556 l 278 556 l 278 417 l 486 417 l 486 556 m 694 0 l 0 0 l 0 694 l 694 694 l 694 625 l 764 625 l 764 417 l 694 417 l 694 278 l 764 278 l 764 69 l 694 69 l 694 0 z "},"c":{"ha":833,"x_min":0,"x_max":764,"o":"m 278 556 l 278 139 l 486 139 l 486 278 l 764 278 l 764 69 l 694 69 l 694 0 l 69 0 l 69 69 l 0 69 l 0 625 l 69 625 l 69 694 l 694 694 l 694 625 l 764 625 l 764 417 l 486 417 l 486 556 l 278 556 l 278 556 z "},"d":{"ha":833,"x_min":0,"x_max":764,"o":"m 417 556 l 278 556 l 278 139 l 417 139 l 417 208 l 486 208 l 486 486 l 417 486 l 417 556 m 0 0 l 0 694 l 625 694 l 625 625 l 694 625 l 694 556 l 764 556 l 764 139 l 694 139 l 694 69 l 625 69 l 625 0 l 0 0 z "},"e":{"ha":833,"x_min":0,"x_max":764,"o":"m 278 417 l 486 417 l 486 278 l 278 278 l 278 139 l 764 139 l 764 0 l 69 0 l 69 69 l 0 69 l 0 625 l 69 625 l 69 694 l 764 694 l 764 556 l 278 556 l 278 417 l 278 417 z "},"f":{"ha":833,"x_min":0,"x_max":764,"o":"m 486 417 l 486 278 l 278 278 l 278 0 l 0 0 l 0 625 l 69 625 l 69 694 l 764 694 l 764 556 l 278 556 l 278 417 l 486 417 l 486 417 z "},"g":{"ha":833,"x_min":0,"x_max":764,"o":"m 694 0 l 69 0 l 69 69 l 0 69 l 0 625 l 69 625 l 69 694 l 764 694 l 764 556 l 278 556 l 278 139 l 486 139 l 486 278 l 347 278 l 347 417 l 694 417 l 694 347 l 764 347 l 764 69 l 694 69 l 694 0 l 694 0 z "},"h":{"ha":833,"x_min":0,"x_max":764,"o":"m 0 0 l 0 694 l 278 694 l 278 417 l 486 417 l 486 694 l 764 694 l 764 0 l 486 0 l 486 278 l 278 278 l 278 0 l 0 0 l 0 0 z "},"i":{"ha":764,"x_min":0,"x_max":694,"o":"m 0 694 l 694 694 l 694 556 l 486 556 l 486 139 l 694 139 l 694 0 l 0 0 l 0 139 l 208 139 l 208 556 l 0 556 l 0 694 l 0 694 z "},"j":{"ha":833,"x_min":0,"x_max":764,"o":"m 278 278 l 278 139 l 486 139 l 486 694 l 764 694 l 764 69 l 694 69 l 694 0 l 69 0 l 69 69 l 0 69 l 0 278 l 278 278 l 278 278 z "},"k":{"ha":833,"x_min":0,"x_max":764,"o":"m 0 0 l 0 694 l 278 694 l 278 486 l 347 486 l 347 556 l 417 556 l 417 625 l 486 625 l 486 694 l 764 694 l 764 556 l 694 556 l 694 486 l 625 486 l 625 417 l 556 417 l 556 278 l 625 278 l 625 208 l 694 208 l 694 139 l 764 139 l 764 0 l 486 0 l 486 69 l 417 69 l 417 139 l 347 139 l 347 208 l 278 208 l 278 0 l 0 0 l 0 0 z "},"l":{"ha":833,"x_min":0,"x_max":764,"o":"m 278 694 l 278 139 l 764 139 l 764 0 l 0 0 l 0 694 l 278 694 l 278 694 z "},"m":{"ha":972,"x_min":0,"x_max":903,"o":"m 486 278 l 486 208 l 417 208 l 417 278 l 347 278 l 347 347 l 278 347 l 278 0 l 0 0 l 0 694 l 278 694 l 278 625 l 347 625 l 347 556 l 417 556 l 417 486 l 486 486 l 486 556 l 556 556 l 556 625 l 625 625 l 625 694 l 903 694 l 903 0 l 625 0 l 625 347 l 556 347 l 556 278 l 486 278 l 486 278 z "},"n":{"ha":833,"x_min":0,"x_max":764,"o":"m 486 486 l 486 694 l 764 694 l 764 0 l 486 0 l 486 208 l 417 208 l 417 278 l 347 278 l 347 347 l 278 347 l 278 0 l 0 0 l 0 694 l 278 694 l 278 625 l 347 625 l 347 556 l 417 556 l 417 486 l 486 486 l 486 486 z "},"o":{"ha":833,"x_min":0,"x_max":764,"o":"m 694 69 l 694 0 l 69 0 l 69 69 l 0 69 l 0 625 l 69 625 l 69 694 l 694 694 l 694 625 l 764 625 l 764 69 l 694 69 m 278 139 l 486 139 l 486 556 l 278 556 l 278 139 z "},"p":{"ha":833,"x_min":0,"x_max":764,"o":"m 486 556 l 278 556 l 278 417 l 486 417 l 486 556 m 278 0 l 0 0 l 0 694 l 694 694 l 694 625 l 764 625 l 764 347 l 694 347 l 694 278 l 278 278 l 278 0 z "},"q":{"ha":833,"x_min":0,"x_max":764,"o":"m 694 0 l 486 0 l 486 -136 l 278 -136 l 278 0 l 69 0 l 69 69 l 0 69 l 0 625 l 69 625 l 69 694 l 694 694 l 694 625 l 764 625 l 764 69 l 694 69 l 694 0 m 278 139 l 486 139 l 486 556 l 278 556 l 278 139 z "},"r":{"ha":833,"x_min":0,"x_max":764,"o":"m 486 278 l 278 278 l 278 0 l 0 0 l 0 694 l 694 694 l 694 625 l 764 625 l 764 417 l 694 417 l 694 278 l 764 278 l 764 0 l 486 0 l 486 278 m 486 556 l 278 556 l 278 417 l 486 417 l 486 556 z "},"s":{"ha":833,"x_min":0,"x_max":764,"o":"m 486 278 l 69 278 l 69 347 l 0 347 l 0 625 l 69 625 l 69 694 l 764 694 l 764 556 l 278 556 l 278 417 l 694 417 l 694 347 l 764 347 l 764 69 l 694 69 l 694 0 l 0 0 l 0 139 l 486 139 l 486 278 l 486 278 z "},"t":{"ha":764,"x_min":0,"x_max":694,"o":"m 0 694 l 694 694 l 694 556 l 486 556 l 486 0 l 208 0 l 208 556 l 0 556 l 0 694 l 0 694 z "},"u":{"ha":833,"x_min":0,"x_max":764,"o":"m 278 139 l 486 139 l 486 694 l 764 694 l 764 69 l 694 69 l 694 0 l 69 0 l 69 69 l 0 69 l 0 694 l 278 694 l 278 139 l 278 139 z "},"v":{"ha":833,"x_min":0,"x_max":764,"o":"m 486 694 l 764 694 l 764 278 l 694 278 l 694 208 l 625 208 l 625 139 l 556 139 l 556 69 l 486 69 l 486 0 l 0 0 l 0 694 l 278 694 l 278 208 l 347 208 l 347 278 l 417 278 l 417 347 l 486 347 l 486 694 l 486 694 z "},"w":{"ha":972,"x_min":0,"x_max":903,"o":"m 486 486 l 486 417 l 556 417 l 556 347 l 625 347 l 625 694 l 903 694 l 903 0 l 625 0 l 625 69 l 556 69 l 556 139 l 486 139 l 486 208 l 417 208 l 417 139 l 347 139 l 347 69 l 278 69 l 278 0 l 0 0 l 0 694 l 278 694 l 278 347 l 347 347 l 347 417 l 417 417 l 417 486 l 486 486 l 486 486 z "},"x":{"ha":833,"x_min":0,"x_max":764,"o":"m 347 556 l 347 486 l 417 486 l 417 556 l 486 556 l 486 625 l 556 625 l 556 694 l 764 694 l 764 486 l 694 486 l 694 417 l 625 417 l 625 278 l 694 278 l 694 208 l 764 208 l 764 0 l 556 0 l 556 69 l 486 69 l 486 139 l 417 139 l 417 208 l 347 208 l 347 139 l 278 139 l 278 69 l 208 69 l 208 0 l 0 0 l 0 208 l 69 208 l 69 278 l 139 278 l 139 417 l 69 417 l 69 486 l 0 486 l 0 694 l 208 694 l 208 625 l 278 625 l 278 556 l 347 556 l 347 556 z "},"y":{"ha":903,"x_min":0,"x_max":833,"o":"m 556 694 l 833 694 l 833 417 l 764 417 l 764 347 l 694 347 l 694 278 l 556 278 l 556 0 l 278 0 l 278 278 l 139 278 l 139 347 l 69 347 l 69 417 l 0 417 l 0 694 l 278 694 l 278 486 l 347 486 l 347 417 l 486 417 l 486 486 l 556 486 l 556 694 l 556 694 z "},"z":{"ha":833,"x_min":0,"x_max":764,"o":"m 0 694 l 764 694 l 764 486 l 694 486 l 694 417 l 625 417 l 625 347 l 556 347 l 556 278 l 486 278 l 486 208 l 417 208 l 417 139 l 764 139 l 764 0 l 0 0 l 0 139 l 69 139 l 69 208 l 139 208 l 139 278 l 208 278 l 208 347 l 278 347 l 278 417 l 347 417 l 347 486 l 417 486 l 417 556 l 0 556 l 0 694 l 0 694 z "},"{":{"ha":625,"x_min":0,"x_max":556,"o":"m 347 417 l 278 417 l 278 278 l 347 278 l 347 139 l 556 139 l 556 0 l 139 0 l 139 69 l 69 69 l 69 278 l 0 278 l 0 417 l 69 417 l 69 625 l 139 625 l 139 694 l 556 694 l 556 556 l 347 556 l 347 417 l 347 417 z "},"|":{"ha":278,"x_min":0,"x_max":208,"o":"m 0 -69 l 0 764 l 208 764 l 208 -69 l 0 -69 l 0 -69 z "},"}":{"ha":625,"x_min":0,"x_max":556,"o":"m 278 417 l 208 417 l 208 556 l 0 556 l 0 694 l 417 694 l 417 625 l 486 625 l 486 417 l 556 417 l 556 278 l 486 278 l 486 69 l 417 69 l 417 0 l 0 0 l 0 139 l 208 139 l 208 278 l 278 278 l 278 417 l 278 417 z "},"~":{"ha":1042,"x_min":0,"x_max":972,"o":"m 694 347 l 694 556 l 972 556 l 972 278 l 903 278 l 903 208 l 833 208 l 833 139 l 486 139 l 486 208 l 417 208 l 417 278 l 347 278 l 347 347 l 278 347 l 278 139 l 0 139 l 0 417 l 69 417 l 69 486 l 139 486 l 139 556 l 486 556 l 486 486 l 556 486 l 556 417 l 625 417 l 625 347 l 694 347 l 694 347 z "},"¡":{"ha":347,"x_min":0,"x_max":278,"o":"m 0 556 l 0 694 l 278 694 l 278 556 l 0 556 m 0 0 l 0 486 l 278 486 l 278 0 l 0 0 z "},"¢":{"ha":833,"x_min":0,"x_max":764,"o":"m 278 694 l 278 833 l 486 833 l 486 694 l 694 694 l 694 625 l 764 625 l 764 417 l 486 417 l 486 556 l 278 556 l 278 139 l 486 139 l 486 278 l 764 278 l 764 69 l 694 69 l 694 0 l 486 0 l 486 -139 l 278 -139 l 278 0 l 69 0 l 69 69 l 0 69 l 0 625 l 69 625 l 69 694 l 278 694 l 278 694 z "},"£":{"ha":903,"x_min":0,"x_max":833,"o":"m 556 556 l 417 556 l 417 486 l 347 486 l 347 417 l 417 417 l 417 278 l 347 278 l 347 139 l 556 139 l 556 208 l 833 208 l 833 69 l 694 69 l 694 0 l 0 0 l 0 139 l 69 139 l 69 278 l 0 278 l 0 417 l 69 417 l 69 556 l 139 556 l 139 625 l 208 625 l 208 694 l 764 694 l 764 625 l 833 625 l 833 486 l 764 486 l 764 417 l 625 417 l 625 486 l 556 486 l 556 556 l 556 556 z "},"⁄":{"ha":903,"x_min":0,"x_max":833,"o":"m 556 625 l 556 694 l 833 694 l 833 556 l 764 556 l 764 486 l 694 486 l 694 417 l 625 417 l 625 347 l 556 347 l 556 278 l 486 278 l 486 208 l 417 208 l 417 139 l 347 139 l 347 69 l 278 69 l 278 0 l 0 0 l 0 139 l 69 139 l 69 208 l 139 208 l 139 278 l 208 278 l 208 347 l 278 347 l 278 417 l 347 417 l 347 486 l 417 486 l 417 556 l 486 556 l 486 625 l 556 625 l 556 625 z "},"¥":{"ha":903,"x_min":0,"x_max":833,"o":"m 69 69 l 69 208 l 278 208 l 278 278 l 139 278 l 139 347 l 69 347 l 69 417 l 0 417 l 0 694 l 278 694 l 278 486 l 347 486 l 347 417 l 486 417 l 486 486 l 556 486 l 556 694 l 833 694 l 833 417 l 764 417 l 764 347 l 694 347 l 694 278 l 556 278 l 556 208 l 764 208 l 764 69 l 556 69 l 556 0 l 278 0 l 278 69 l 69 69 l 69 69 z "},"ƒ":{"ha":625,"x_min":0,"x_max":556,"o":"m 0 -139 l 0 -69 l 69 -69 l 69 278 l 0 278 l 0 417 l 69 417 l 69 625 l 139 625 l 139 694 l 556 694 l 556 556 l 347 556 l 347 417 l 417 417 l 417 278 l 347 278 l 347 -69 l 278 -69 l 278 -139 l 0 -139 l 0 -139 z "},"§":{"ha":833,"x_min":0,"x_max":764,"o":"m 69 208 l 0 208 l 0 764 l 69 764 l 69 833 l 764 833 l 764 694 l 278 694 l 278 556 l 694 556 l 694 486 l 764 486 l 764 -69 l 694 -69 l 694 -139 l 0 -139 l 0 0 l 486 0 l 486 139 l 69 139 l 69 208 m 486 278 l 486 417 l 278 417 l 278 278 l 486 278 z "},"¤":{"ha":694,"x_min":0,"x_max":694,"o":"m 417 417 l 278 417 l 278 278 l 417 278 l 417 417 m 139 139 l 139 0 l 0 0 l 0 139 l 139 139 l 139 208 l 69 208 l 69 486 l 139 486 l 139 556 l 0 556 l 0 694 l 139 694 l 139 556 l 208 556 l 208 625 l 486 625 l 486 556 l 556 556 l 556 694 l 694 694 l 694 556 l 556 556 l 556 486 l 625 486 l 625 208 l 556 208 l 556 139 l 694 139 l 694 0 l 556 0 l 556 139 l 486 139 l 486 69 l 208 69 l 208 139 l 139 139 z "},"“":{"ha":694,"x_min":0,"x_max":625,"o":"m 347 694 l 486 694 l 486 556 l 625 556 l 625 417 l 347 417 l 347 694 m 0 694 l 139 694 l 139 556 l 278 556 l 278 417 l 0 417 l 0 694 z "},"«":{"ha":764,"x_min":0,"x_max":694,"o":"m 556 69 l 556 139 l 486 139 l 486 208 l 417 208 l 417 278 l 347 278 l 347 417 l 417 417 l 417 486 l 486 486 l 486 556 l 556 556 l 556 625 l 694 625 l 694 486 l 625 486 l 625 417 l 556 417 l 556 278 l 625 278 l 625 208 l 694 208 l 694 69 l 556 69 m 208 69 l 208 139 l 139 139 l 139 208 l 69 208 l 69 278 l 0 278 l 0 417 l 69 417 l 69 486 l 139 486 l 139 556 l 208 556 l 208 625 l 347 625 l 347 486 l 278 486 l 278 417 l 208 417 l 208 278 l 278 278 l 278 208 l 347 208 l 347 69 l 208 69 z "},"‹":{"ha":417,"x_min":0,"x_max":347,"o":"m 208 69 l 208 139 l 139 139 l 139 208 l 69 208 l 69 278 l 0 278 l 0 417 l 69 417 l 69 486 l 139 486 l 139 556 l 208 556 l 208 625 l 347 625 l 347 486 l 278 486 l 278 417 l 208 417 l 208 278 l 278 278 l 278 208 l 347 208 l 347 69 l 208 69 l 208 69 z "},"›":{"ha":417,"x_min":0,"x_max":347,"o":"m 139 139 l 139 69 l 0 69 l 0 208 l 69 208 l 69 278 l 139 278 l 139 417 l 69 417 l 69 486 l 0 486 l 0 625 l 139 625 l 139 556 l 208 556 l 208 486 l 278 486 l 278 417 l 347 417 l 347 278 l 278 278 l 278 208 l 208 208 l 208 139 l 139 139 l 139 139 z "},"–":{"ha":417,"x_min":0,"x_max":278,"o":"m 0 278 l 0 417 l 278 417 l 278 278 l 0 278 l 0 278 z "},"†":{"ha":833,"x_min":0,"x_max":764,"o":"m 0 417 l 0 556 l 278 556 l 278 694 l 486 694 l 486 556 l 764 556 l 764 417 l 486 417 l 486 0 l 278 0 l 278 417 l 0 417 l 0 417 z "},"‡":{"ha":833,"x_min":0,"x_max":764,"o":"m 0 417 l 0 556 l 278 556 l 278 694 l 486 694 l 486 556 l 764 556 l 764 417 l 486 417 l 486 278 l 764 278 l 764 139 l 486 139 l 486 0 l 278 0 l 278 139 l 0 139 l 0 278 l 278 278 l 278 417 l 0 417 l 0 417 z "},"·":{"ha":347,"x_min":0,"x_max":278,"o":"m 0 208 l 0 486 l 278 486 l 278 208 l 0 208 l 0 208 z "},"¶":{"ha":625,"x_min":0,"x_max":556,"o":"m 69 694 l 556 694 l 556 556 l 486 556 l 486 0 l 347 0 l 347 556 l 278 556 l 278 0 l 139 0 l 139 278 l 69 278 l 69 347 l 0 347 l 0 625 l 69 625 l 69 694 l 69 694 z "},"•":{"ha":556,"x_min":0,"x_max":486,"o":"m 417 486 l 417 417 l 486 417 l 486 278 l 417 278 l 417 208 l 347 208 l 347 139 l 278 139 l 278 69 l 208 69 l 208 139 l 139 139 l 139 208 l 69 208 l 69 278 l 0 278 l 0 417 l 69 417 l 69 486 l 139 486 l 139 556 l 208 556 l 208 625 l 278 625 l 278 556 l 347 556 l 347 486 l 417 486 l 417 486 z "},"‚":{"ha":278,"x_min":0,"x_max":208,"o":"m 0 -136 l 0 139 l 208 139 l 208 -136 l 0 -136 l 0 -136 z "},"„":{"ha":556,"x_min":0,"x_max":486,"o":"m 278 -136 l 278 139 l 486 139 l 486 -136 l 278 -136 m 0 -136 l 0 139 l 208 139 l 208 -136 l 0 -136 z "},"”":{"ha":694,"x_min":0,"x_max":625,"o":"m 278 417 l 139 417 l 139 556 l 0 556 l 0 694 l 278 694 l 278 417 m 625 417 l 486 417 l 486 556 l 347 556 l 347 694 l 625 694 l 625 417 z "},"»":{"ha":764,"x_min":0,"x_max":694,"o":"m 486 139 l 486 69 l 347 69 l 347 208 l 417 208 l 417 278 l 486 278 l 486 417 l 417 417 l 417 486 l 347 486 l 347 625 l 486 625 l 486 556 l 556 556 l 556 486 l 625 486 l 625 417 l 694 417 l 694 278 l 625 278 l 625 208 l 556 208 l 556 139 l 486 139 m 139 139 l 139 69 l 0 69 l 0 208 l 69 208 l 69 278 l 139 278 l 139 417 l 69 417 l 69 486 l 0 486 l 0 625 l 139 625 l 139 556 l 208 556 l 208 486 l 278 486 l 278 417 l 347 417 l 347 278 l 278 278 l 278 208 l 208 208 l 208 139 l 139 139 z "},"…":{"ha":625,"x_min":0,"x_max":556,"o":"m 417 0 l 417 139 l 556 139 l 556 0 l 417 0 m 208 0 l 208 139 l 347 139 l 347 0 l 208 0 m 0 0 l 0 139 l 139 139 l 139 0 l 0 0 z "},"‰":{"ha":1319,"x_min":0,"x_max":1250,"o":"m 1111 139 l 1042 139 l 1042 69 l 1111 69 l 1111 139 m 903 208 l 1250 208 l 1250 0 l 903 0 l 903 208 m 694 139 l 625 139 l 625 69 l 694 69 l 694 139 m 486 208 l 833 208 l 833 0 l 486 0 l 486 208 m 208 625 l 139 625 l 139 556 l 208 556 l 208 625 m 0 694 l 347 694 l 347 486 l 0 486 l 0 694 m 556 625 l 556 694 l 833 694 l 833 556 l 764 556 l 764 486 l 694 486 l 694 417 l 625 417 l 625 347 l 556 347 l 556 278 l 486 278 l 486 208 l 417 208 l 417 139 l 347 139 l 347 69 l 278 69 l 278 0 l 0 0 l 0 139 l 69 139 l 69 208 l 139 208 l 139 278 l 208 278 l 208 347 l 278 347 l 278 417 l 347 417 l 347 486 l 417 486 l 417 556 l 486 556 l 486 625 l 556 625 z "},"¿":{"ha":833,"x_min":0,"x_max":764,"o":"m 69 417 l 278 417 l 278 486 l 486 486 l 486 347 l 417 347 l 417 278 l 278 278 l 278 139 l 486 139 l 486 278 l 764 278 l 764 69 l 694 69 l 694 0 l 69 0 l 69 69 l 0 69 l 0 347 l 69 347 l 69 417 m 486 694 l 486 556 l 278 556 l 278 694 l 486 694 z "},"´":{"ha":833,"x_min":278,"x_max":556,"o":"m 278 903 l 347 903 l 347 972 l 417 972 l 417 1042 l 556 1042 l 556 903 l 486 903 l 486 833 l 417 833 l 417 764 l 278 764 l 278 903 l 278 903 z "},"ˆ":{"ha":833,"x_min":139,"x_max":625,"o":"m 139 833 l 208 833 l 208 903 l 278 903 l 278 972 l 347 972 l 347 1042 l 417 1042 l 417 972 l 486 972 l 486 903 l 556 903 l 556 833 l 625 833 l 625 764 l 486 764 l 486 833 l 417 833 l 417 903 l 347 903 l 347 833 l 278 833 l 278 764 l 139 764 l 139 833 l 139 833 z "},"˜":{"ha":833,"x_min":139,"x_max":625,"o":"m 278 764 l 139 764 l 139 972 l 208 972 l 208 1042 l 347 1042 l 347 972 l 417 972 l 417 903 l 486 903 l 486 1042 l 625 1042 l 625 833 l 556 833 l 556 764 l 417 764 l 417 833 l 347 833 l 347 903 l 278 903 l 278 764 l 278 764 z "},"¯":{"ha":833,"x_min":0,"x_max":764,"o":"m 0 764 l 0 903 l 764 903 l 764 764 l 0 764 l 0 764 z "},"˘":{"ha":833,"x_min":139,"x_max":625,"o":"m 139 833 l 139 972 l 278 972 l 278 903 l 486 903 l 486 972 l 625 972 l 625 833 l 556 833 l 556 764 l 208 764 l 208 833 l 139 833 l 139 833 z "},"˙":{"ha":833,"x_min":278,"x_max":486,"o":"m 278 764 l 278 972 l 486 972 l 486 764 l 278 764 l 278 764 z "},"¨":{"ha":833,"x_min":69,"x_max":694,"o":"m 486 833 l 486 1042 l 694 1042 l 694 833 l 486 833 m 69 833 l 69 1042 l 278 1042 l 278 833 l 69 833 z "},"˚":{"ha":833,"x_min":139,"x_max":625,"o":"m 139 764 l 139 1042 l 625 1042 l 625 764 l 139 764 m 486 972 l 278 972 l 278 833 l 486 833 l 486 972 z "},"¸":{"ha":833,"x_min":208,"x_max":486,"o":"m 278 -139 l 278 0 l 486 0 l 486 -139 l 417 -139 l 417 -208 l 208 -208 l 208 -139 l 278 -139 l 278 -139 z "},"˝":{"ha":833,"x_min":139,"x_max":764,"o":"m 139 903 l 208 903 l 208 972 l 278 972 l 278 1042 l 417 1042 l 417 903 l 347 903 l 347 833 l 278 833 l 278 764 l 139 764 l 139 903 m 486 903 l 556 903 l 556 972 l 625 972 l 625 1042 l 764 1042 l 764 903 l 694 903 l 694 833 l 625 833 l 625 764 l 486 764 l 486 903 z "},"˛":{"ha":833,"x_min":278,"x_max":556,"o":"m 278 0 l 486 0 l 486 -69 l 556 -69 l 556 -139 l 347 -139 l 347 -69 l 278 -69 l 278 0 l 278 0 z "},"ˇ":{"ha":833,"x_min":139,"x_max":625,"o":"m 208 972 l 139 972 l 139 1042 l 278 1042 l 278 972 l 347 972 l 347 903 l 417 903 l 417 972 l 486 972 l 486 1042 l 625 1042 l 625 972 l 556 972 l 556 903 l 486 903 l 486 833 l 417 833 l 417 764 l 347 764 l 347 833 l 278 833 l 278 903 l 208 903 l 208 972 l 208 972 z "},"—":{"ha":833,"x_min":0,"x_max":764,"o":"m 0 278 l 0 417 l 764 417 l 764 278 l 0 278 l 0 278 z "},"Æ":{"ha":1319,"x_min":0,"x_max":1250,"o":"m 0 0 l 0 625 l 69 625 l 69 694 l 1250 694 l 1250 556 l 764 556 l 764 417 l 972 417 l 972 278 l 764 278 l 764 139 l 1250 139 l 1250 0 l 486 0 l 486 278 l 278 278 l 278 0 l 0 0 m 486 556 l 278 556 l 278 417 l 486 417 l 486 556 z "},"ª":{"ha":486,"x_min":0,"x_max":417,"o":"m 278 486 l 139 486 l 139 417 l 278 417 l 278 486 m 0 347 l 0 556 l 278 556 l 278 625 l 0 625 l 0 694 l 417 694 l 417 347 l 0 347 z "},"Ł":{"ha":903,"x_min":0,"x_max":833,"o":"m 486 347 l 417 347 l 417 278 l 347 278 l 347 139 l 833 139 l 833 0 l 69 0 l 69 139 l 0 139 l 0 278 l 69 278 l 69 694 l 347 694 l 347 486 l 417 486 l 417 556 l 556 556 l 556 417 l 486 417 l 486 347 l 486 347 z "},"Ø":{"ha":833,"x_min":0,"x_max":764,"o":"m 69 694 l 556 694 l 556 764 l 625 764 l 625 833 l 764 833 l 764 694 l 694 694 l 694 625 l 764 625 l 764 69 l 694 69 l 694 0 l 208 0 l 208 -69 l 139 -69 l 139 -139 l 0 -139 l 0 0 l 69 0 l 69 69 l 0 69 l 0 625 l 69 625 l 69 694 m 278 556 l 278 347 l 347 347 l 347 486 l 417 486 l 417 556 l 278 556 m 486 139 l 486 347 l 417 347 l 417 208 l 347 208 l 347 139 l 486 139 z "},"Œ":{"ha":1319,"x_min":0,"x_max":1250,"o":"m 764 556 l 764 417 l 972 417 l 972 278 l 764 278 l 764 139 l 1250 139 l 1250 0 l 69 0 l 69 69 l 0 69 l 0 625 l 69 625 l 69 694 l 1250 694 l 1250 556 l 764 556 m 278 139 l 486 139 l 486 556 l 278 556 l 278 139 z "},"º":{"ha":486,"x_min":0,"x_max":417,"o":"m 0 694 l 417 694 l 417 347 l 0 347 l 0 694 m 278 417 l 278 625 l 139 625 l 139 417 l 278 417 z "},"æ":{"ha":1319,"x_min":0,"x_max":1250,"o":"m 0 0 l 0 625 l 69 625 l 69 694 l 1250 694 l 1250 556 l 764 556 l 764 417 l 972 417 l 972 278 l 764 278 l 764 139 l 1250 139 l 1250 0 l 486 0 l 486 278 l 278 278 l 278 0 l 0 0 m 486 556 l 278 556 l 278 417 l 486 417 l 486 556 z "},"ı":{"ha":764,"x_min":0,"x_max":694,"o":"m 0 694 l 694 694 l 694 556 l 486 556 l 486 139 l 694 139 l 694 0 l 0 0 l 0 139 l 208 139 l 208 556 l 0 556 l 0 694 l 0 694 z "},"ł":{"ha":903,"x_min":0,"x_max":833,"o":"m 486 347 l 417 347 l 417 278 l 347 278 l 347 139 l 833 139 l 833 0 l 69 0 l 69 139 l 0 139 l 0 278 l 69 278 l 69 694 l 347 694 l 347 486 l 417 486 l 417 556 l 556 556 l 556 417 l 486 417 l 486 347 l 486 347 z "},"ø":{"ha":833,"x_min":0,"x_max":764,"o":"m 69 694 l 556 694 l 556 764 l 625 764 l 625 833 l 764 833 l 764 694 l 694 694 l 694 625 l 764 625 l 764 69 l 694 69 l 694 0 l 208 0 l 208 -69 l 139 -69 l 139 -139 l 0 -139 l 0 0 l 69 0 l 69 69 l 0 69 l 0 625 l 69 625 l 69 694 m 278 556 l 278 347 l 347 347 l 347 486 l 417 486 l 417 556 l 278 556 m 486 139 l 486 347 l 417 347 l 417 208 l 347 208 l 347 139 l 486 139 z "},"œ":{"ha":1319,"x_min":0,"x_max":1250,"o":"m 764 556 l 764 417 l 972 417 l 972 278 l 764 278 l 764 139 l 1250 139 l 1250 0 l 69 0 l 69 69 l 0 69 l 0 625 l 69 625 l 69 694 l 1250 694 l 1250 556 l 764 556 m 278 139 l 486 139 l 486 556 l 278 556 l 278 139 z "},"ß":{"ha":833,"x_min":0,"x_max":764,"o":"m 278 0 l 69 0 l 69 69 l 0 69 l 0 625 l 69 625 l 69 694 l 694 694 l 694 625 l 764 625 l 764 417 l 694 417 l 694 278 l 764 278 l 764 69 l 694 69 l 694 0 l 347 0 l 347 139 l 486 139 l 486 278 l 347 278 l 347 417 l 486 417 l 486 556 l 278 556 l 278 0 l 278 0 z "},"¹":{"ha":208,"x_min":0,"x_max":139,"o":"m 0 347 l 0 694 l 139 694 l 139 347 l 0 347 l 0 347 z "},"¬":{"ha":556,"x_min":0,"x_max":486,"o":"m 486 417 l 486 139 l 278 139 l 278 278 l 0 278 l 0 417 l 486 417 l 486 417 z "},"µ":{"ha":833,"x_min":0,"x_max":764,"o":"m 278 139 l 486 139 l 486 694 l 764 694 l 764 69 l 694 69 l 694 0 l 278 0 l 278 -139 l 0 -139 l 0 694 l 278 694 l 278 139 l 278 139 z "},"™":{"ha":1042,"x_min":0,"x_max":972,"o":"m 833 625 l 833 694 l 972 694 l 972 347 l 833 347 l 833 486 l 764 486 l 764 417 l 694 417 l 694 486 l 625 486 l 625 347 l 486 347 l 486 694 l 625 694 l 625 625 l 694 625 l 694 556 l 764 556 l 764 625 l 833 625 m 417 556 l 278 556 l 278 347 l 139 347 l 139 556 l 0 556 l 0 694 l 417 694 l 417 556 z "},"Ð":{"ha":833,"x_min":-69,"x_max":764,"o":"m -69 278 l -69 417 l 0 417 l 0 694 l 625 694 l 625 625 l 694 625 l 694 556 l 764 556 l 764 139 l 694 139 l 694 69 l 625 69 l 625 0 l 0 0 l 0 278 l -69 278 m 278 556 l 278 417 l 347 417 l 347 278 l 278 278 l 278 139 l 417 139 l 417 208 l 486 208 l 486 486 l 417 486 l 417 556 l 278 556 z "},"½":{"ha":903,"x_min":0,"x_max":833,"o":"m 208 694 l 208 417 l 69 417 l 69 556 l 0 556 l 0 625 l 69 625 l 69 694 l 208 694 m 694 139 l 694 69 l 833 69 l 833 0 l 556 0 l 556 139 l 694 139 l 694 208 l 556 208 l 556 278 l 486 278 l 486 208 l 417 208 l 417 139 l 347 139 l 347 69 l 278 69 l 278 0 l 0 0 l 0 139 l 69 139 l 69 208 l 139 208 l 139 278 l 208 278 l 208 347 l 278 347 l 278 417 l 347 417 l 347 486 l 417 486 l 417 556 l 486 556 l 486 625 l 556 625 l 556 694 l 833 694 l 833 556 l 764 556 l 764 486 l 694 486 l 694 417 l 625 417 l 625 347 l 556 347 l 556 278 l 833 278 l 833 139 l 694 139 z "},"±":{"ha":833,"x_min":0,"x_max":764,"o":"m 0 0 l 0 139 l 764 139 l 764 0 l 0 0 m 278 556 l 278 694 l 486 694 l 486 556 l 764 556 l 764 417 l 486 417 l 486 278 l 278 278 l 278 417 l 0 417 l 0 556 l 278 556 z "},"Þ":{"ha":833,"x_min":0,"x_max":764,"o":"m 486 417 l 278 417 l 278 278 l 486 278 l 486 417 m 278 0 l 0 0 l 0 694 l 278 694 l 278 556 l 694 556 l 694 486 l 764 486 l 764 208 l 694 208 l 694 139 l 278 139 l 278 0 z "},"¼":{"ha":903,"x_min":0,"x_max":833,"o":"m 208 694 l 208 417 l 69 417 l 69 556 l 0 556 l 0 625 l 69 625 l 69 694 l 208 694 m 625 278 l 625 139 l 694 139 l 694 278 l 833 278 l 833 0 l 694 0 l 694 69 l 556 69 l 556 278 l 486 278 l 486 208 l 417 208 l 417 139 l 347 139 l 347 69 l 278 69 l 278 0 l 0 0 l 0 139 l 69 139 l 69 208 l 139 208 l 139 278 l 208 278 l 208 347 l 278 347 l 278 417 l 347 417 l 347 486 l 417 486 l 417 556 l 486 556 l 486 625 l 556 625 l 556 694 l 833 694 l 833 556 l 764 556 l 764 486 l 694 486 l 694 417 l 625 417 l 625 347 l 556 347 l 556 278 l 625 278 z "},"÷":{"ha":833,"x_min":0,"x_max":764,"o":"m 278 0 l 278 208 l 486 208 l 486 0 l 278 0 m 278 486 l 278 694 l 486 694 l 486 486 l 278 486 m 0 278 l 0 417 l 764 417 l 764 278 l 0 278 z "},"¦":{"ha":278,"x_min":0,"x_max":208,"o":"m 0 -69 l 0 278 l 208 278 l 208 -69 l 0 -69 m 208 764 l 208 417 l 0 417 l 0 764 l 208 764 z "},"°":{"ha":833,"x_min":139,"x_max":625,"o":"m 139 764 l 139 1042 l 625 1042 l 625 764 l 139 764 m 486 972 l 278 972 l 278 833 l 486 833 l 486 972 z "},"þ":{"ha":833,"x_min":0,"x_max":764,"o":"m 486 417 l 278 417 l 278 278 l 486 278 l 486 417 m 278 0 l 0 0 l 0 694 l 278 694 l 278 556 l 694 556 l 694 486 l 764 486 l 764 208 l 694 208 l 694 139 l 278 139 l 278 0 z "},"¾":{"ha":903,"x_min":0,"x_max":833,"o":"m 625 278 l 625 139 l 694 139 l 694 278 l 833 278 l 833 0 l 694 0 l 694 69 l 556 69 l 556 278 l 486 278 l 486 208 l 417 208 l 417 139 l 347 139 l 347 69 l 278 69 l 278 0 l 0 0 l 0 139 l 69 139 l 69 208 l 139 208 l 139 278 l 208 278 l 208 347 l 278 347 l 278 417 l 0 417 l 0 486 l 139 486 l 139 556 l 69 556 l 69 625 l 0 625 l 0 694 l 278 694 l 278 417 l 347 417 l 347 486 l 417 486 l 417 556 l 486 556 l 486 625 l 556 625 l 556 694 l 833 694 l 833 556 l 764 556 l 764 486 l 694 486 l 694 417 l 625 417 l 625 347 l 556 347 l 556 278 l 625 278 l 625 278 z "},"²":{"ha":486,"x_min":0,"x_max":417,"o":"m 0 556 l 278 556 l 278 625 l 0 625 l 0 694 l 417 694 l 417 486 l 139 486 l 139 417 l 417 417 l 417 347 l 0 347 l 0 556 l 0 556 z "},"®":{"ha":1042,"x_min":0,"x_max":972,"o":"m 486 417 l 486 347 l 556 347 l 556 417 l 486 417 m 625 347 l 556 347 l 556 278 l 625 278 l 625 208 l 556 208 l 556 278 l 486 278 l 486 208 l 347 208 l 347 486 l 625 486 l 625 347 m 278 139 l 694 139 l 694 556 l 278 556 l 278 139 m 972 625 l 972 69 l 903 69 l 903 0 l 69 0 l 69 69 l 0 69 l 0 625 l 69 625 l 69 694 l 903 694 l 903 625 l 972 625 z "},"ð":{"ha":833,"x_min":-69,"x_max":764,"o":"m -69 278 l -69 417 l 0 417 l 0 694 l 625 694 l 625 625 l 694 625 l 694 556 l 764 556 l 764 139 l 694 139 l 694 69 l 625 69 l 625 0 l 0 0 l 0 278 l -69 278 m 278 556 l 278 417 l 347 417 l 347 278 l 278 278 l 278 139 l 417 139 l 417 208 l 486 208 l 486 486 l 417 486 l 417 556 l 278 556 z "},"×":{"ha":625,"x_min":0,"x_max":556,"o":"m 208 556 l 208 486 l 347 486 l 347 556 l 417 556 l 417 625 l 556 625 l 556 486 l 486 486 l 486 417 l 417 417 l 417 278 l 486 278 l 486 208 l 556 208 l 556 69 l 417 69 l 417 139 l 347 139 l 347 208 l 208 208 l 208 139 l 139 139 l 139 69 l 0 69 l 0 208 l 69 208 l 69 278 l 139 278 l 139 417 l 69 417 l 69 486 l 0 486 l 0 625 l 139 625 l 139 556 l 208 556 l 208 556 z "},"³":{"ha":486,"x_min":0,"x_max":417,"o":"m 0 694 l 417 694 l 417 347 l 0 347 l 0 417 l 278 417 l 278 486 l 0 486 l 0 556 l 278 556 l 278 625 l 0 625 l 0 694 l 0 694 z "},"©":{"ha":1042,"x_min":0,"x_max":972,"o":"m 347 278 l 347 417 l 417 417 l 417 486 l 625 486 l 625 417 l 486 417 l 486 278 l 625 278 l 625 208 l 417 208 l 417 278 l 347 278 m 278 139 l 694 139 l 694 556 l 278 556 l 278 139 m 972 625 l 972 69 l 903 69 l 903 0 l 69 0 l 69 69 l 0 69 l 0 625 l 69 625 l 69 694 l 903 694 l 903 625 l 972 625 z "},"Á":{"ha":833,"x_min":0,"x_max":764,"o":"m 0 625 l 69 625 l 69 694 l 694 694 l 694 625 l 764 625 l 764 0 l 486 0 l 486 278 l 278 278 l 278 0 l 0 0 l 0 625 m 278 417 l 486 417 l 486 556 l 278 556 l 278 417 m 278 903 l 347 903 l 347 972 l 417 972 l 417 1042 l 556 1042 l 556 903 l 486 903 l 486 833 l 417 833 l 417 764 l 278 764 l 278 903 z "},"Â":{"ha":833,"x_min":0,"x_max":764,"o":"m 0 625 l 69 625 l 69 694 l 694 694 l 694 625 l 764 625 l 764 0 l 486 0 l 486 278 l 278 278 l 278 0 l 0 0 l 0 625 m 278 417 l 486 417 l 486 556 l 278 556 l 278 417 m 139 833 l 208 833 l 208 903 l 278 903 l 278 972 l 347 972 l 347 1042 l 417 1042 l 417 972 l 486 972 l 486 903 l 556 903 l 556 833 l 625 833 l 625 764 l 486 764 l 486 833 l 417 833 l 417 903 l 347 903 l 347 833 l 278 833 l 278 764 l 139 764 l 139 833 z "},"Ä":{"ha":833,"x_min":0,"x_max":764,"o":"m 486 833 l 486 1042 l 694 1042 l 694 833 l 486 833 m 69 833 l 69 1042 l 278 1042 l 278 833 l 69 833 m 486 556 l 278 556 l 278 417 l 486 417 l 486 556 m 278 0 l 0 0 l 0 625 l 69 625 l 69 694 l 694 694 l 694 625 l 764 625 l 764 0 l 486 0 l 486 278 l 278 278 l 278 0 z "},"À":{"ha":833,"x_min":0,"x_max":764,"o":"m 417 903 l 486 903 l 486 764 l 347 764 l 347 833 l 278 833 l 278 903 l 208 903 l 208 1042 l 347 1042 l 347 972 l 417 972 l 417 903 m 486 556 l 278 556 l 278 417 l 486 417 l 486 556 m 278 0 l 0 0 l 0 625 l 69 625 l 69 694 l 694 694 l 694 625 l 764 625 l 764 0 l 486 0 l 486 278 l 278 278 l 278 0 z "},"Å":{"ha":833,"x_min":0,"x_max":764,"o":"m 139 764 l 139 1042 l 625 1042 l 625 764 l 139 764 m 486 972 l 278 972 l 278 833 l 486 833 l 486 972 m 486 556 l 278 556 l 278 417 l 486 417 l 486 556 m 278 0 l 0 0 l 0 625 l 69 625 l 69 694 l 694 694 l 694 625 l 764 625 l 764 0 l 486 0 l 486 278 l 278 278 l 278 0 z "},"Ã":{"ha":833,"x_min":0,"x_max":764,"o":"m 278 764 l 139 764 l 139 972 l 208 972 l 208 1042 l 347 1042 l 347 972 l 417 972 l 417 903 l 486 903 l 486 1042 l 625 1042 l 625 833 l 556 833 l 556 764 l 417 764 l 417 833 l 347 833 l 347 903 l 278 903 l 278 764 m 486 556 l 278 556 l 278 417 l 486 417 l 486 556 m 278 0 l 0 0 l 0 625 l 69 625 l 69 694 l 694 694 l 694 625 l 764 625 l 764 0 l 486 0 l 486 278 l 278 278 l 278 0 z "},"Ç":{"ha":833,"x_min":0,"x_max":764,"o":"m 208 -208 l 208 -139 l 278 -139 l 278 0 l 69 0 l 69 69 l 0 69 l 0 625 l 69 625 l 69 694 l 694 694 l 694 625 l 764 625 l 764 417 l 486 417 l 486 556 l 278 556 l 278 139 l 486 139 l 486 278 l 764 278 l 764 69 l 694 69 l 694 0 l 486 0 l 486 -139 l 417 -139 l 417 -208 l 208 -208 l 208 -208 z "},"É":{"ha":833,"x_min":0,"x_max":764,"o":"m 486 278 l 278 278 l 278 139 l 764 139 l 764 0 l 69 0 l 69 69 l 0 69 l 0 625 l 69 625 l 69 694 l 764 694 l 764 556 l 278 556 l 278 417 l 486 417 l 486 278 m 278 903 l 347 903 l 347 972 l 417 972 l 417 1042 l 556 1042 l 556 903 l 486 903 l 486 833 l 417 833 l 417 764 l 278 764 l 278 903 z "},"Ê":{"ha":833,"x_min":0,"x_max":764,"o":"m 486 278 l 278 278 l 278 139 l 764 139 l 764 0 l 69 0 l 69 69 l 0 69 l 0 625 l 69 625 l 69 694 l 764 694 l 764 556 l 278 556 l 278 417 l 486 417 l 486 278 m 139 833 l 208 833 l 208 903 l 278 903 l 278 972 l 347 972 l 347 1042 l 417 1042 l 417 972 l 486 972 l 486 903 l 556 903 l 556 833 l 625 833 l 625 764 l 486 764 l 486 833 l 417 833 l 417 903 l 347 903 l 347 833 l 278 833 l 278 764 l 139 764 l 139 833 z "},"Ë":{"ha":833,"x_min":0,"x_max":764,"o":"m 486 833 l 486 1042 l 694 1042 l 694 833 l 486 833 m 69 833 l 69 1042 l 278 1042 l 278 833 l 69 833 m 278 417 l 486 417 l 486 278 l 278 278 l 278 139 l 764 139 l 764 0 l 69 0 l 69 69 l 0 69 l 0 625 l 69 625 l 69 694 l 764 694 l 764 556 l 278 556 l 278 417 z "},"È":{"ha":833,"x_min":0,"x_max":764,"o":"m 417 903 l 486 903 l 486 764 l 347 764 l 347 833 l 278 833 l 278 903 l 208 903 l 208 1042 l 347 1042 l 347 972 l 417 972 l 417 903 m 278 417 l 486 417 l 486 278 l 278 278 l 278 139 l 764 139 l 764 0 l 69 0 l 69 69 l 0 69 l 0 625 l 69 625 l 69 694 l 764 694 l 764 556 l 278 556 l 278 417 z "},"Í":{"ha":764,"x_min":0,"x_max":694,"o":"m 694 556 l 486 556 l 486 139 l 694 139 l 694 0 l 0 0 l 0 139 l 208 139 l 208 556 l 0 556 l 0 694 l 694 694 l 694 556 m 208 903 l 278 903 l 278 972 l 347 972 l 347 1042 l 486 1042 l 486 903 l 417 903 l 417 833 l 347 833 l 347 764 l 208 764 l 208 903 z "},"Î":{"ha":764,"x_min":0,"x_max":694,"o":"m 694 556 l 486 556 l 486 139 l 694 139 l 694 0 l 0 0 l 0 139 l 208 139 l 208 556 l 0 556 l 0 694 l 694 694 l 694 556 m 69 833 l 139 833 l 139 903 l 208 903 l 208 972 l 278 972 l 278 1042 l 417 1042 l 417 972 l 486 972 l 486 903 l 556 903 l 556 833 l 625 833 l 625 764 l 486 764 l 486 833 l 417 833 l 417 903 l 278 903 l 278 833 l 208 833 l 208 764 l 69 764 l 69 833 z "},"Ï":{"ha":764,"x_min":0,"x_max":694,"o":"m 417 833 l 417 1042 l 625 1042 l 625 833 l 417 833 m 69 833 l 69 1042 l 278 1042 l 278 833 l 69 833 m 0 694 l 694 694 l 694 556 l 486 556 l 486 139 l 694 139 l 694 0 l 0 0 l 0 139 l 208 139 l 208 556 l 0 556 l 0 694 z "},"Ì":{"ha":764,"x_min":0,"x_max":694,"o":"m 417 903 l 486 903 l 486 764 l 347 764 l 347 833 l 278 833 l 278 903 l 208 903 l 208 1042 l 347 1042 l 347 972 l 417 972 l 417 903 m 0 694 l 694 694 l 694 556 l 486 556 l 486 139 l 694 139 l 694 0 l 0 0 l 0 139 l 208 139 l 208 556 l 0 556 l 0 694 z "},"Ñ":{"ha":833,"x_min":0,"x_max":764,"o":"m 278 764 l 139 764 l 139 972 l 208 972 l 208 1042 l 347 1042 l 347 972 l 417 972 l 417 903 l 486 903 l 486 1042 l 625 1042 l 625 833 l 556 833 l 556 764 l 417 764 l 417 833 l 347 833 l 347 903 l 278 903 l 278 764 m 486 486 l 486 694 l 764 694 l 764 0 l 486 0 l 486 208 l 417 208 l 417 278 l 347 278 l 347 347 l 278 347 l 278 0 l 0 0 l 0 694 l 278 694 l 278 625 l 347 625 l 347 556 l 417 556 l 417 486 l 486 486 z "},"Ó":{"ha":833,"x_min":0,"x_max":764,"o":"m 486 556 l 278 556 l 278 139 l 486 139 l 486 556 m 69 0 l 69 69 l 0 69 l 0 625 l 69 625 l 69 694 l 694 694 l 694 625 l 764 625 l 764 69 l 694 69 l 694 0 l 69 0 m 278 903 l 347 903 l 347 972 l 417 972 l 417 1042 l 556 1042 l 556 903 l 486 903 l 486 833 l 417 833 l 417 764 l 278 764 l 278 903 z "},"Ô":{"ha":833,"x_min":0,"x_max":764,"o":"m 486 556 l 278 556 l 278 139 l 486 139 l 486 556 m 69 0 l 69 69 l 0 69 l 0 625 l 69 625 l 69 694 l 694 694 l 694 625 l 764 625 l 764 69 l 694 69 l 694 0 l 69 0 m 139 833 l 208 833 l 208 903 l 278 903 l 278 972 l 347 972 l 347 1042 l 417 1042 l 417 972 l 486 972 l 486 903 l 556 903 l 556 833 l 625 833 l 625 764 l 486 764 l 486 833 l 417 833 l 417 903 l 347 903 l 347 833 l 278 833 l 278 764 l 139 764 l 139 833 z "},"Ö":{"ha":833,"x_min":0,"x_max":764,"o":"m 486 833 l 486 1042 l 694 1042 l 694 833 l 486 833 m 69 833 l 69 1042 l 278 1042 l 278 833 l 69 833 m 694 69 l 694 0 l 69 0 l 69 69 l 0 69 l 0 625 l 69 625 l 69 694 l 694 694 l 694 625 l 764 625 l 764 69 l 694 69 m 278 139 l 486 139 l 486 556 l 278 556 l 278 139 z "},"Ò":{"ha":833,"x_min":0,"x_max":764,"o":"m 417 903 l 486 903 l 486 764 l 347 764 l 347 833 l 278 833 l 278 903 l 208 903 l 208 1042 l 347 1042 l 347 972 l 417 972 l 417 903 m 694 69 l 694 0 l 69 0 l 69 69 l 0 69 l 0 625 l 69 625 l 69 694 l 694 694 l 694 625 l 764 625 l 764 69 l 694 69 m 278 139 l 486 139 l 486 556 l 278 556 l 278 139 z "},"Õ":{"ha":833,"x_min":0,"x_max":764,"o":"m 278 764 l 139 764 l 139 972 l 208 972 l 208 1042 l 347 1042 l 347 972 l 417 972 l 417 903 l 486 903 l 486 1042 l 625 1042 l 625 833 l 556 833 l 556 764 l 417 764 l 417 833 l 347 833 l 347 903 l 278 903 l 278 764 m 694 69 l 694 0 l 69 0 l 69 69 l 0 69 l 0 625 l 69 625 l 69 694 l 694 694 l 694 625 l 764 625 l 764 69 l 694 69 m 278 139 l 486 139 l 486 556 l 278 556 l 278 139 z "},"Š":{"ha":833,"x_min":0,"x_max":764,"o":"m 69 347 l 0 347 l 0 625 l 69 625 l 69 694 l 764 694 l 764 556 l 278 556 l 278 417 l 694 417 l 694 347 l 764 347 l 764 69 l 694 69 l 694 0 l 0 0 l 0 139 l 486 139 l 486 278 l 69 278 l 69 347 m 625 972 l 556 972 l 556 903 l 486 903 l 486 833 l 417 833 l 417 764 l 347 764 l 347 833 l 278 833 l 278 903 l 208 903 l 208 972 l 139 972 l 139 1042 l 278 1042 l 278 972 l 347 972 l 347 903 l 417 903 l 417 972 l 486 972 l 486 1042 l 625 1042 l 625 972 z "},"Ú":{"ha":833,"x_min":0,"x_max":764,"o":"m 486 694 l 764 694 l 764 69 l 694 69 l 694 0 l 69 0 l 69 69 l 0 69 l 0 694 l 278 694 l 278 139 l 486 139 l 486 694 m 278 903 l 347 903 l 347 972 l 417 972 l 417 1042 l 556 1042 l 556 903 l 486 903 l 486 833 l 417 833 l 417 764 l 278 764 l 278 903 z "},"Û":{"ha":833,"x_min":0,"x_max":764,"o":"m 486 694 l 764 694 l 764 69 l 694 69 l 694 0 l 69 0 l 69 69 l 0 69 l 0 694 l 278 694 l 278 139 l 486 139 l 486 694 m 139 833 l 208 833 l 208 903 l 278 903 l 278 972 l 347 972 l 347 1042 l 417 1042 l 417 972 l 486 972 l 486 903 l 556 903 l 556 833 l 625 833 l 625 764 l 486 764 l 486 833 l 417 833 l 417 903 l 347 903 l 347 833 l 278 833 l 278 764 l 139 764 l 139 833 z "},"Ü":{"ha":833,"x_min":0,"x_max":764,"o":"m 486 833 l 486 1042 l 694 1042 l 694 833 l 486 833 m 69 833 l 69 1042 l 278 1042 l 278 833 l 69 833 m 278 139 l 486 139 l 486 694 l 764 694 l 764 69 l 694 69 l 694 0 l 69 0 l 69 69 l 0 69 l 0 694 l 278 694 l 278 139 z "},"Ù":{"ha":833,"x_min":0,"x_max":764,"o":"m 417 903 l 486 903 l 486 764 l 347 764 l 347 833 l 278 833 l 278 903 l 208 903 l 208 1042 l 347 1042 l 347 972 l 417 972 l 417 903 m 278 139 l 486 139 l 486 694 l 764 694 l 764 69 l 694 69 l 694 0 l 69 0 l 69 69 l 0 69 l 0 694 l 278 694 l 278 139 z "},"Ý":{"ha":903,"x_min":0,"x_max":833,"o":"m 833 417 l 764 417 l 764 347 l 694 347 l 694 278 l 556 278 l 556 0 l 278 0 l 278 278 l 139 278 l 139 347 l 69 347 l 69 417 l 0 417 l 0 694 l 278 694 l 278 486 l 347 486 l 347 417 l 486 417 l 486 486 l 556 486 l 556 694 l 833 694 l 833 417 m 278 903 l 347 903 l 347 972 l 417 972 l 417 1042 l 556 1042 l 556 903 l 486 903 l 486 833 l 417 833 l 417 764 l 278 764 l 278 903 z "},"Ÿ":{"ha":903,"x_min":0,"x_max":833,"o":"m 486 833 l 486 1042 l 694 1042 l 694 833 l 486 833 m 139 833 l 139 1042 l 347 1042 l 347 833 l 139 833 m 556 694 l 833 694 l 833 417 l 764 417 l 764 347 l 694 347 l 694 278 l 556 278 l 556 0 l 278 0 l 278 278 l 139 278 l 139 347 l 69 347 l 69 417 l 0 417 l 0 694 l 278 694 l 278 486 l 347 486 l 347 417 l 486 417 l 486 486 l 556 486 l 556 694 z "},"Ž":{"ha":833,"x_min":0,"x_max":764,"o":"m 0 694 l 764 694 l 764 486 l 694 486 l 694 417 l 625 417 l 625 347 l 556 347 l 556 278 l 486 278 l 486 208 l 417 208 l 417 139 l 764 139 l 764 0 l 0 0 l 0 139 l 69 139 l 69 208 l 139 208 l 139 278 l 208 278 l 208 347 l 278 347 l 278 417 l 347 417 l 347 486 l 417 486 l 417 556 l 0 556 l 0 694 m 625 972 l 556 972 l 556 903 l 486 903 l 486 833 l 417 833 l 417 764 l 347 764 l 347 833 l 278 833 l 278 903 l 208 903 l 208 972 l 139 972 l 139 1042 l 278 1042 l 278 972 l 347 972 l 347 903 l 417 903 l 417 972 l 486 972 l 486 1042 l 625 1042 l 625 972 z "},"á":{"ha":833,"x_min":0,"x_max":764,"o":"m 0 625 l 69 625 l 69 694 l 694 694 l 694 625 l 764 625 l 764 0 l 486 0 l 486 278 l 278 278 l 278 0 l 0 0 l 0 625 m 278 417 l 486 417 l 486 556 l 278 556 l 278 417 m 278 903 l 347 903 l 347 972 l 417 972 l 417 1042 l 556 1042 l 556 903 l 486 903 l 486 833 l 417 833 l 417 764 l 278 764 l 278 903 z "},"â":{"ha":833,"x_min":0,"x_max":764,"o":"m 0 625 l 69 625 l 69 694 l 694 694 l 694 625 l 764 625 l 764 0 l 486 0 l 486 278 l 278 278 l 278 0 l 0 0 l 0 625 m 278 417 l 486 417 l 486 556 l 278 556 l 278 417 m 139 833 l 208 833 l 208 903 l 278 903 l 278 972 l 347 972 l 347 1042 l 417 1042 l 417 972 l 486 972 l 486 903 l 556 903 l 556 833 l 625 833 l 625 764 l 486 764 l 486 833 l 417 833 l 417 903 l 347 903 l 347 833 l 278 833 l 278 764 l 139 764 l 139 833 z "},"ä":{"ha":833,"x_min":0,"x_max":764,"o":"m 486 833 l 486 1042 l 694 1042 l 694 833 l 486 833 m 69 833 l 69 1042 l 278 1042 l 278 833 l 69 833 m 486 556 l 278 556 l 278 417 l 486 417 l 486 556 m 278 0 l 0 0 l 0 625 l 69 625 l 69 694 l 694 694 l 694 625 l 764 625 l 764 0 l 486 0 l 486 278 l 278 278 l 278 0 z "},"à":{"ha":833,"x_min":0,"x_max":764,"o":"m 417 903 l 486 903 l 486 764 l 347 764 l 347 833 l 278 833 l 278 903 l 208 903 l 208 1042 l 347 1042 l 347 972 l 417 972 l 417 903 m 486 556 l 278 556 l 278 417 l 486 417 l 486 556 m 278 0 l 0 0 l 0 625 l 69 625 l 69 694 l 694 694 l 694 625 l 764 625 l 764 0 l 486 0 l 486 278 l 278 278 l 278 0 z "},"å":{"ha":833,"x_min":0,"x_max":764,"o":"m 139 764 l 139 1042 l 625 1042 l 625 764 l 139 764 m 486 972 l 278 972 l 278 833 l 486 833 l 486 972 m 486 556 l 278 556 l 278 417 l 486 417 l 486 556 m 278 0 l 0 0 l 0 625 l 69 625 l 69 694 l 694 694 l 694 625 l 764 625 l 764 0 l 486 0 l 486 278 l 278 278 l 278 0 z "},"ã":{"ha":833,"x_min":0,"x_max":764,"o":"m 278 764 l 139 764 l 139 972 l 208 972 l 208 1042 l 347 1042 l 347 972 l 417 972 l 417 903 l 486 903 l 486 1042 l 625 1042 l 625 833 l 556 833 l 556 764 l 417 764 l 417 833 l 347 833 l 347 903 l 278 903 l 278 764 m 486 556 l 278 556 l 278 417 l 486 417 l 486 556 m 278 0 l 0 0 l 0 625 l 69 625 l 69 694 l 694 694 l 694 625 l 764 625 l 764 0 l 486 0 l 486 278 l 278 278 l 278 0 z "},"ç":{"ha":833,"x_min":0,"x_max":764,"o":"m 208 -208 l 208 -139 l 278 -139 l 278 0 l 69 0 l 69 69 l 0 69 l 0 625 l 69 625 l 69 694 l 694 694 l 694 625 l 764 625 l 764 417 l 486 417 l 486 556 l 278 556 l 278 139 l 486 139 l 486 278 l 764 278 l 764 69 l 694 69 l 694 0 l 486 0 l 486 -139 l 417 -139 l 417 -208 l 208 -208 l 208 -208 z "},"é":{"ha":833,"x_min":0,"x_max":764,"o":"m 486 278 l 278 278 l 278 139 l 764 139 l 764 0 l 69 0 l 69 69 l 0 69 l 0 625 l 69 625 l 69 694 l 764 694 l 764 556 l 278 556 l 278 417 l 486 417 l 486 278 m 278 903 l 347 903 l 347 972 l 417 972 l 417 1042 l 556 1042 l 556 903 l 486 903 l 486 833 l 417 833 l 417 764 l 278 764 l 278 903 z "},"ê":{"ha":833,"x_min":0,"x_max":764,"o":"m 486 278 l 278 278 l 278 139 l 764 139 l 764 0 l 69 0 l 69 69 l 0 69 l 0 625 l 69 625 l 69 694 l 764 694 l 764 556 l 278 556 l 278 417 l 486 417 l 486 278 m 139 833 l 208 833 l 208 903 l 278 903 l 278 972 l 347 972 l 347 1042 l 417 1042 l 417 972 l 486 972 l 486 903 l 556 903 l 556 833 l 625 833 l 625 764 l 486 764 l 486 833 l 417 833 l 417 903 l 347 903 l 347 833 l 278 833 l 278 764 l 139 764 l 139 833 z "},"ë":{"ha":833,"x_min":0,"x_max":764,"o":"m 486 833 l 486 1042 l 694 1042 l 694 833 l 486 833 m 69 833 l 69 1042 l 278 1042 l 278 833 l 69 833 m 278 417 l 486 417 l 486 278 l 278 278 l 278 139 l 764 139 l 764 0 l 69 0 l 69 69 l 0 69 l 0 625 l 69 625 l 69 694 l 764 694 l 764 556 l 278 556 l 278 417 z "},"è":{"ha":833,"x_min":0,"x_max":764,"o":"m 417 903 l 486 903 l 486 764 l 347 764 l 347 833 l 278 833 l 278 903 l 208 903 l 208 1042 l 347 1042 l 347 972 l 417 972 l 417 903 m 278 417 l 486 417 l 486 278 l 278 278 l 278 139 l 764 139 l 764 0 l 69 0 l 69 69 l 0 69 l 0 625 l 69 625 l 69 694 l 764 694 l 764 556 l 278 556 l 278 417 z "},"í":{"ha":764,"x_min":0,"x_max":694,"o":"m 694 556 l 486 556 l 486 139 l 694 139 l 694 0 l 0 0 l 0 139 l 208 139 l 208 556 l 0 556 l 0 694 l 694 694 l 694 556 m 208 903 l 278 903 l 278 972 l 347 972 l 347 1042 l 486 1042 l 486 903 l 417 903 l 417 833 l 347 833 l 347 764 l 208 764 l 208 903 z "},"î":{"ha":764,"x_min":0,"x_max":694,"o":"m 694 556 l 486 556 l 486 139 l 694 139 l 694 0 l 0 0 l 0 139 l 208 139 l 208 556 l 0 556 l 0 694 l 694 694 l 694 556 m 69 833 l 139 833 l 139 903 l 208 903 l 208 972 l 278 972 l 278 1042 l 417 1042 l 417 972 l 486 972 l 486 903 l 556 903 l 556 833 l 625 833 l 625 764 l 486 764 l 486 833 l 417 833 l 417 903 l 278 903 l 278 833 l 208 833 l 208 764 l 69 764 l 69 833 z "},"ï":{"ha":764,"x_min":0,"x_max":694,"o":"m 417 833 l 417 1042 l 625 1042 l 625 833 l 417 833 m 69 833 l 69 1042 l 278 1042 l 278 833 l 69 833 m 0 694 l 694 694 l 694 556 l 486 556 l 486 139 l 694 139 l 694 0 l 0 0 l 0 139 l 208 139 l 208 556 l 0 556 l 0 694 z "},"ì":{"ha":764,"x_min":0,"x_max":694,"o":"m 417 903 l 486 903 l 486 764 l 347 764 l 347 833 l 278 833 l 278 903 l 208 903 l 208 1042 l 347 1042 l 347 972 l 417 972 l 417 903 m 0 694 l 694 694 l 694 556 l 486 556 l 486 139 l 694 139 l 694 0 l 0 0 l 0 139 l 208 139 l 208 556 l 0 556 l 0 694 z "},"ñ":{"ha":833,"x_min":0,"x_max":764,"o":"m 278 764 l 139 764 l 139 972 l 208 972 l 208 1042 l 347 1042 l 347 972 l 417 972 l 417 903 l 486 903 l 486 1042 l 625 1042 l 625 833 l 556 833 l 556 764 l 417 764 l 417 833 l 347 833 l 347 903 l 278 903 l 278 764 m 486 486 l 486 694 l 764 694 l 764 0 l 486 0 l 486 208 l 417 208 l 417 278 l 347 278 l 347 347 l 278 347 l 278 0 l 0 0 l 0 694 l 278 694 l 278 625 l 347 625 l 347 556 l 417 556 l 417 486 l 486 486 z "},"ó":{"ha":833,"x_min":0,"x_max":764,"o":"m 486 556 l 278 556 l 278 139 l 486 139 l 486 556 m 69 0 l 69 69 l 0 69 l 0 625 l 69 625 l 69 694 l 694 694 l 694 625 l 764 625 l 764 69 l 694 69 l 694 0 l 69 0 m 278 903 l 347 903 l 347 972 l 417 972 l 417 1042 l 556 1042 l 556 903 l 486 903 l 486 833 l 417 833 l 417 764 l 278 764 l 278 903 z "},"ô":{"ha":833,"x_min":0,"x_max":764,"o":"m 486 556 l 278 556 l 278 139 l 486 139 l 486 556 m 69 0 l 69 69 l 0 69 l 0 625 l 69 625 l 69 694 l 694 694 l 694 625 l 764 625 l 764 69 l 694 69 l 694 0 l 69 0 m 139 833 l 208 833 l 208 903 l 278 903 l 278 972 l 347 972 l 347 1042 l 417 1042 l 417 972 l 486 972 l 486 903 l 556 903 l 556 833 l 625 833 l 625 764 l 486 764 l 486 833 l 417 833 l 417 903 l 347 903 l 347 833 l 278 833 l 278 764 l 139 764 l 139 833 z "},"ö":{"ha":833,"x_min":0,"x_max":764,"o":"m 486 833 l 486 1042 l 694 1042 l 694 833 l 486 833 m 69 833 l 69 1042 l 278 1042 l 278 833 l 69 833 m 694 69 l 694 0 l 69 0 l 69 69 l 0 69 l 0 625 l 69 625 l 69 694 l 694 694 l 694 625 l 764 625 l 764 69 l 694 69 m 278 139 l 486 139 l 486 556 l 278 556 l 278 139 z "},"ò":{"ha":833,"x_min":0,"x_max":764,"o":"m 417 903 l 486 903 l 486 764 l 347 764 l 347 833 l 278 833 l 278 903 l 208 903 l 208 1042 l 347 1042 l 347 972 l 417 972 l 417 903 m 694 69 l 694 0 l 69 0 l 69 69 l 0 69 l 0 625 l 69 625 l 69 694 l 694 694 l 694 625 l 764 625 l 764 69 l 694 69 m 278 139 l 486 139 l 486 556 l 278 556 l 278 139 z "},"õ":{"ha":833,"x_min":0,"x_max":764,"o":"m 278 764 l 139 764 l 139 972 l 208 972 l 208 1042 l 347 1042 l 347 972 l 417 972 l 417 903 l 486 903 l 486 1042 l 625 1042 l 625 833 l 556 833 l 556 764 l 417 764 l 417 833 l 347 833 l 347 903 l 278 903 l 278 764 m 694 69 l 694 0 l 69 0 l 69 69 l 0 69 l 0 625 l 69 625 l 69 694 l 694 694 l 694 625 l 764 625 l 764 69 l 694 69 m 278 139 l 486 139 l 486 556 l 278 556 l 278 139 z "},"š":{"ha":833,"x_min":0,"x_max":764,"o":"m 69 347 l 0 347 l 0 625 l 69 625 l 69 694 l 764 694 l 764 556 l 278 556 l 278 417 l 694 417 l 694 347 l 764 347 l 764 69 l 694 69 l 694 0 l 0 0 l 0 139 l 486 139 l 486 278 l 69 278 l 69 347 m 625 972 l 556 972 l 556 903 l 486 903 l 486 833 l 417 833 l 417 764 l 347 764 l 347 833 l 278 833 l 278 903 l 208 903 l 208 972 l 139 972 l 139 1042 l 278 1042 l 278 972 l 347 972 l 347 903 l 417 903 l 417 972 l 486 972 l 486 1042 l 625 1042 l 625 972 z "},"ú":{"ha":833,"x_min":0,"x_max":764,"o":"m 486 694 l 764 694 l 764 69 l 694 69 l 694 0 l 69 0 l 69 69 l 0 69 l 0 694 l 278 694 l 278 139 l 486 139 l 486 694 m 278 903 l 347 903 l 347 972 l 417 972 l 417 1042 l 556 1042 l 556 903 l 486 903 l 486 833 l 417 833 l 417 764 l 278 764 l 278 903 z "},"û":{"ha":833,"x_min":0,"x_max":764,"o":"m 486 694 l 764 694 l 764 69 l 694 69 l 694 0 l 69 0 l 69 69 l 0 69 l 0 694 l 278 694 l 278 139 l 486 139 l 486 694 m 139 833 l 208 833 l 208 903 l 278 903 l 278 972 l 347 972 l 347 1042 l 417 1042 l 417 972 l 486 972 l 486 903 l 556 903 l 556 833 l 625 833 l 625 764 l 486 764 l 486 833 l 417 833 l 417 903 l 347 903 l 347 833 l 278 833 l 278 764 l 139 764 l 139 833 z "},"ü":{"ha":833,"x_min":0,"x_max":764,"o":"m 486 833 l 486 1042 l 694 1042 l 694 833 l 486 833 m 69 833 l 69 1042 l 278 1042 l 278 833 l 69 833 m 278 139 l 486 139 l 486 694 l 764 694 l 764 69 l 694 69 l 694 0 l 69 0 l 69 69 l 0 69 l 0 694 l 278 694 l 278 139 z "},"ù":{"ha":833,"x_min":0,"x_max":764,"o":"m 417 903 l 486 903 l 486 764 l 347 764 l 347 833 l 278 833 l 278 903 l 208 903 l 208 1042 l 347 1042 l 347 972 l 417 972 l 417 903 m 278 139 l 486 139 l 486 694 l 764 694 l 764 69 l 694 69 l 694 0 l 69 0 l 69 69 l 0 69 l 0 694 l 278 694 l 278 139 z "},"ý":{"ha":903,"x_min":0,"x_max":833,"o":"m 833 417 l 764 417 l 764 347 l 694 347 l 694 278 l 556 278 l 556 0 l 278 0 l 278 278 l 139 278 l 139 347 l 69 347 l 69 417 l 0 417 l 0 694 l 278 694 l 278 486 l 347 486 l 347 417 l 486 417 l 486 486 l 556 486 l 556 694 l 833 694 l 833 417 m 278 903 l 347 903 l 347 972 l 417 972 l 417 1042 l 556 1042 l 556 903 l 486 903 l 486 833 l 417 833 l 417 764 l 278 764 l 278 903 z "},"ž":{"ha":833,"x_min":0,"x_max":764,"o":"m 0 694 l 764 694 l 764 486 l 694 486 l 694 417 l 625 417 l 625 347 l 556 347 l 556 278 l 486 278 l 486 208 l 417 208 l 417 139 l 764 139 l 764 0 l 0 0 l 0 139 l 69 139 l 69 208 l 139 208 l 139 278 l 208 278 l 208 347 l 278 347 l 278 417 l 347 417 l 347 486 l 417 486 l 417 556 l 0 556 l 0 694 m 625 972 l 556 972 l 556 903 l 486 903 l 486 833 l 417 833 l 417 764 l 347 764 l 347 833 l 278 833 l 278 903 l 208 903 l 208 972 l 139 972 l 139 1042 l 278 1042 l 278 972 l 347 972 l 347 903 l 417 903 l 417 972 l 486 972 l 486 1042 l 625 1042 l 625 972 z "},"₍":{"ha":208,"x_min":0,"x_max":0,"o":""},"⁰":{"ha":486,"x_min":0,"x_max":417,"o":"m 0 694 l 417 694 l 417 347 l 0 347 l 0 694 m 278 417 l 278 625 l 139 625 l 139 417 l 278 417 z "},"⁴":{"ha":486,"x_min":0,"x_max":417,"o":"m 139 694 l 139 556 l 278 556 l 278 694 l 417 694 l 417 347 l 278 347 l 278 486 l 0 486 l 0 694 l 139 694 l 139 694 z "},"⁵":{"ha":486,"x_min":0,"x_max":417,"o":"m 139 556 l 417 556 l 417 347 l 0 347 l 0 417 l 278 417 l 278 486 l 0 486 l 0 694 l 417 694 l 417 625 l 139 625 l 139 556 l 139 556 z "},"⁶":{"ha":486,"x_min":0,"x_max":417,"o":"m 278 486 l 139 486 l 139 417 l 278 417 l 278 486 m 0 347 l 0 694 l 417 694 l 417 625 l 139 625 l 139 556 l 417 556 l 417 347 l 0 347 z "},"⁷":{"ha":486,"x_min":0,"x_max":417,"o":"m 278 347 l 278 625 l 0 625 l 0 694 l 417 694 l 417 347 l 278 347 l 278 347 z "},"⁸":{"ha":486,"x_min":0,"x_max":417,"o":"m 417 694 l 417 347 l 0 347 l 0 694 l 417 694 m 139 556 l 278 556 l 278 625 l 139 625 l 139 556 m 278 486 l 139 486 l 139 417 l 278 417 l 278 486 z "},"⁹":{"ha":486,"x_min":0,"x_max":417,"o":"m 139 556 l 278 556 l 278 625 l 139 625 l 139 556 m 417 694 l 417 347 l 0 347 l 0 417 l 278 417 l 278 486 l 0 486 l 0 694 l 417 694 z "},"₀":{"ha":486,"x_min":0,"x_max":417,"o":"m 0 347 l 417 347 l 417 0 l 0 0 l 0 347 m 278 69 l 278 278 l 139 278 l 139 69 l 278 69 z "},"₁":{"ha":208,"x_min":0,"x_max":139,"o":"m 0 0 l 0 347 l 139 347 l 139 0 l 0 0 l 0 0 z "},"₂":{"ha":486,"x_min":0,"x_max":417,"o":"m 0 208 l 278 208 l 278 278 l 0 278 l 0 347 l 417 347 l 417 139 l 139 139 l 139 69 l 417 69 l 417 0 l 0 0 l 0 208 l 0 208 z "},"₃":{"ha":486,"x_min":0,"x_max":417,"o":"m 0 347 l 417 347 l 417 0 l 0 0 l 0 69 l 278 69 l 278 139 l 0 139 l 0 208 l 278 208 l 278 278 l 0 278 l 0 347 l 0 347 z "},"₄":{"ha":486,"x_min":0,"x_max":417,"o":"m 139 347 l 139 208 l 278 208 l 278 347 l 417 347 l 417 0 l 278 0 l 278 139 l 0 139 l 0 347 l 139 347 l 139 347 z "},"₅":{"ha":486,"x_min":0,"x_max":417,"o":"m 139 208 l 417 208 l 417 0 l 0 0 l 0 69 l 278 69 l 278 139 l 0 139 l 0 347 l 417 347 l 417 278 l 139 278 l 139 208 l 139 208 z "},"₆":{"ha":486,"x_min":0,"x_max":417,"o":"m 278 139 l 139 139 l 139 69 l 278 69 l 278 139 m 0 0 l 0 347 l 417 347 l 417 278 l 139 278 l 139 208 l 417 208 l 417 0 l 0 0 z "},"₇":{"ha":486,"x_min":0,"x_max":417,"o":"m 278 0 l 278 278 l 0 278 l 0 347 l 417 347 l 417 0 l 278 0 l 278 0 z "},"₈":{"ha":486,"x_min":0,"x_max":417,"o":"m 417 347 l 417 0 l 0 0 l 0 347 l 417 347 m 139 208 l 278 208 l 278 278 l 139 278 l 139 208 m 278 139 l 139 139 l 139 69 l 278 69 l 278 139 z "},"₉":{"ha":486,"x_min":0,"x_max":417,"o":"m 139 208 l 278 208 l 278 278 l 139 278 l 139 208 m 417 347 l 417 0 l 0 0 l 0 69 l 278 69 l 278 139 l 0 139 l 0 347 l 417 347 z "},"€":{"ha":833,"x_min":0,"x_max":764,"o":"m 278 556 l 278 417 l 486 417 l 486 556 l 278 556 m 764 417 l 486 417 l 486 278 l 764 278 l 764 69 l 694 69 l 694 0 l 69 0 l 69 69 l 0 69 l 0 625 l 69 625 l 69 694 l 694 694 l 694 625 l 764 625 l 764 417 m 486 139 l 486 278 l 278 278 l 278 139 l 486 139 z "},"­":{"ha":347,"x_min":0,"x_max":278,"o":"m 0 278 l 0 417 l 278 417 l 278 278 l 0 278 l 0 278 z "},"`":{"ha":833,"x_min":208,"x_max":486,"o":"m 417 903 l 486 903 l 486 764 l 347 764 l 347 833 l 278 833 l 278 903 l 208 903 l 208 1042 l 347 1042 l 347 972 l 417 972 l 417 903 l 417 903 z "},"Ā":{"ha":833,"x_min":0,"x_max":764,"o":"m 0 833 l 0 972 l 764 972 l 764 833 l 0 833 m 486 556 l 278 556 l 278 417 l 486 417 l 486 556 m 278 0 l 0 0 l 0 625 l 69 625 l 69 694 l 694 694 l 694 625 l 764 625 l 764 0 l 486 0 l 486 278 l 278 278 l 278 0 z "},"ā":{"ha":833,"x_min":0,"x_max":764,"o":"m 0 833 l 0 972 l 764 972 l 764 833 l 0 833 m 486 556 l 278 556 l 278 417 l 486 417 l 486 556 m 278 0 l 0 0 l 0 625 l 69 625 l 69 694 l 694 694 l 694 625 l 764 625 l 764 0 l 486 0 l 486 278 l 278 278 l 278 0 z "},"Ă":{"ha":833,"x_min":0,"x_max":764,"o":"m 139 833 l 139 972 l 278 972 l 278 903 l 486 903 l 486 972 l 625 972 l 625 833 l 556 833 l 556 764 l 208 764 l 208 833 l 139 833 m 486 556 l 278 556 l 278 417 l 486 417 l 486 556 m 278 0 l 0 0 l 0 625 l 69 625 l 69 694 l 694 694 l 694 625 l 764 625 l 764 0 l 486 0 l 486 278 l 278 278 l 278 0 z "},"ă":{"ha":833,"x_min":0,"x_max":764,"o":"m 139 833 l 139 972 l 278 972 l 278 903 l 486 903 l 486 972 l 625 972 l 625 833 l 556 833 l 556 764 l 208 764 l 208 833 l 139 833 m 486 556 l 278 556 l 278 417 l 486 417 l 486 556 m 278 0 l 0 0 l 0 625 l 69 625 l 69 694 l 694 694 l 694 625 l 764 625 l 764 0 l 486 0 l 486 278 l 278 278 l 278 0 z "},"Ą":{"ha":833,"x_min":0,"x_max":764,"o":"m 764 0 l 694 0 l 694 -69 l 764 -69 l 764 -139 l 556 -139 l 556 -69 l 486 -69 l 486 278 l 278 278 l 278 0 l 0 0 l 0 625 l 69 625 l 69 694 l 694 694 l 694 625 l 764 625 l 764 0 m 486 556 l 278 556 l 278 417 l 486 417 l 486 556 z "},"ą":{"ha":833,"x_min":0,"x_max":764,"o":"m 764 0 l 694 0 l 694 -69 l 764 -69 l 764 -139 l 556 -139 l 556 -69 l 486 -69 l 486 278 l 278 278 l 278 0 l 0 0 l 0 625 l 69 625 l 69 694 l 694 694 l 694 625 l 764 625 l 764 0 m 486 556 l 278 556 l 278 417 l 486 417 l 486 556 z "},"Ć":{"ha":833,"x_min":0,"x_max":764,"o":"m 486 139 l 486 278 l 764 278 l 764 69 l 694 69 l 694 0 l 69 0 l 69 69 l 0 69 l 0 625 l 69 625 l 69 694 l 694 694 l 694 625 l 764 625 l 764 417 l 486 417 l 486 556 l 278 556 l 278 139 l 486 139 m 278 903 l 347 903 l 347 972 l 417 972 l 417 1042 l 556 1042 l 556 903 l 486 903 l 486 833 l 417 833 l 417 764 l 278 764 l 278 903 z "},"ć":{"ha":833,"x_min":0,"x_max":764,"o":"m 486 139 l 486 278 l 764 278 l 764 69 l 694 69 l 694 0 l 69 0 l 69 69 l 0 69 l 0 625 l 69 625 l 69 694 l 694 694 l 694 625 l 764 625 l 764 417 l 486 417 l 486 556 l 278 556 l 278 139 l 486 139 m 278 903 l 347 903 l 347 972 l 417 972 l 417 1042 l 556 1042 l 556 903 l 486 903 l 486 833 l 417 833 l 417 764 l 278 764 l 278 903 z "},"Ĉ":{"ha":833,"x_min":0,"x_max":764,"o":"m 486 139 l 486 278 l 764 278 l 764 69 l 694 69 l 694 0 l 69 0 l 69 69 l 0 69 l 0 625 l 69 625 l 69 694 l 694 694 l 694 625 l 764 625 l 764 417 l 486 417 l 486 556 l 278 556 l 278 139 l 486 139 m 139 833 l 208 833 l 208 903 l 278 903 l 278 972 l 347 972 l 347 1042 l 417 1042 l 417 972 l 486 972 l 486 903 l 556 903 l 556 833 l 625 833 l 625 764 l 486 764 l 486 833 l 417 833 l 417 903 l 347 903 l 347 833 l 278 833 l 278 764 l 139 764 l 139 833 z "},"ĉ":{"ha":833,"x_min":0,"x_max":764,"o":"m 486 139 l 486 278 l 764 278 l 764 69 l 694 69 l 694 0 l 69 0 l 69 69 l 0 69 l 0 625 l 69 625 l 69 694 l 694 694 l 694 625 l 764 625 l 764 417 l 486 417 l 486 556 l 278 556 l 278 139 l 486 139 m 139 833 l 208 833 l 208 903 l 278 903 l 278 972 l 347 972 l 347 1042 l 417 1042 l 417 972 l 486 972 l 486 903 l 556 903 l 556 833 l 625 833 l 625 764 l 486 764 l 486 833 l 417 833 l 417 903 l 347 903 l 347 833 l 278 833 l 278 764 l 139 764 l 139 833 z "},"Ċ":{"ha":833,"x_min":0,"x_max":764,"o":"m 278 833 l 278 1042 l 486 1042 l 486 833 l 278 833 m 278 556 l 278 139 l 486 139 l 486 278 l 764 278 l 764 69 l 694 69 l 694 0 l 69 0 l 69 69 l 0 69 l 0 625 l 69 625 l 69 694 l 694 694 l 694 625 l 764 625 l 764 417 l 486 417 l 486 556 l 278 556 z "},"ċ":{"ha":833,"x_min":0,"x_max":764,"o":"m 278 833 l 278 1042 l 486 1042 l 486 833 l 278 833 m 278 556 l 278 139 l 486 139 l 486 278 l 764 278 l 764 69 l 694 69 l 694 0 l 69 0 l 69 69 l 0 69 l 0 625 l 69 625 l 69 694 l 694 694 l 694 625 l 764 625 l 764 417 l 486 417 l 486 556 l 278 556 z "},"Č":{"ha":833,"x_min":0,"x_max":764,"o":"m 486 139 l 486 278 l 764 278 l 764 69 l 694 69 l 694 0 l 69 0 l 69 69 l 0 69 l 0 625 l 69 625 l 69 694 l 694 694 l 694 625 l 764 625 l 764 417 l 486 417 l 486 556 l 278 556 l 278 139 l 486 139 m 625 972 l 556 972 l 556 903 l 486 903 l 486 833 l 417 833 l 417 764 l 347 764 l 347 833 l 278 833 l 278 903 l 208 903 l 208 972 l 139 972 l 139 1042 l 278 1042 l 278 972 l 347 972 l 347 903 l 417 903 l 417 972 l 486 972 l 486 1042 l 625 1042 l 625 972 z "},"č":{"ha":833,"x_min":0,"x_max":764,"o":"m 486 139 l 486 278 l 764 278 l 764 69 l 694 69 l 694 0 l 69 0 l 69 69 l 0 69 l 0 625 l 69 625 l 69 694 l 694 694 l 694 625 l 764 625 l 764 417 l 486 417 l 486 556 l 278 556 l 278 139 l 486 139 m 625 972 l 556 972 l 556 903 l 486 903 l 486 833 l 417 833 l 417 764 l 347 764 l 347 833 l 278 833 l 278 903 l 208 903 l 208 972 l 139 972 l 139 1042 l 278 1042 l 278 972 l 347 972 l 347 903 l 417 903 l 417 972 l 486 972 l 486 1042 l 625 1042 l 625 972 z "},"Ď":{"ha":833,"x_min":0,"x_max":764,"o":"m 625 694 l 625 625 l 694 625 l 694 556 l 764 556 l 764 139 l 694 139 l 694 69 l 625 69 l 625 0 l 0 0 l 0 694 l 625 694 m 278 139 l 417 139 l 417 208 l 486 208 l 486 486 l 417 486 l 417 556 l 278 556 l 278 139 m 625 972 l 556 972 l 556 903 l 486 903 l 486 833 l 417 833 l 417 764 l 347 764 l 347 833 l 278 833 l 278 903 l 208 903 l 208 972 l 139 972 l 139 1042 l 278 1042 l 278 972 l 347 972 l 347 903 l 417 903 l 417 972 l 486 972 l 486 1042 l 625 1042 l 625 972 z "},"ď":{"ha":833,"x_min":0,"x_max":764,"o":"m 625 694 l 625 625 l 694 625 l 694 556 l 764 556 l 764 139 l 694 139 l 694 69 l 625 69 l 625 0 l 0 0 l 0 694 l 625 694 m 278 139 l 417 139 l 417 208 l 486 208 l 486 486 l 417 486 l 417 556 l 278 556 l 278 139 m 625 972 l 556 972 l 556 903 l 486 903 l 486 833 l 417 833 l 417 764 l 347 764 l 347 833 l 278 833 l 278 903 l 208 903 l 208 972 l 139 972 l 139 1042 l 278 1042 l 278 972 l 347 972 l 347 903 l 417 903 l 417 972 l 486 972 l 486 1042 l 625 1042 l 625 972 z "},"Đ":{"ha":833,"x_min":-69,"x_max":764,"o":"m -69 278 l -69 417 l 0 417 l 0 694 l 625 694 l 625 625 l 694 625 l 694 556 l 764 556 l 764 139 l 694 139 l 694 69 l 625 69 l 625 0 l 0 0 l 0 278 l -69 278 m 278 556 l 278 417 l 347 417 l 347 278 l 278 278 l 278 139 l 417 139 l 417 208 l 486 208 l 486 486 l 417 486 l 417 556 l 278 556 z "},"đ":{"ha":833,"x_min":-69,"x_max":764,"o":"m -69 278 l -69 417 l 0 417 l 0 694 l 625 694 l 625 625 l 694 625 l 694 556 l 764 556 l 764 139 l 694 139 l 694 69 l 625 69 l 625 0 l 0 0 l 0 278 l -69 278 m 278 556 l 278 417 l 347 417 l 347 278 l 278 278 l 278 139 l 417 139 l 417 208 l 486 208 l 486 486 l 417 486 l 417 556 l 278 556 z "},"Ē":{"ha":833,"x_min":0,"x_max":764,"o":"m 0 833 l 0 972 l 764 972 l 764 833 l 0 833 m 278 417 l 486 417 l 486 278 l 278 278 l 278 139 l 764 139 l 764 0 l 69 0 l 69 69 l 0 69 l 0 625 l 69 625 l 69 694 l 764 694 l 764 556 l 278 556 l 278 417 z "},"ē":{"ha":833,"x_min":0,"x_max":764,"o":"m 0 833 l 0 972 l 764 972 l 764 833 l 0 833 m 278 417 l 486 417 l 486 278 l 278 278 l 278 139 l 764 139 l 764 0 l 69 0 l 69 69 l 0 69 l 0 625 l 69 625 l 69 694 l 764 694 l 764 556 l 278 556 l 278 417 z "},"Ĕ":{"ha":833,"x_min":0,"x_max":764,"o":"m 139 833 l 139 972 l 278 972 l 278 903 l 486 903 l 486 972 l 625 972 l 625 833 l 556 833 l 556 764 l 208 764 l 208 833 l 139 833 m 278 417 l 486 417 l 486 278 l 278 278 l 278 139 l 764 139 l 764 0 l 69 0 l 69 69 l 0 69 l 0 625 l 69 625 l 69 694 l 764 694 l 764 556 l 278 556 l 278 417 z "},"ĕ":{"ha":833,"x_min":0,"x_max":764,"o":"m 139 833 l 139 972 l 278 972 l 278 903 l 486 903 l 486 972 l 625 972 l 625 833 l 556 833 l 556 764 l 208 764 l 208 833 l 139 833 m 278 417 l 486 417 l 486 278 l 278 278 l 278 139 l 764 139 l 764 0 l 69 0 l 69 69 l 0 69 l 0 625 l 69 625 l 69 694 l 764 694 l 764 556 l 278 556 l 278 417 z "},"Ė":{"ha":833,"x_min":0,"x_max":764,"o":"m 278 833 l 278 1042 l 486 1042 l 486 833 l 278 833 m 278 417 l 486 417 l 486 278 l 278 278 l 278 139 l 764 139 l 764 0 l 69 0 l 69 69 l 0 69 l 0 625 l 69 625 l 69 694 l 764 694 l 764 556 l 278 556 l 278 417 z "},"ė":{"ha":833,"x_min":0,"x_max":764,"o":"m 278 833 l 278 1042 l 486 1042 l 486 833 l 278 833 m 278 417 l 486 417 l 486 278 l 278 278 l 278 139 l 764 139 l 764 0 l 69 0 l 69 69 l 0 69 l 0 625 l 69 625 l 69 694 l 764 694 l 764 556 l 278 556 l 278 417 z "},"Ę":{"ha":833,"x_min":0,"x_max":764,"o":"m 764 0 l 694 0 l 694 -69 l 764 -69 l 764 -139 l 556 -139 l 556 -69 l 486 -69 l 486 0 l 69 0 l 69 69 l 0 69 l 0 625 l 69 625 l 69 694 l 764 694 l 764 556 l 278 556 l 278 417 l 486 417 l 486 278 l 278 278 l 278 139 l 764 139 l 764 0 l 764 0 z "},"ę":{"ha":833,"x_min":0,"x_max":764,"o":"m 764 0 l 694 0 l 694 -69 l 764 -69 l 764 -139 l 556 -139 l 556 -69 l 486 -69 l 486 0 l 69 0 l 69 69 l 0 69 l 0 625 l 69 625 l 69 694 l 764 694 l 764 556 l 278 556 l 278 417 l 486 417 l 486 278 l 278 278 l 278 139 l 764 139 l 764 0 l 764 0 z "},"Ě":{"ha":833,"x_min":0,"x_max":764,"o":"m 486 278 l 278 278 l 278 139 l 764 139 l 764 0 l 69 0 l 69 69 l 0 69 l 0 625 l 69 625 l 69 694 l 764 694 l 764 556 l 278 556 l 278 417 l 486 417 l 486 278 m 625 972 l 556 972 l 556 903 l 486 903 l 486 833 l 417 833 l 417 764 l 347 764 l 347 833 l 278 833 l 278 903 l 208 903 l 208 972 l 139 972 l 139 1042 l 278 1042 l 278 972 l 347 972 l 347 903 l 417 903 l 417 972 l 486 972 l 486 1042 l 625 1042 l 625 972 z "},"ě":{"ha":833,"x_min":0,"x_max":764,"o":"m 486 278 l 278 278 l 278 139 l 764 139 l 764 0 l 69 0 l 69 69 l 0 69 l 0 625 l 69 625 l 69 694 l 764 694 l 764 556 l 278 556 l 278 417 l 486 417 l 486 278 m 625 972 l 556 972 l 556 903 l 486 903 l 486 833 l 417 833 l 417 764 l 347 764 l 347 833 l 278 833 l 278 903 l 208 903 l 208 972 l 139 972 l 139 1042 l 278 1042 l 278 972 l 347 972 l 347 903 l 417 903 l 417 972 l 486 972 l 486 1042 l 625 1042 l 625 972 z "},"Ĝ":{"ha":833,"x_min":0,"x_max":764,"o":"m 69 69 l 0 69 l 0 625 l 69 625 l 69 694 l 764 694 l 764 556 l 278 556 l 278 139 l 486 139 l 486 278 l 347 278 l 347 417 l 694 417 l 694 347 l 764 347 l 764 69 l 694 69 l 694 0 l 69 0 l 69 69 m 139 833 l 208 833 l 208 903 l 278 903 l 278 972 l 347 972 l 347 1042 l 417 1042 l 417 972 l 486 972 l 486 903 l 556 903 l 556 833 l 625 833 l 625 764 l 486 764 l 486 833 l 417 833 l 417 903 l 347 903 l 347 833 l 278 833 l 278 764 l 139 764 l 139 833 z "},"ĝ":{"ha":833,"x_min":0,"x_max":764,"o":"m 69 69 l 0 69 l 0 625 l 69 625 l 69 694 l 764 694 l 764 556 l 278 556 l 278 139 l 486 139 l 486 278 l 347 278 l 347 417 l 694 417 l 694 347 l 764 347 l 764 69 l 694 69 l 694 0 l 69 0 l 69 69 m 139 833 l 208 833 l 208 903 l 278 903 l 278 972 l 347 972 l 347 1042 l 417 1042 l 417 972 l 486 972 l 486 903 l 556 903 l 556 833 l 625 833 l 625 764 l 486 764 l 486 833 l 417 833 l 417 903 l 347 903 l 347 833 l 278 833 l 278 764 l 139 764 l 139 833 z "},"Ğ":{"ha":833,"x_min":0,"x_max":764,"o":"m 139 833 l 139 972 l 278 972 l 278 903 l 486 903 l 486 972 l 625 972 l 625 833 l 556 833 l 556 764 l 208 764 l 208 833 l 139 833 m 694 0 l 69 0 l 69 69 l 0 69 l 0 625 l 69 625 l 69 694 l 764 694 l 764 556 l 278 556 l 278 139 l 486 139 l 486 278 l 347 278 l 347 417 l 694 417 l 694 347 l 764 347 l 764 69 l 694 69 l 694 0 z "},"ğ":{"ha":833,"x_min":0,"x_max":764,"o":"m 139 833 l 139 972 l 278 972 l 278 903 l 486 903 l 486 972 l 625 972 l 625 833 l 556 833 l 556 764 l 208 764 l 208 833 l 139 833 m 694 0 l 69 0 l 69 69 l 0 69 l 0 625 l 69 625 l 69 694 l 764 694 l 764 556 l 278 556 l 278 139 l 486 139 l 486 278 l 347 278 l 347 417 l 694 417 l 694 347 l 764 347 l 764 69 l 694 69 l 694 0 z "},"Ġ":{"ha":833,"x_min":0,"x_max":764,"o":"m 278 833 l 278 1042 l 486 1042 l 486 833 l 278 833 m 694 0 l 69 0 l 69 69 l 0 69 l 0 625 l 69 625 l 69 694 l 764 694 l 764 556 l 278 556 l 278 139 l 486 139 l 486 278 l 347 278 l 347 417 l 694 417 l 694 347 l 764 347 l 764 69 l 694 69 l 694 0 z "},"ġ":{"ha":833,"x_min":0,"x_max":764,"o":"m 278 833 l 278 1042 l 486 1042 l 486 833 l 278 833 m 694 0 l 69 0 l 69 69 l 0 69 l 0 625 l 69 625 l 69 694 l 764 694 l 764 556 l 278 556 l 278 139 l 486 139 l 486 278 l 347 278 l 347 417 l 694 417 l 694 347 l 764 347 l 764 69 l 694 69 l 694 0 z "},"Ģ":{"ha":833,"x_min":0,"x_max":764,"o":"m 278 0 l 69 0 l 69 69 l 0 69 l 0 625 l 69 625 l 69 694 l 764 694 l 764 556 l 278 556 l 278 139 l 486 139 l 486 278 l 347 278 l 347 417 l 694 417 l 694 347 l 764 347 l 764 69 l 694 69 l 694 0 l 486 0 l 486 -139 l 417 -139 l 417 -208 l 208 -208 l 208 -139 l 278 -139 l 278 0 l 278 0 z "},"ģ":{"ha":833,"x_min":0,"x_max":764,"o":"m 278 0 l 69 0 l 69 69 l 0 69 l 0 625 l 69 625 l 69 694 l 764 694 l 764 556 l 278 556 l 278 139 l 486 139 l 486 278 l 347 278 l 347 417 l 694 417 l 694 347 l 764 347 l 764 69 l 694 69 l 694 0 l 486 0 l 486 -139 l 417 -139 l 417 -208 l 208 -208 l 208 -139 l 278 -139 l 278 0 l 278 0 z "},"Ĥ":{"ha":833,"x_min":0,"x_max":764,"o":"m 278 694 l 278 417 l 486 417 l 486 694 l 764 694 l 764 0 l 486 0 l 486 278 l 278 278 l 278 0 l 0 0 l 0 694 l 278 694 m 139 833 l 208 833 l 208 903 l 278 903 l 278 972 l 347 972 l 347 1042 l 417 1042 l 417 972 l 486 972 l 486 903 l 556 903 l 556 833 l 625 833 l 625 764 l 486 764 l 486 833 l 417 833 l 417 903 l 347 903 l 347 833 l 278 833 l 278 764 l 139 764 l 139 833 z "},"ĥ":{"ha":833,"x_min":0,"x_max":764,"o":"m 278 694 l 278 417 l 486 417 l 486 694 l 764 694 l 764 0 l 486 0 l 486 278 l 278 278 l 278 0 l 0 0 l 0 694 l 278 694 m 139 833 l 208 833 l 208 903 l 278 903 l 278 972 l 347 972 l 347 1042 l 417 1042 l 417 972 l 486 972 l 486 903 l 556 903 l 556 833 l 625 833 l 625 764 l 486 764 l 486 833 l 417 833 l 417 903 l 347 903 l 347 833 l 278 833 l 278 764 l 139 764 l 139 833 z "},"Ħ":{"ha":903,"x_min":-69,"x_max":833,"o":"m -69 486 l -69 625 l 0 625 l 0 694 l 278 694 l 278 625 l 486 625 l 486 694 l 764 694 l 764 625 l 833 625 l 833 486 l 764 486 l 764 0 l 486 0 l 486 278 l 278 278 l 278 0 l 0 0 l 0 486 l -69 486 m 486 417 l 486 486 l 278 486 l 278 417 l 486 417 z "},"ħ":{"ha":903,"x_min":-69,"x_max":833,"o":"m -69 486 l -69 625 l 0 625 l 0 694 l 278 694 l 278 625 l 486 625 l 486 694 l 764 694 l 764 625 l 833 625 l 833 486 l 764 486 l 764 0 l 486 0 l 486 278 l 278 278 l 278 0 l 0 0 l 0 486 l -69 486 m 486 417 l 486 486 l 278 486 l 278 417 l 486 417 z "},"Ĩ":{"ha":764,"x_min":0,"x_max":694,"o":"m 208 764 l 69 764 l 69 972 l 139 972 l 139 1042 l 347 1042 l 347 972 l 417 972 l 417 903 l 486 903 l 486 1042 l 625 1042 l 625 833 l 556 833 l 556 764 l 347 764 l 347 833 l 278 833 l 278 903 l 208 903 l 208 764 m 0 694 l 694 694 l 694 556 l 486 556 l 486 139 l 694 139 l 694 0 l 0 0 l 0 139 l 208 139 l 208 556 l 0 556 l 0 694 z "},"ĩ":{"ha":764,"x_min":0,"x_max":694,"o":"m 208 764 l 69 764 l 69 972 l 139 972 l 139 1042 l 347 1042 l 347 972 l 417 972 l 417 903 l 486 903 l 486 1042 l 625 1042 l 625 833 l 556 833 l 556 764 l 347 764 l 347 833 l 278 833 l 278 903 l 208 903 l 208 764 m 0 694 l 694 694 l 694 556 l 486 556 l 486 139 l 694 139 l 694 0 l 0 0 l 0 139 l 208 139 l 208 556 l 0 556 l 0 694 z "},"Ī":{"ha":764,"x_min":0,"x_max":694,"o":"m 0 833 l 0 972 l 694 972 l 694 833 l 0 833 m 0 694 l 694 694 l 694 556 l 486 556 l 486 139 l 694 139 l 694 0 l 0 0 l 0 139 l 208 139 l 208 556 l 0 556 l 0 694 z "},"ī":{"ha":764,"x_min":0,"x_max":694,"o":"m 0 833 l 0 972 l 694 972 l 694 833 l 0 833 m 0 694 l 694 694 l 694 556 l 486 556 l 486 139 l 694 139 l 694 0 l 0 0 l 0 139 l 208 139 l 208 556 l 0 556 l 0 694 z "},"Ĭ":{"ha":764,"x_min":0,"x_max":694,"o":"m 69 833 l 69 972 l 208 972 l 208 903 l 486 903 l 486 972 l 625 972 l 625 833 l 556 833 l 556 764 l 139 764 l 139 833 l 69 833 m 0 694 l 694 694 l 694 556 l 486 556 l 486 139 l 694 139 l 694 0 l 0 0 l 0 139 l 208 139 l 208 556 l 0 556 l 0 694 z "},"ĭ":{"ha":764,"x_min":0,"x_max":694,"o":"m 69 833 l 69 972 l 208 972 l 208 903 l 486 903 l 486 972 l 625 972 l 625 833 l 556 833 l 556 764 l 139 764 l 139 833 l 69 833 m 0 694 l 694 694 l 694 556 l 486 556 l 486 139 l 694 139 l 694 0 l 0 0 l 0 139 l 208 139 l 208 556 l 0 556 l 0 694 z "},"Į":{"ha":764,"x_min":0,"x_max":694,"o":"m 694 0 l 486 0 l 486 -69 l 556 -69 l 556 -139 l 278 -139 l 278 -69 l 208 -69 l 208 0 l 0 0 l 0 139 l 208 139 l 208 556 l 0 556 l 0 694 l 694 694 l 694 556 l 486 556 l 486 139 l 694 139 l 694 0 l 694 0 z "},"į":{"ha":764,"x_min":0,"x_max":694,"o":"m 694 0 l 486 0 l 486 -69 l 556 -69 l 556 -139 l 278 -139 l 278 -69 l 208 -69 l 208 0 l 0 0 l 0 139 l 208 139 l 208 556 l 0 556 l 0 694 l 694 694 l 694 556 l 486 556 l 486 139 l 694 139 l 694 0 l 694 0 z "},"İ":{"ha":764,"x_min":0,"x_max":694,"o":"m 208 833 l 208 1042 l 486 1042 l 486 833 l 208 833 m 0 694 l 694 694 l 694 556 l 486 556 l 486 139 l 694 139 l 694 0 l 0 0 l 0 139 l 208 139 l 208 556 l 0 556 l 0 694 z "},"Ĵ":{"ha":833,"x_min":0,"x_max":764,"o":"m 486 139 l 486 694 l 764 694 l 764 69 l 694 69 l 694 0 l 69 0 l 69 69 l 0 69 l 0 278 l 278 278 l 278 139 l 486 139 m 139 833 l 208 833 l 208 903 l 278 903 l 278 972 l 347 972 l 347 1042 l 417 1042 l 417 972 l 486 972 l 486 903 l 556 903 l 556 833 l 625 833 l 625 764 l 486 764 l 486 833 l 417 833 l 417 903 l 347 903 l 347 833 l 278 833 l 278 764 l 139 764 l 139 833 z "},"ĵ":{"ha":833,"x_min":0,"x_max":764,"o":"m 486 139 l 486 694 l 764 694 l 764 69 l 694 69 l 694 0 l 69 0 l 69 69 l 0 69 l 0 278 l 278 278 l 278 139 l 486 139 m 139 833 l 208 833 l 208 903 l 278 903 l 278 972 l 347 972 l 347 1042 l 417 1042 l 417 972 l 486 972 l 486 903 l 556 903 l 556 833 l 625 833 l 625 764 l 486 764 l 486 833 l 417 833 l 417 903 l 347 903 l 347 833 l 278 833 l 278 764 l 139 764 l 139 833 z "},"Ķ":{"ha":833,"x_min":0,"x_max":764,"o":"m 278 208 l 278 0 l 486 0 l 486 69 l 417 69 l 417 139 l 347 139 l 347 208 l 278 208 m 764 0 l 486 0 l 486 -139 l 417 -139 l 417 -208 l 208 -208 l 208 -139 l 278 -139 l 278 0 l 0 0 l 0 694 l 278 694 l 278 486 l 347 486 l 347 556 l 417 556 l 417 625 l 486 625 l 486 694 l 764 694 l 764 556 l 694 556 l 694 486 l 625 486 l 625 417 l 556 417 l 556 278 l 625 278 l 625 208 l 694 208 l 694 139 l 764 139 l 764 0 z "},"ķ":{"ha":833,"x_min":0,"x_max":764,"o":"m 278 208 l 278 0 l 486 0 l 486 69 l 417 69 l 417 139 l 347 139 l 347 208 l 278 208 m 764 0 l 486 0 l 486 -139 l 417 -139 l 417 -208 l 208 -208 l 208 -139 l 278 -139 l 278 0 l 0 0 l 0 694 l 278 694 l 278 486 l 347 486 l 347 556 l 417 556 l 417 625 l 486 625 l 486 694 l 764 694 l 764 556 l 694 556 l 694 486 l 625 486 l 625 417 l 556 417 l 556 278 l 625 278 l 625 208 l 694 208 l 694 139 l 764 139 l 764 0 z "},"ĸ":{"ha":833,"x_min":0,"x_max":764,"o":"m 0 0 l 0 694 l 278 694 l 278 486 l 347 486 l 347 556 l 417 556 l 417 625 l 486 625 l 486 694 l 764 694 l 764 556 l 694 556 l 694 486 l 625 486 l 625 417 l 556 417 l 556 278 l 625 278 l 625 208 l 694 208 l 694 139 l 764 139 l 764 0 l 486 0 l 486 69 l 417 69 l 417 139 l 347 139 l 347 208 l 278 208 l 278 0 l 0 0 l 0 0 z "},"Ĺ":{"ha":833,"x_min":0,"x_max":764,"o":"m 764 139 l 764 0 l 0 0 l 0 694 l 278 694 l 278 139 l 764 139 m 278 903 l 347 903 l 347 972 l 417 972 l 417 1042 l 556 1042 l 556 903 l 486 903 l 486 833 l 417 833 l 417 764 l 278 764 l 278 903 z "},"ĺ":{"ha":833,"x_min":0,"x_max":764,"o":"m 764 139 l 764 0 l 0 0 l 0 694 l 278 694 l 278 139 l 764 139 m 278 903 l 347 903 l 347 972 l 417 972 l 417 1042 l 556 1042 l 556 903 l 486 903 l 486 833 l 417 833 l 417 764 l 278 764 l 278 903 z "},"Ļ":{"ha":833,"x_min":0,"x_max":764,"o":"m 764 0 l 486 0 l 486 -139 l 417 -139 l 417 -208 l 208 -208 l 208 -139 l 278 -139 l 278 0 l 0 0 l 0 694 l 278 694 l 278 139 l 764 139 l 764 0 l 764 0 z "},"ļ":{"ha":833,"x_min":0,"x_max":764,"o":"m 764 0 l 486 0 l 486 -139 l 417 -139 l 417 -208 l 208 -208 l 208 -139 l 278 -139 l 278 0 l 0 0 l 0 694 l 278 694 l 278 139 l 764 139 l 764 0 l 764 0 z "},"Ľ":{"ha":833,"x_min":0,"x_max":764,"o":"m 417 417 l 417 694 l 625 694 l 625 417 l 417 417 m 278 694 l 278 139 l 764 139 l 764 0 l 0 0 l 0 694 l 278 694 z "},"ľ":{"ha":833,"x_min":0,"x_max":764,"o":"m 417 417 l 417 694 l 625 694 l 625 417 l 417 417 m 278 694 l 278 139 l 764 139 l 764 0 l 0 0 l 0 694 l 278 694 z "},"Ŀ":{"ha":833,"x_min":0,"x_max":764,"o":"m 417 347 l 417 556 l 625 556 l 625 347 l 417 347 m 278 694 l 278 139 l 764 139 l 764 0 l 0 0 l 0 694 l 278 694 z "},"ŀ":{"ha":833,"x_min":0,"x_max":764,"o":"m 417 347 l 417 556 l 625 556 l 625 347 l 417 347 m 278 694 l 278 139 l 764 139 l 764 0 l 0 0 l 0 694 l 278 694 z "},"Ń":{"ha":833,"x_min":0,"x_max":764,"o":"m 764 694 l 764 0 l 486 0 l 486 208 l 417 208 l 417 278 l 347 278 l 347 347 l 278 347 l 278 0 l 0 0 l 0 694 l 278 694 l 278 625 l 347 625 l 347 556 l 417 556 l 417 486 l 486 486 l 486 694 l 764 694 m 278 903 l 347 903 l 347 972 l 417 972 l 417 1042 l 556 1042 l 556 903 l 486 903 l 486 833 l 417 833 l 417 764 l 278 764 l 278 903 z "},"ń":{"ha":833,"x_min":0,"x_max":764,"o":"m 764 694 l 764 0 l 486 0 l 486 208 l 417 208 l 417 278 l 347 278 l 347 347 l 278 347 l 278 0 l 0 0 l 0 694 l 278 694 l 278 625 l 347 625 l 347 556 l 417 556 l 417 486 l 486 486 l 486 694 l 764 694 m 278 903 l 347 903 l 347 972 l 417 972 l 417 1042 l 556 1042 l 556 903 l 486 903 l 486 833 l 417 833 l 417 764 l 278 764 l 278 903 z "},"Ņ":{"ha":833,"x_min":0,"x_max":764,"o":"m 278 347 l 278 0 l 486 0 l 486 208 l 417 208 l 417 278 l 347 278 l 347 347 l 278 347 m 764 0 l 486 0 l 486 -139 l 417 -139 l 417 -208 l 208 -208 l 208 -139 l 278 -139 l 278 0 l 0 0 l 0 694 l 278 694 l 278 625 l 347 625 l 347 556 l 417 556 l 417 486 l 486 486 l 486 694 l 764 694 l 764 0 z "},"ņ":{"ha":833,"x_min":0,"x_max":764,"o":"m 278 347 l 278 0 l 486 0 l 486 208 l 417 208 l 417 278 l 347 278 l 347 347 l 278 347 m 764 0 l 486 0 l 486 -139 l 417 -139 l 417 -208 l 208 -208 l 208 -139 l 278 -139 l 278 0 l 0 0 l 0 694 l 278 694 l 278 625 l 347 625 l 347 556 l 417 556 l 417 486 l 486 486 l 486 694 l 764 694 l 764 0 z "},"Ň":{"ha":833,"x_min":0,"x_max":764,"o":"m 764 694 l 764 0 l 486 0 l 486 208 l 417 208 l 417 278 l 347 278 l 347 347 l 278 347 l 278 0 l 0 0 l 0 694 l 278 694 l 278 625 l 347 625 l 347 556 l 417 556 l 417 486 l 486 486 l 486 694 l 764 694 m 625 972 l 556 972 l 556 903 l 486 903 l 486 833 l 417 833 l 417 764 l 347 764 l 347 833 l 278 833 l 278 903 l 208 903 l 208 972 l 139 972 l 139 1042 l 278 1042 l 278 972 l 347 972 l 347 903 l 417 903 l 417 972 l 486 972 l 486 1042 l 625 1042 l 625 972 z "},"ň":{"ha":833,"x_min":0,"x_max":764,"o":"m 764 694 l 764 0 l 486 0 l 486 208 l 417 208 l 417 278 l 347 278 l 347 347 l 278 347 l 278 0 l 0 0 l 0 694 l 278 694 l 278 625 l 347 625 l 347 556 l 417 556 l 417 486 l 486 486 l 486 694 l 764 694 m 625 972 l 556 972 l 556 903 l 486 903 l 486 833 l 417 833 l 417 764 l 347 764 l 347 833 l 278 833 l 278 903 l 208 903 l 208 972 l 139 972 l 139 1042 l 278 1042 l 278 972 l 347 972 l 347 903 l 417 903 l 417 972 l 486 972 l 486 1042 l 625 1042 l 625 972 z "},"Ŋ":{"ha":833,"x_min":0,"x_max":764,"o":"m 764 694 l 764 -69 l 694 -69 l 694 -139 l 417 -139 l 417 -69 l 486 -69 l 486 208 l 417 208 l 417 278 l 347 278 l 347 347 l 278 347 l 278 0 l 0 0 l 0 694 l 278 694 l 278 625 l 347 625 l 347 556 l 417 556 l 417 486 l 486 486 l 486 694 l 764 694 l 764 694 z "},"ŋ":{"ha":833,"x_min":0,"x_max":764,"o":"m 764 694 l 764 -69 l 694 -69 l 694 -139 l 417 -139 l 417 -69 l 486 -69 l 486 208 l 417 208 l 417 278 l 347 278 l 347 347 l 278 347 l 278 0 l 0 0 l 0 694 l 278 694 l 278 625 l 347 625 l 347 556 l 417 556 l 417 486 l 486 486 l 486 694 l 764 694 l 764 694 z "},"Ō":{"ha":833,"x_min":0,"x_max":764,"o":"m 0 833 l 0 972 l 764 972 l 764 833 l 0 833 m 694 69 l 694 0 l 69 0 l 69 69 l 0 69 l 0 625 l 69 625 l 69 694 l 694 694 l 694 625 l 764 625 l 764 69 l 694 69 m 278 139 l 486 139 l 486 556 l 278 556 l 278 139 z "},"ō":{"ha":833,"x_min":0,"x_max":764,"o":"m 0 833 l 0 972 l 764 972 l 764 833 l 0 833 m 694 69 l 694 0 l 69 0 l 69 69 l 0 69 l 0 625 l 69 625 l 69 694 l 694 694 l 694 625 l 764 625 l 764 69 l 694 69 m 278 139 l 486 139 l 486 556 l 278 556 l 278 139 z "},"Ŏ":{"ha":833,"x_min":0,"x_max":764,"o":"m 139 833 l 139 972 l 278 972 l 278 903 l 486 903 l 486 972 l 625 972 l 625 833 l 556 833 l 556 764 l 208 764 l 208 833 l 139 833 m 694 69 l 694 0 l 69 0 l 69 69 l 0 69 l 0 625 l 69 625 l 69 694 l 694 694 l 694 625 l 764 625 l 764 69 l 694 69 m 278 139 l 486 139 l 486 556 l 278 556 l 278 139 z "},"ŏ":{"ha":833,"x_min":0,"x_max":764,"o":"m 139 833 l 139 972 l 278 972 l 278 903 l 486 903 l 486 972 l 625 972 l 625 833 l 556 833 l 556 764 l 208 764 l 208 833 l 139 833 m 694 69 l 694 0 l 69 0 l 69 69 l 0 69 l 0 625 l 69 625 l 69 694 l 694 694 l 694 625 l 764 625 l 764 69 l 694 69 m 278 139 l 486 139 l 486 556 l 278 556 l 278 139 z "},"Ő":{"ha":833,"x_min":0,"x_max":764,"o":"m 486 556 l 278 556 l 278 139 l 486 139 l 486 556 m 69 0 l 69 69 l 0 69 l 0 625 l 69 625 l 69 694 l 694 694 l 694 625 l 764 625 l 764 69 l 694 69 l 694 0 l 69 0 m 139 903 l 208 903 l 208 972 l 278 972 l 278 1042 l 417 1042 l 417 903 l 347 903 l 347 833 l 278 833 l 278 764 l 139 764 l 139 903 m 486 903 l 556 903 l 556 972 l 625 972 l 625 1042 l 764 1042 l 764 903 l 694 903 l 694 833 l 625 833 l 625 764 l 486 764 l 486 903 z "},"ő":{"ha":833,"x_min":0,"x_max":764,"o":"m 486 556 l 278 556 l 278 139 l 486 139 l 486 556 m 69 0 l 69 69 l 0 69 l 0 625 l 69 625 l 69 694 l 694 694 l 694 625 l 764 625 l 764 69 l 694 69 l 694 0 l 69 0 m 139 903 l 208 903 l 208 972 l 278 972 l 278 1042 l 417 1042 l 417 903 l 347 903 l 347 833 l 278 833 l 278 764 l 139 764 l 139 903 m 486 903 l 556 903 l 556 972 l 625 972 l 625 1042 l 764 1042 l 764 903 l 694 903 l 694 833 l 625 833 l 625 764 l 486 764 l 486 903 z "},"Ŕ":{"ha":833,"x_min":0,"x_max":764,"o":"m 278 417 l 486 417 l 486 556 l 278 556 l 278 417 m 278 0 l 0 0 l 0 694 l 694 694 l 694 625 l 764 625 l 764 417 l 694 417 l 694 278 l 764 278 l 764 0 l 486 0 l 486 278 l 278 278 l 278 0 m 278 903 l 347 903 l 347 972 l 417 972 l 417 1042 l 556 1042 l 556 903 l 486 903 l 486 833 l 417 833 l 417 764 l 278 764 l 278 903 z "},"ŕ":{"ha":833,"x_min":0,"x_max":764,"o":"m 278 417 l 486 417 l 486 556 l 278 556 l 278 417 m 278 0 l 0 0 l 0 694 l 694 694 l 694 625 l 764 625 l 764 417 l 694 417 l 694 278 l 764 278 l 764 0 l 486 0 l 486 278 l 278 278 l 278 0 m 278 903 l 347 903 l 347 972 l 417 972 l 417 1042 l 556 1042 l 556 903 l 486 903 l 486 833 l 417 833 l 417 764 l 278 764 l 278 903 z "},"Ŗ":{"ha":833,"x_min":0,"x_max":764,"o":"m 278 278 l 278 0 l 486 0 l 486 278 l 278 278 m 764 0 l 486 0 l 486 -139 l 417 -139 l 417 -208 l 208 -208 l 208 -139 l 278 -139 l 278 0 l 0 0 l 0 694 l 694 694 l 694 625 l 764 625 l 764 417 l 694 417 l 694 278 l 764 278 l 764 0 m 486 556 l 278 556 l 278 417 l 486 417 l 486 556 z "},"ŗ":{"ha":833,"x_min":0,"x_max":764,"o":"m 278 278 l 278 0 l 486 0 l 486 278 l 278 278 m 764 0 l 486 0 l 486 -139 l 417 -139 l 417 -208 l 208 -208 l 208 -139 l 278 -139 l 278 0 l 0 0 l 0 694 l 694 694 l 694 625 l 764 625 l 764 417 l 694 417 l 694 278 l 764 278 l 764 0 m 486 556 l 278 556 l 278 417 l 486 417 l 486 556 z "},"Ř":{"ha":833,"x_min":0,"x_max":764,"o":"m 278 417 l 486 417 l 486 556 l 278 556 l 278 417 m 278 0 l 0 0 l 0 694 l 694 694 l 694 625 l 764 625 l 764 417 l 694 417 l 694 278 l 764 278 l 764 0 l 486 0 l 486 278 l 278 278 l 278 0 m 625 972 l 556 972 l 556 903 l 486 903 l 486 833 l 417 833 l 417 764 l 347 764 l 347 833 l 278 833 l 278 903 l 208 903 l 208 972 l 139 972 l 139 1042 l 278 1042 l 278 972 l 347 972 l 347 903 l 417 903 l 417 972 l 486 972 l 486 1042 l 625 1042 l 625 972 z "},"ř":{"ha":833,"x_min":0,"x_max":764,"o":"m 278 417 l 486 417 l 486 556 l 278 556 l 278 417 m 278 0 l 0 0 l 0 694 l 694 694 l 694 625 l 764 625 l 764 417 l 694 417 l 694 278 l 764 278 l 764 0 l 486 0 l 486 278 l 278 278 l 278 0 m 625 972 l 556 972 l 556 903 l 486 903 l 486 833 l 417 833 l 417 764 l 347 764 l 347 833 l 278 833 l 278 903 l 208 903 l 208 972 l 139 972 l 139 1042 l 278 1042 l 278 972 l 347 972 l 347 903 l 417 903 l 417 972 l 486 972 l 486 1042 l 625 1042 l 625 972 z "},"Ś":{"ha":833,"x_min":0,"x_max":764,"o":"m 69 347 l 0 347 l 0 625 l 69 625 l 69 694 l 764 694 l 764 556 l 278 556 l 278 417 l 694 417 l 694 347 l 764 347 l 764 69 l 694 69 l 694 0 l 0 0 l 0 139 l 486 139 l 486 278 l 69 278 l 69 347 m 278 903 l 347 903 l 347 972 l 417 972 l 417 1042 l 556 1042 l 556 903 l 486 903 l 486 833 l 417 833 l 417 764 l 278 764 l 278 903 z "},"ś":{"ha":833,"x_min":0,"x_max":764,"o":"m 69 347 l 0 347 l 0 625 l 69 625 l 69 694 l 764 694 l 764 556 l 278 556 l 278 417 l 694 417 l 694 347 l 764 347 l 764 69 l 694 69 l 694 0 l 0 0 l 0 139 l 486 139 l 486 278 l 69 278 l 69 347 m 278 903 l 347 903 l 347 972 l 417 972 l 417 1042 l 556 1042 l 556 903 l 486 903 l 486 833 l 417 833 l 417 764 l 278 764 l 278 903 z "},"Ŝ":{"ha":833,"x_min":0,"x_max":764,"o":"m 69 347 l 0 347 l 0 625 l 69 625 l 69 694 l 764 694 l 764 556 l 278 556 l 278 417 l 694 417 l 694 347 l 764 347 l 764 69 l 694 69 l 694 0 l 0 0 l 0 139 l 486 139 l 486 278 l 69 278 l 69 347 m 139 833 l 208 833 l 208 903 l 278 903 l 278 972 l 347 972 l 347 1042 l 417 1042 l 417 972 l 486 972 l 486 903 l 556 903 l 556 833 l 625 833 l 625 764 l 486 764 l 486 833 l 417 833 l 417 903 l 347 903 l 347 833 l 278 833 l 278 764 l 139 764 l 139 833 z "},"ŝ":{"ha":833,"x_min":0,"x_max":764,"o":"m 69 347 l 0 347 l 0 625 l 69 625 l 69 694 l 764 694 l 764 556 l 278 556 l 278 417 l 694 417 l 694 347 l 764 347 l 764 69 l 694 69 l 694 0 l 0 0 l 0 139 l 486 139 l 486 278 l 69 278 l 69 347 m 139 833 l 208 833 l 208 903 l 278 903 l 278 972 l 347 972 l 347 1042 l 417 1042 l 417 972 l 486 972 l 486 903 l 556 903 l 556 833 l 625 833 l 625 764 l 486 764 l 486 833 l 417 833 l 417 903 l 347 903 l 347 833 l 278 833 l 278 764 l 139 764 l 139 833 z "},"Ş":{"ha":833,"x_min":0,"x_max":764,"o":"m 208 -208 l 208 -139 l 278 -139 l 278 0 l 0 0 l 0 139 l 486 139 l 486 278 l 69 278 l 69 347 l 0 347 l 0 625 l 69 625 l 69 694 l 764 694 l 764 556 l 278 556 l 278 417 l 694 417 l 694 347 l 764 347 l 764 69 l 694 69 l 694 0 l 486 0 l 486 -139 l 417 -139 l 417 -208 l 208 -208 l 208 -208 z "},"ş":{"ha":833,"x_min":0,"x_max":764,"o":"m 208 -208 l 208 -139 l 278 -139 l 278 0 l 0 0 l 0 139 l 486 139 l 486 278 l 69 278 l 69 347 l 0 347 l 0 625 l 69 625 l 69 694 l 764 694 l 764 556 l 278 556 l 278 417 l 694 417 l 694 347 l 764 347 l 764 69 l 694 69 l 694 0 l 486 0 l 486 -139 l 417 -139 l 417 -208 l 208 -208 l 208 -208 z "},"Ţ":{"ha":764,"x_min":0,"x_max":694,"o":"m 208 -139 l 208 -69 l 486 -69 l 486 -139 l 417 -139 l 417 -208 l 139 -208 l 139 -139 l 208 -139 m 0 694 l 694 694 l 694 556 l 486 556 l 486 0 l 208 0 l 208 556 l 0 556 l 0 694 z "},"ţ":{"ha":764,"x_min":0,"x_max":694,"o":"m 208 -139 l 208 -69 l 486 -69 l 486 -139 l 417 -139 l 417 -208 l 139 -208 l 139 -139 l 208 -139 m 0 694 l 694 694 l 694 556 l 486 556 l 486 0 l 208 0 l 208 556 l 0 556 l 0 694 z "},"Ť":{"ha":764,"x_min":0,"x_max":694,"o":"m 694 556 l 486 556 l 486 0 l 208 0 l 208 556 l 0 556 l 0 694 l 694 694 l 694 556 m 625 972 l 556 972 l 556 903 l 486 903 l 486 833 l 417 833 l 417 764 l 278 764 l 278 833 l 208 833 l 208 903 l 139 903 l 139 972 l 69 972 l 69 1042 l 208 1042 l 208 972 l 278 972 l 278 903 l 417 903 l 417 972 l 486 972 l 486 1042 l 625 1042 l 625 972 z "},"ť":{"ha":764,"x_min":0,"x_max":694,"o":"m 694 556 l 486 556 l 486 0 l 208 0 l 208 556 l 0 556 l 0 694 l 694 694 l 694 556 m 625 972 l 556 972 l 556 903 l 486 903 l 486 833 l 417 833 l 417 764 l 278 764 l 278 833 l 208 833 l 208 903 l 139 903 l 139 972 l 69 972 l 69 1042 l 208 1042 l 208 972 l 278 972 l 278 903 l 417 903 l 417 972 l 486 972 l 486 1042 l 625 1042 l 625 972 z "},"Ŧ":{"ha":764,"x_min":0,"x_max":694,"o":"m 0 694 l 694 694 l 694 556 l 486 556 l 486 417 l 625 417 l 625 278 l 486 278 l 486 0 l 208 0 l 208 278 l 69 278 l 69 417 l 208 417 l 208 556 l 0 556 l 0 694 l 0 694 z "},"ŧ":{"ha":764,"x_min":0,"x_max":694,"o":"m 0 694 l 694 694 l 694 556 l 486 556 l 486 417 l 625 417 l 625 278 l 486 278 l 486 0 l 208 0 l 208 278 l 69 278 l 69 417 l 208 417 l 208 556 l 0 556 l 0 694 l 0 694 z "},"Ũ":{"ha":833,"x_min":0,"x_max":764,"o":"m 278 764 l 139 764 l 139 972 l 208 972 l 208 1042 l 347 1042 l 347 972 l 417 972 l 417 903 l 486 903 l 486 1042 l 625 1042 l 625 833 l 556 833 l 556 764 l 417 764 l 417 833 l 347 833 l 347 903 l 278 903 l 278 764 m 278 139 l 486 139 l 486 694 l 764 694 l 764 69 l 694 69 l 694 0 l 69 0 l 69 69 l 0 69 l 0 694 l 278 694 l 278 139 z "},"ũ":{"ha":833,"x_min":0,"x_max":764,"o":"m 278 764 l 139 764 l 139 972 l 208 972 l 208 1042 l 347 1042 l 347 972 l 417 972 l 417 903 l 486 903 l 486 1042 l 625 1042 l 625 833 l 556 833 l 556 764 l 417 764 l 417 833 l 347 833 l 347 903 l 278 903 l 278 764 m 278 139 l 486 139 l 486 694 l 764 694 l 764 69 l 694 69 l 694 0 l 69 0 l 69 69 l 0 69 l 0 694 l 278 694 l 278 139 z "},"Ū":{"ha":833,"x_min":0,"x_max":764,"o":"m 0 972 l 764 972 l 764 833 l 0 833 l 0 972 m 278 139 l 486 139 l 486 694 l 764 694 l 764 69 l 694 69 l 694 0 l 69 0 l 69 69 l 0 69 l 0 694 l 278 694 l 278 139 z "},"ū":{"ha":833,"x_min":0,"x_max":764,"o":"m 0 972 l 764 972 l 764 833 l 0 833 l 0 972 m 278 139 l 486 139 l 486 694 l 764 694 l 764 69 l 694 69 l 694 0 l 69 0 l 69 69 l 0 69 l 0 694 l 278 694 l 278 139 z "},"Ŭ":{"ha":833,"x_min":0,"x_max":764,"o":"m 139 833 l 139 972 l 278 972 l 278 903 l 486 903 l 486 972 l 625 972 l 625 833 l 556 833 l 556 764 l 208 764 l 208 833 l 139 833 m 278 139 l 486 139 l 486 694 l 764 694 l 764 69 l 694 69 l 694 0 l 69 0 l 69 69 l 0 69 l 0 694 l 278 694 l 278 139 z "},"ŭ":{"ha":833,"x_min":0,"x_max":764,"o":"m 139 833 l 139 972 l 278 972 l 278 903 l 486 903 l 486 972 l 625 972 l 625 833 l 556 833 l 556 764 l 208 764 l 208 833 l 139 833 m 278 139 l 486 139 l 486 694 l 764 694 l 764 69 l 694 69 l 694 0 l 69 0 l 69 69 l 0 69 l 0 694 l 278 694 l 278 139 z "},"Ů":{"ha":833,"x_min":0,"x_max":764,"o":"m 139 764 l 139 1042 l 625 1042 l 625 764 l 139 764 m 486 972 l 278 972 l 278 833 l 486 833 l 486 972 m 278 139 l 486 139 l 486 694 l 764 694 l 764 69 l 694 69 l 694 0 l 69 0 l 69 69 l 0 69 l 0 694 l 278 694 l 278 139 z "},"ů":{"ha":833,"x_min":0,"x_max":764,"o":"m 139 764 l 139 1042 l 625 1042 l 625 764 l 139 764 m 486 972 l 278 972 l 278 833 l 486 833 l 486 972 m 278 139 l 486 139 l 486 694 l 764 694 l 764 69 l 694 69 l 694 0 l 69 0 l 69 69 l 0 69 l 0 694 l 278 694 l 278 139 z "},"Ű":{"ha":833,"x_min":0,"x_max":764,"o":"m 486 694 l 764 694 l 764 69 l 694 69 l 694 0 l 69 0 l 69 69 l 0 69 l 0 694 l 278 694 l 278 139 l 486 139 l 486 694 m 125 903 l 194 903 l 194 972 l 264 972 l 264 1042 l 403 1042 l 403 903 l 333 903 l 333 833 l 264 833 l 264 764 l 125 764 l 125 903 m 472 903 l 542 903 l 542 972 l 611 972 l 611 1042 l 750 1042 l 750 903 l 681 903 l 681 833 l 611 833 l 611 764 l 472 764 l 472 903 z "},"ű":{"ha":833,"x_min":0,"x_max":764,"o":"m 486 694 l 764 694 l 764 69 l 694 69 l 694 0 l 69 0 l 69 69 l 0 69 l 0 694 l 278 694 l 278 139 l 486 139 l 486 694 m 125 903 l 194 903 l 194 972 l 264 972 l 264 1042 l 403 1042 l 403 903 l 333 903 l 333 833 l 264 833 l 264 764 l 125 764 l 125 903 m 472 903 l 542 903 l 542 972 l 611 972 l 611 1042 l 750 1042 l 750 903 l 681 903 l 681 833 l 611 833 l 611 764 l 472 764 l 472 903 z "},"Ų":{"ha":833,"x_min":0,"x_max":764,"o":"m 694 0 l 486 0 l 486 -69 l 556 -69 l 556 -139 l 347 -139 l 347 -69 l 278 -69 l 278 0 l 69 0 l 69 69 l 0 69 l 0 694 l 278 694 l 278 139 l 486 139 l 486 694 l 764 694 l 764 69 l 694 69 l 694 0 l 694 0 z "},"ų":{"ha":833,"x_min":0,"x_max":764,"o":"m 694 0 l 486 0 l 486 -69 l 556 -69 l 556 -139 l 347 -139 l 347 -69 l 278 -69 l 278 0 l 69 0 l 69 69 l 0 69 l 0 694 l 278 694 l 278 139 l 486 139 l 486 694 l 764 694 l 764 69 l 694 69 l 694 0 l 694 0 z "},"Ŵ":{"ha":972,"x_min":0,"x_max":903,"o":"m 486 486 l 486 417 l 556 417 l 556 347 l 625 347 l 625 694 l 903 694 l 903 0 l 625 0 l 625 69 l 556 69 l 556 139 l 486 139 l 486 208 l 417 208 l 417 139 l 347 139 l 347 69 l 278 69 l 278 0 l 0 0 l 0 694 l 278 694 l 278 347 l 347 347 l 347 417 l 417 417 l 417 486 l 486 486 m 208 833 l 278 833 l 278 903 l 347 903 l 347 972 l 417 972 l 417 1042 l 486 1042 l 486 972 l 556 972 l 556 903 l 625 903 l 625 833 l 694 833 l 694 764 l 556 764 l 556 833 l 486 833 l 486 903 l 417 903 l 417 833 l 347 833 l 347 764 l 208 764 l 208 833 z "},"ŵ":{"ha":972,"x_min":0,"x_max":903,"o":"m 486 486 l 486 417 l 556 417 l 556 347 l 625 347 l 625 694 l 903 694 l 903 0 l 625 0 l 625 69 l 556 69 l 556 139 l 486 139 l 486 208 l 417 208 l 417 139 l 347 139 l 347 69 l 278 69 l 278 0 l 0 0 l 0 694 l 278 694 l 278 347 l 347 347 l 347 417 l 417 417 l 417 486 l 486 486 m 208 833 l 278 833 l 278 903 l 347 903 l 347 972 l 417 972 l 417 1042 l 486 1042 l 486 972 l 556 972 l 556 903 l 625 903 l 625 833 l 694 833 l 694 764 l 556 764 l 556 833 l 486 833 l 486 903 l 417 903 l 417 833 l 347 833 l 347 764 l 208 764 l 208 833 z "},"Ŷ":{"ha":903,"x_min":0,"x_max":833,"o":"m 833 417 l 764 417 l 764 347 l 694 347 l 694 278 l 556 278 l 556 0 l 278 0 l 278 278 l 139 278 l 139 347 l 69 347 l 69 417 l 0 417 l 0 694 l 278 694 l 278 486 l 347 486 l 347 417 l 486 417 l 486 486 l 556 486 l 556 694 l 833 694 l 833 417 m 139 833 l 208 833 l 208 903 l 278 903 l 278 972 l 347 972 l 347 1042 l 486 1042 l 486 972 l 556 972 l 556 903 l 625 903 l 625 833 l 694 833 l 694 764 l 556 764 l 556 833 l 486 833 l 486 903 l 347 903 l 347 833 l 278 833 l 278 764 l 139 764 l 139 833 z "},"ŷ":{"ha":903,"x_min":0,"x_max":833,"o":"m 833 417 l 764 417 l 764 347 l 694 347 l 694 278 l 556 278 l 556 0 l 278 0 l 278 278 l 139 278 l 139 347 l 69 347 l 69 417 l 0 417 l 0 694 l 278 694 l 278 486 l 347 486 l 347 417 l 486 417 l 486 486 l 556 486 l 556 694 l 833 694 l 833 417 m 139 833 l 208 833 l 208 903 l 278 903 l 278 972 l 347 972 l 347 1042 l 486 1042 l 486 972 l 556 972 l 556 903 l 625 903 l 625 833 l 694 833 l 694 764 l 556 764 l 556 833 l 486 833 l 486 903 l 347 903 l 347 833 l 278 833 l 278 764 l 139 764 l 139 833 z "},"Ź":{"ha":833,"x_min":0,"x_max":764,"o":"m 0 694 l 764 694 l 764 486 l 694 486 l 694 417 l 625 417 l 625 347 l 556 347 l 556 278 l 486 278 l 486 208 l 417 208 l 417 139 l 764 139 l 764 0 l 0 0 l 0 139 l 69 139 l 69 208 l 139 208 l 139 278 l 208 278 l 208 347 l 278 347 l 278 417 l 347 417 l 347 486 l 417 486 l 417 556 l 0 556 l 0 694 m 278 903 l 347 903 l 347 972 l 417 972 l 417 1042 l 556 1042 l 556 903 l 486 903 l 486 833 l 417 833 l 417 764 l 278 764 l 278 903 z "},"ź":{"ha":833,"x_min":0,"x_max":764,"o":"m 0 694 l 764 694 l 764 486 l 694 486 l 694 417 l 625 417 l 625 347 l 556 347 l 556 278 l 486 278 l 486 208 l 417 208 l 417 139 l 764 139 l 764 0 l 0 0 l 0 139 l 69 139 l 69 208 l 139 208 l 139 278 l 208 278 l 208 347 l 278 347 l 278 417 l 347 417 l 347 486 l 417 486 l 417 556 l 0 556 l 0 694 m 278 903 l 347 903 l 347 972 l 417 972 l 417 1042 l 556 1042 l 556 903 l 486 903 l 486 833 l 417 833 l 417 764 l 278 764 l 278 903 z "},"Ż":{"ha":833,"x_min":0,"x_max":764,"o":"m 278 833 l 278 1042 l 486 1042 l 486 833 l 278 833 m 764 486 l 694 486 l 694 417 l 625 417 l 625 347 l 556 347 l 556 278 l 486 278 l 486 208 l 417 208 l 417 139 l 764 139 l 764 0 l 0 0 l 0 139 l 69 139 l 69 208 l 139 208 l 139 278 l 208 278 l 208 347 l 278 347 l 278 417 l 347 417 l 347 486 l 417 486 l 417 556 l 0 556 l 0 694 l 764 694 l 764 486 z "},"ż":{"ha":833,"x_min":0,"x_max":764,"o":"m 278 833 l 278 1042 l 486 1042 l 486 833 l 278 833 m 764 486 l 694 486 l 694 417 l 625 417 l 625 347 l 556 347 l 556 278 l 486 278 l 486 208 l 417 208 l 417 139 l 764 139 l 764 0 l 0 0 l 0 139 l 69 139 l 69 208 l 139 208 l 139 278 l 208 278 l 208 347 l 278 347 l 278 417 l 347 417 l 347 486 l 417 486 l 417 556 l 0 556 l 0 694 l 764 694 l 764 486 z "},"Ǽ":{"ha":1319,"x_min":0,"x_max":1250,"o":"m 486 903 l 556 903 l 556 972 l 625 972 l 625 1042 l 764 1042 l 764 903 l 694 903 l 694 833 l 625 833 l 625 764 l 486 764 l 486 903 m 0 0 l 0 625 l 69 625 l 69 694 l 1250 694 l 1250 556 l 764 556 l 764 417 l 972 417 l 972 278 l 764 278 l 764 139 l 1250 139 l 1250 0 l 486 0 l 486 278 l 278 278 l 278 0 l 0 0 m 486 556 l 278 556 l 278 417 l 486 417 l 486 556 z "},"ǽ":{"ha":1319,"x_min":0,"x_max":1250,"o":"m 486 903 l 556 903 l 556 972 l 625 972 l 625 1042 l 764 1042 l 764 903 l 694 903 l 694 833 l 625 833 l 625 764 l 486 764 l 486 903 m 0 0 l 0 625 l 69 625 l 69 694 l 1250 694 l 1250 556 l 764 556 l 764 417 l 972 417 l 972 278 l 764 278 l 764 139 l 1250 139 l 1250 0 l 486 0 l 486 278 l 278 278 l 278 0 l 0 0 m 486 556 l 278 556 l 278 417 l 486 417 l 486 556 z "},"Ǿ":{"ha":833,"x_min":0,"x_max":764,"o":"m 417 347 l 417 208 l 347 208 l 347 139 l 486 139 l 486 347 l 417 347 m 347 347 l 347 486 l 417 486 l 417 556 l 278 556 l 278 347 l 347 347 m 556 764 l 625 764 l 625 833 l 764 833 l 764 694 l 694 694 l 694 625 l 764 625 l 764 69 l 694 69 l 694 0 l 208 0 l 208 -69 l 139 -69 l 139 -139 l 0 -139 l 0 0 l 69 0 l 69 69 l 0 69 l 0 625 l 69 625 l 69 694 l 556 694 l 556 764 m 278 903 l 347 903 l 347 972 l 417 972 l 417 1042 l 556 1042 l 556 903 l 486 903 l 486 833 l 417 833 l 417 764 l 278 764 l 278 903 z "},"ǿ":{"ha":833,"x_min":0,"x_max":764,"o":"m 417 347 l 417 208 l 347 208 l 347 139 l 486 139 l 486 347 l 417 347 m 347 347 l 347 486 l 417 486 l 417 556 l 278 556 l 278 347 l 347 347 m 556 764 l 625 764 l 625 833 l 764 833 l 764 694 l 694 694 l 694 625 l 764 625 l 764 69 l 694 69 l 694 0 l 208 0 l 208 -69 l 139 -69 l 139 -139 l 0 -139 l 0 0 l 69 0 l 69 69 l 0 69 l 0 625 l 69 625 l 69 694 l 556 694 l 556 764 m 278 903 l 347 903 l 347 972 l 417 972 l 417 1042 l 556 1042 l 556 903 l 486 903 l 486 833 l 417 833 l 417 764 l 278 764 l 278 903 z "},"Ș":{"ha":833,"x_min":0,"x_max":764,"o":"m 278 -208 l 278 -69 l 486 -69 l 486 -208 l 278 -208 m 486 278 l 69 278 l 69 347 l 0 347 l 0 625 l 69 625 l 69 694 l 764 694 l 764 556 l 278 556 l 278 417 l 694 417 l 694 347 l 764 347 l 764 69 l 694 69 l 694 0 l 0 0 l 0 139 l 486 139 l 486 278 z "},"ș":{"ha":833,"x_min":0,"x_max":764,"o":"m 278 -208 l 278 -69 l 486 -69 l 486 -208 l 278 -208 m 486 278 l 69 278 l 69 347 l 0 347 l 0 625 l 69 625 l 69 694 l 764 694 l 764 556 l 278 556 l 278 417 l 694 417 l 694 347 l 764 347 l 764 69 l 694 69 l 694 0 l 0 0 l 0 139 l 486 139 l 486 278 z "},"Ț":{"ha":764,"x_min":0,"x_max":694,"o":"m 208 -208 l 208 -69 l 486 -69 l 486 -208 l 208 -208 m 0 694 l 694 694 l 694 556 l 486 556 l 486 0 l 208 0 l 208 556 l 0 556 l 0 694 z "},"ț":{"ha":764,"x_min":0,"x_max":694,"o":"m 208 -208 l 208 -69 l 486 -69 l 486 -208 l 208 -208 m 0 694 l 694 694 l 694 556 l 486 556 l 486 0 l 208 0 l 208 556 l 0 556 l 0 694 z "},"ȷ":{"ha":833,"x_min":0,"x_max":764,"o":"m 278 278 l 278 139 l 486 139 l 486 694 l 764 694 l 764 69 l 694 69 l 694 0 l 69 0 l 69 69 l 0 69 l 0 278 l 278 278 l 278 278 z "},"ˉ":{"ha":833,"x_min":0,"x_max":764,"o":"m 0 764 l 0 903 l 764 903 l 764 764 l 0 764 l 0 764 z "},"̀":{"ha":833,"x_min":208,"x_max":486,"o":"m 417 903 l 486 903 l 486 764 l 347 764 l 347 833 l 278 833 l 278 903 l 208 903 l 208 1042 l 347 1042 l 347 972 l 417 972 l 417 903 l 417 903 z "},"́":{"ha":833,"x_min":278,"x_max":556,"o":"m 278 903 l 347 903 l 347 972 l 417 972 l 417 1042 l 556 1042 l 556 903 l 486 903 l 486 833 l 417 833 l 417 764 l 278 764 l 278 903 l 278 903 z "},"̂":{"ha":833,"x_min":139,"x_max":625,"o":"m 139 833 l 208 833 l 208 903 l 278 903 l 278 972 l 347 972 l 347 1042 l 417 1042 l 417 972 l 486 972 l 486 903 l 556 903 l 556 833 l 625 833 l 625 764 l 486 764 l 486 833 l 417 833 l 417 903 l 347 903 l 347 833 l 278 833 l 278 764 l 139 764 l 139 833 l 139 833 z "},"̃":{"ha":833,"x_min":139,"x_max":625,"o":"m 278 764 l 139 764 l 139 972 l 208 972 l 208 1042 l 347 1042 l 347 972 l 417 972 l 417 903 l 486 903 l 486 1042 l 625 1042 l 625 833 l 556 833 l 556 764 l 417 764 l 417 833 l 347 833 l 347 903 l 278 903 l 278 764 l 278 764 z "},"̄":{"ha":833,"x_min":0,"x_max":764,"o":"m 0 833 l 0 972 l 764 972 l 764 833 l 0 833 l 0 833 z "},"̆":{"ha":833,"x_min":139,"x_max":625,"o":"m 139 833 l 139 972 l 278 972 l 278 903 l 486 903 l 486 972 l 625 972 l 625 833 l 556 833 l 556 764 l 208 764 l 208 833 l 139 833 l 139 833 z "},"̇":{"ha":833,"x_min":278,"x_max":486,"o":"m 278 833 l 278 1042 l 486 1042 l 486 833 l 278 833 l 278 833 z "},"̈":{"ha":833,"x_min":69,"x_max":694,"o":"m 486 833 l 486 1042 l 694 1042 l 694 833 l 486 833 m 69 833 l 69 1042 l 278 1042 l 278 833 l 69 833 z "},"̊":{"ha":833,"x_min":139,"x_max":625,"o":"m 139 764 l 139 1042 l 625 1042 l 625 764 l 139 764 m 486 972 l 278 972 l 278 833 l 486 833 l 486 972 z "},"̋":{"ha":833,"x_min":139,"x_max":764,"o":"m 139 903 l 208 903 l 208 972 l 278 972 l 278 1042 l 417 1042 l 417 903 l 347 903 l 347 833 l 278 833 l 278 764 l 139 764 l 139 903 m 486 903 l 556 903 l 556 972 l 625 972 l 625 1042 l 764 1042 l 764 903 l 694 903 l 694 833 l 625 833 l 625 764 l 486 764 l 486 903 z "},"̌":{"ha":833,"x_min":139,"x_max":625,"o":"m 625 972 l 556 972 l 556 903 l 486 903 l 486 833 l 417 833 l 417 764 l 347 764 l 347 833 l 278 833 l 278 903 l 208 903 l 208 972 l 139 972 l 139 1042 l 278 1042 l 278 972 l 347 972 l 347 903 l 417 903 l 417 972 l 486 972 l 486 1042 l 625 1042 l 625 972 l 625 972 z "},"̦":{"ha":833,"x_min":278,"x_max":486,"o":"m 278 -278 l 278 -208 l 347 -208 l 347 -139 l 278 -139 l 278 -69 l 486 -69 l 486 -208 l 417 -208 l 417 -278 l 278 -278 l 278 -278 z "},"̧":{"ha":833,"x_min":208,"x_max":486,"o":"m 278 -139 l 278 0 l 486 0 l 486 -139 l 417 -139 l 417 -208 l 208 -208 l 208 -139 l 278 -139 l 278 -139 z "},"̨":{"ha":833,"x_min":278,"x_max":556,"o":"m 486 0 l 486 -139 l 556 -139 l 556 -208 l 347 -208 l 347 -139 l 278 -139 l 278 0 l 486 0 l 486 0 z "},"̈́":{"ha":833,"x_min":69,"x_max":694,"o":"m 208 903 l 208 764 l 69 764 l 69 903 l 208 903 m 694 903 l 694 764 l 556 764 l 556 903 l 694 903 m 278 903 l 347 903 l 347 972 l 417 972 l 417 1042 l 556 1042 l 556 903 l 486 903 l 486 833 l 417 833 l 417 764 l 278 764 l 278 903 z "},"΄":{"ha":833,"x_min":278,"x_max":556,"o":"m 278 903 l 347 903 l 347 972 l 417 972 l 417 1042 l 556 1042 l 556 903 l 486 903 l 486 833 l 417 833 l 417 764 l 278 764 l 278 903 l 278 903 z "},"΅":{"ha":833,"x_min":69,"x_max":694,"o":"m 208 903 l 208 764 l 69 764 l 69 903 l 208 903 m 694 903 l 694 764 l 556 764 l 556 903 l 694 903 m 278 903 l 347 903 l 347 972 l 417 972 l 417 1042 l 556 1042 l 556 903 l 486 903 l 486 833 l 417 833 l 417 764 l 278 764 l 278 903 z "},"Ά":{"ha":833,"x_min":0,"x_max":764,"o":"m 0 625 l 69 625 l 69 694 l 694 694 l 694 625 l 764 625 l 764 0 l 486 0 l 486 278 l 278 278 l 278 0 l 0 0 l 0 625 m 278 417 l 486 417 l 486 556 l 278 556 l 278 417 m 278 903 l 347 903 l 347 972 l 417 972 l 417 1042 l 556 1042 l 556 903 l 486 903 l 486 833 l 417 833 l 417 764 l 278 764 l 278 903 z "},"·":{"ha":347,"x_min":0,"x_max":278,"o":"m 0 486 l 278 486 l 278 208 l 0 208 l 0 486 l 0 486 z "},"Έ":{"ha":833,"x_min":0,"x_max":764,"o":"m 486 278 l 278 278 l 278 139 l 764 139 l 764 0 l 69 0 l 69 69 l 0 69 l 0 625 l 69 625 l 69 694 l 764 694 l 764 556 l 278 556 l 278 417 l 486 417 l 486 278 m 278 903 l 347 903 l 347 972 l 417 972 l 417 1042 l 556 1042 l 556 903 l 486 903 l 486 833 l 417 833 l 417 764 l 278 764 l 278 903 z "},"Ή":{"ha":833,"x_min":0,"x_max":764,"o":"m 278 694 l 278 417 l 486 417 l 486 694 l 764 694 l 764 0 l 486 0 l 486 278 l 278 278 l 278 0 l 0 0 l 0 694 l 278 694 m 278 903 l 347 903 l 347 972 l 417 972 l 417 1042 l 556 1042 l 556 903 l 486 903 l 486 833 l 417 833 l 417 764 l 278 764 l 278 903 z "},"Ί":{"ha":764,"x_min":0,"x_max":694,"o":"m 694 556 l 486 556 l 486 139 l 694 139 l 694 0 l 0 0 l 0 139 l 208 139 l 208 556 l 0 556 l 0 694 l 694 694 l 694 556 m 208 903 l 278 903 l 278 972 l 347 972 l 347 1042 l 486 1042 l 486 903 l 417 903 l 417 833 l 347 833 l 347 764 l 208 764 l 208 903 z "},"Ό":{"ha":833,"x_min":0,"x_max":764,"o":"m 486 556 l 278 556 l 278 139 l 486 139 l 486 556 m 69 0 l 69 69 l 0 69 l 0 625 l 69 625 l 69 694 l 694 694 l 694 625 l 764 625 l 764 69 l 694 69 l 694 0 l 69 0 m 278 903 l 347 903 l 347 972 l 417 972 l 417 1042 l 556 1042 l 556 903 l 486 903 l 486 833 l 417 833 l 417 764 l 278 764 l 278 903 z "},"Ύ":{"ha":903,"x_min":0,"x_max":833,"o":"m 833 486 l 764 486 l 764 417 l 694 417 l 694 347 l 625 347 l 625 278 l 556 278 l 556 0 l 278 0 l 278 278 l 208 278 l 208 347 l 139 347 l 139 417 l 69 417 l 69 486 l 0 486 l 0 694 l 208 694 l 208 625 l 278 625 l 278 556 l 347 556 l 347 486 l 486 486 l 486 556 l 556 556 l 556 625 l 625 625 l 625 694 l 833 694 l 833 486 m 347 903 l 417 903 l 417 972 l 486 972 l 486 1042 l 625 1042 l 625 903 l 556 903 l 556 833 l 486 833 l 486 764 l 347 764 l 347 903 z "},"Ώ":{"ha":833,"x_min":0,"x_max":764,"o":"m 347 0 l 0 0 l 0 139 l 69 139 l 69 208 l 0 208 l 0 625 l 69 625 l 69 694 l 694 694 l 694 625 l 764 625 l 764 208 l 694 208 l 694 139 l 764 139 l 764 0 l 417 0 l 417 208 l 486 208 l 486 556 l 278 556 l 278 208 l 347 208 l 347 0 m 278 903 l 347 903 l 347 972 l 417 972 l 417 1042 l 556 1042 l 556 903 l 486 903 l 486 833 l 417 833 l 417 764 l 278 764 l 278 903 z "},"ΐ":{"ha":764,"x_min":0,"x_max":694,"o":"m 694 556 l 486 556 l 486 139 l 694 139 l 694 0 l 0 0 l 0 139 l 208 139 l 208 556 l 0 556 l 0 694 l 694 694 l 694 556 m 139 903 l 139 764 l 0 764 l 0 903 l 139 903 m 694 903 l 694 764 l 556 764 l 556 903 l 694 903 m 208 903 l 278 903 l 278 972 l 347 972 l 347 1042 l 486 1042 l 486 903 l 417 903 l 417 833 l 347 833 l 347 764 l 208 764 l 208 903 z "},"Α":{"ha":833,"x_min":0,"x_max":764,"o":"m 486 556 l 278 556 l 278 417 l 486 417 l 486 556 m 278 0 l 0 0 l 0 625 l 69 625 l 69 694 l 694 694 l 694 625 l 764 625 l 764 0 l 486 0 l 486 278 l 278 278 l 278 0 z "},"Β":{"ha":833,"x_min":0,"x_max":764,"o":"m 486 278 l 278 278 l 278 139 l 486 139 l 486 278 m 486 556 l 278 556 l 278 417 l 486 417 l 486 556 m 694 0 l 0 0 l 0 694 l 694 694 l 694 625 l 764 625 l 764 417 l 694 417 l 694 278 l 764 278 l 764 69 l 694 69 l 694 0 z "},"Γ":{"ha":833,"x_min":0,"x_max":764,"o":"m 278 556 l 278 0 l 0 0 l 0 694 l 764 694 l 764 556 l 278 556 l 278 556 z "},"Δ":{"ha":833,"x_min":0,"x_max":764,"o":"m 417 556 l 278 556 l 278 139 l 417 139 l 417 208 l 486 208 l 486 486 l 417 486 l 417 556 m 0 0 l 0 694 l 625 694 l 625 625 l 694 625 l 694 556 l 764 556 l 764 139 l 694 139 l 694 69 l 625 69 l 625 0 l 0 0 z "},"Ε":{"ha":833,"x_min":0,"x_max":764,"o":"m 486 417 l 486 278 l 278 278 l 278 139 l 764 139 l 764 0 l 69 0 l 69 69 l 0 69 l 0 625 l 69 625 l 69 694 l 764 694 l 764 556 l 278 556 l 278 417 l 486 417 l 486 417 z "},"Ζ":{"ha":833,"x_min":0,"x_max":764,"o":"m 0 694 l 764 694 l 764 486 l 694 486 l 694 417 l 625 417 l 625 347 l 556 347 l 556 278 l 486 278 l 486 208 l 417 208 l 417 139 l 764 139 l 764 0 l 0 0 l 0 139 l 69 139 l 69 208 l 139 208 l 139 278 l 208 278 l 208 347 l 278 347 l 278 417 l 347 417 l 347 486 l 417 486 l 417 556 l 0 556 l 0 694 l 0 694 z "},"Η":{"ha":833,"x_min":0,"x_max":764,"o":"m 0 0 l 0 694 l 278 694 l 278 417 l 486 417 l 486 694 l 764 694 l 764 0 l 486 0 l 486 278 l 278 278 l 278 0 l 0 0 l 0 0 z "},"Θ":{"ha":833,"x_min":0,"x_max":764,"o":"m 278 556 l 278 417 l 486 417 l 486 556 l 278 556 m 486 139 l 486 278 l 278 278 l 278 139 l 486 139 m 694 69 l 694 0 l 69 0 l 69 69 l 0 69 l 0 625 l 69 625 l 69 694 l 694 694 l 694 625 l 764 625 l 764 69 l 694 69 z "},"Ι":{"ha":764,"x_min":0,"x_max":694,"o":"m 0 694 l 694 694 l 694 556 l 486 556 l 486 139 l 694 139 l 694 0 l 0 0 l 0 139 l 208 139 l 208 556 l 0 556 l 0 694 l 0 694 z "},"Κ":{"ha":833,"x_min":0,"x_max":764,"o":"m 0 0 l 0 694 l 278 694 l 278 486 l 347 486 l 347 556 l 417 556 l 417 625 l 486 625 l 486 694 l 764 694 l 764 556 l 694 556 l 694 486 l 625 486 l 625 417 l 556 417 l 556 278 l 625 278 l 625 208 l 694 208 l 694 139 l 764 139 l 764 0 l 486 0 l 486 69 l 417 69 l 417 139 l 347 139 l 347 208 l 278 208 l 278 0 l 0 0 l 0 0 z "},"Λ":{"ha":833,"x_min":0,"x_max":764,"o":"m 278 0 l 0 0 l 0 417 l 69 417 l 69 486 l 139 486 l 139 556 l 208 556 l 208 625 l 278 625 l 278 694 l 764 694 l 764 0 l 486 0 l 486 486 l 417 486 l 417 417 l 347 417 l 347 347 l 278 347 l 278 0 l 278 0 z "},"Μ":{"ha":972,"x_min":0,"x_max":903,"o":"m 486 278 l 486 208 l 417 208 l 417 278 l 347 278 l 347 347 l 278 347 l 278 0 l 0 0 l 0 694 l 278 694 l 278 625 l 347 625 l 347 556 l 417 556 l 417 486 l 486 486 l 486 556 l 556 556 l 556 625 l 625 625 l 625 694 l 903 694 l 903 0 l 625 0 l 625 347 l 556 347 l 556 278 l 486 278 l 486 278 z "},"Ν":{"ha":833,"x_min":0,"x_max":764,"o":"m 486 486 l 486 694 l 764 694 l 764 0 l 486 0 l 486 208 l 417 208 l 417 278 l 347 278 l 347 347 l 278 347 l 278 0 l 0 0 l 0 694 l 278 694 l 278 625 l 347 625 l 347 556 l 417 556 l 417 486 l 486 486 l 486 486 z "},"Ξ":{"ha":833,"x_min":0,"x_max":764,"o":"m 694 278 l 556 278 l 556 208 l 417 208 l 417 139 l 764 139 l 764 0 l 0 0 l 0 139 l 139 139 l 139 208 l 278 208 l 278 278 l 69 278 l 69 417 l 208 417 l 208 486 l 347 486 l 347 556 l 0 556 l 0 694 l 764 694 l 764 556 l 625 556 l 625 486 l 486 486 l 486 417 l 694 417 l 694 278 l 694 278 z "},"Ο":{"ha":833,"x_min":0,"x_max":764,"o":"m 694 69 l 694 0 l 69 0 l 69 69 l 0 69 l 0 625 l 69 625 l 69 694 l 694 694 l 694 625 l 764 625 l 764 69 l 694 69 m 278 139 l 486 139 l 486 556 l 278 556 l 278 139 z "},"Π":{"ha":833,"x_min":0,"x_max":764,"o":"m 0 0 l 0 694 l 764 694 l 764 0 l 486 0 l 486 556 l 278 556 l 278 0 l 0 0 l 0 0 z "},"Ρ":{"ha":833,"x_min":0,"x_max":764,"o":"m 486 556 l 278 556 l 278 417 l 486 417 l 486 556 m 278 0 l 0 0 l 0 694 l 694 694 l 694 625 l 764 625 l 764 347 l 694 347 l 694 278 l 278 278 l 278 0 z "},"Σ":{"ha":833,"x_min":0,"x_max":764,"o":"m 486 278 l 417 278 l 417 208 l 347 208 l 347 139 l 764 139 l 764 0 l 0 0 l 0 139 l 69 139 l 69 208 l 139 208 l 139 278 l 208 278 l 208 417 l 139 417 l 139 486 l 69 486 l 69 556 l 0 556 l 0 694 l 764 694 l 764 556 l 347 556 l 347 486 l 417 486 l 417 417 l 486 417 l 486 278 l 486 278 z "},"Τ":{"ha":764,"x_min":0,"x_max":694,"o":"m 0 694 l 694 694 l 694 556 l 486 556 l 486 0 l 208 0 l 208 556 l 0 556 l 0 694 l 0 694 z "},"Υ":{"ha":903,"x_min":0,"x_max":833,"o":"m 625 694 l 833 694 l 833 486 l 764 486 l 764 417 l 694 417 l 694 347 l 625 347 l 625 278 l 556 278 l 556 0 l 278 0 l 278 278 l 208 278 l 208 347 l 139 347 l 139 417 l 69 417 l 69 486 l 0 486 l 0 694 l 208 694 l 208 625 l 278 625 l 278 556 l 347 556 l 347 486 l 486 486 l 486 556 l 556 556 l 556 625 l 625 625 l 625 694 l 625 694 z "},"Φ":{"ha":1181,"x_min":0,"x_max":1111,"o":"m 1042 694 l 1042 625 l 1111 625 l 1111 139 l 1042 139 l 1042 69 l 694 69 l 694 0 l 417 0 l 417 69 l 69 69 l 69 139 l 0 139 l 0 625 l 69 625 l 69 694 l 1042 694 m 417 208 l 417 556 l 278 556 l 278 208 l 417 208 m 833 556 l 694 556 l 694 208 l 833 208 l 833 556 z "},"Χ":{"ha":833,"x_min":0,"x_max":764,"o":"m 347 556 l 347 486 l 417 486 l 417 556 l 486 556 l 486 625 l 556 625 l 556 694 l 764 694 l 764 486 l 694 486 l 694 417 l 625 417 l 625 278 l 694 278 l 694 208 l 764 208 l 764 0 l 556 0 l 556 69 l 486 69 l 486 139 l 417 139 l 417 208 l 347 208 l 347 139 l 278 139 l 278 69 l 208 69 l 208 0 l 0 0 l 0 208 l 69 208 l 69 278 l 139 278 l 139 417 l 69 417 l 69 486 l 0 486 l 0 694 l 208 694 l 208 625 l 278 625 l 278 556 l 347 556 l 347 556 z "},"Ψ":{"ha":1181,"x_min":0,"x_max":1111,"o":"m 694 0 l 417 0 l 417 208 l 69 208 l 69 278 l 0 278 l 0 694 l 278 694 l 278 347 l 417 347 l 417 694 l 694 694 l 694 347 l 833 347 l 833 694 l 1111 694 l 1111 278 l 1042 278 l 1042 208 l 694 208 l 694 0 l 694 0 z "},"Ω":{"ha":833,"x_min":0,"x_max":764,"o":"m 278 208 l 347 208 l 347 0 l 0 0 l 0 139 l 69 139 l 69 208 l 0 208 l 0 625 l 69 625 l 69 694 l 694 694 l 694 625 l 764 625 l 764 208 l 694 208 l 694 139 l 764 139 l 764 0 l 417 0 l 417 208 l 486 208 l 486 556 l 278 556 l 278 208 l 278 208 z "},"Ϊ":{"ha":764,"x_min":0,"x_max":694,"o":"m 417 833 l 417 1042 l 625 1042 l 625 833 l 417 833 m 69 833 l 69 1042 l 278 1042 l 278 833 l 69 833 m 0 694 l 694 694 l 694 556 l 486 556 l 486 139 l 694 139 l 694 0 l 0 0 l 0 139 l 208 139 l 208 556 l 0 556 l 0 694 z "},"Ϋ":{"ha":903,"x_min":0,"x_max":833,"o":"m 486 833 l 486 1042 l 694 1042 l 694 833 l 486 833 m 139 833 l 139 1042 l 347 1042 l 347 833 l 139 833 m 625 694 l 833 694 l 833 486 l 764 486 l 764 417 l 694 417 l 694 347 l 625 347 l 625 278 l 556 278 l 556 0 l 278 0 l 278 278 l 208 278 l 208 347 l 139 347 l 139 417 l 69 417 l 69 486 l 0 486 l 0 694 l 208 694 l 208 625 l 278 625 l 278 556 l 347 556 l 347 486 l 486 486 l 486 556 l 556 556 l 556 625 l 625 625 l 625 694 z "},"ά":{"ha":833,"x_min":0,"x_max":764,"o":"m 0 625 l 69 625 l 69 694 l 694 694 l 694 625 l 764 625 l 764 0 l 486 0 l 486 278 l 278 278 l 278 0 l 0 0 l 0 625 m 278 417 l 486 417 l 486 556 l 278 556 l 278 417 m 278 903 l 347 903 l 347 972 l 417 972 l 417 1042 l 556 1042 l 556 903 l 486 903 l 486 833 l 417 833 l 417 764 l 278 764 l 278 903 z "},"έ":{"ha":833,"x_min":0,"x_max":764,"o":"m 486 278 l 278 278 l 278 139 l 764 139 l 764 0 l 69 0 l 69 69 l 0 69 l 0 625 l 69 625 l 69 694 l 764 694 l 764 556 l 278 556 l 278 417 l 486 417 l 486 278 m 278 903 l 347 903 l 347 972 l 417 972 l 417 1042 l 556 1042 l 556 903 l 486 903 l 486 833 l 417 833 l 417 764 l 278 764 l 278 903 z "},"ή":{"ha":833,"x_min":0,"x_max":764,"o":"m 278 694 l 278 417 l 486 417 l 486 694 l 764 694 l 764 0 l 486 0 l 486 278 l 278 278 l 278 0 l 0 0 l 0 694 l 278 694 m 278 903 l 347 903 l 347 972 l 417 972 l 417 1042 l 556 1042 l 556 903 l 486 903 l 486 833 l 417 833 l 417 764 l 278 764 l 278 903 z "},"ί":{"ha":764,"x_min":0,"x_max":694,"o":"m 694 556 l 486 556 l 486 139 l 694 139 l 694 0 l 0 0 l 0 139 l 208 139 l 208 556 l 0 556 l 0 694 l 694 694 l 694 556 m 208 903 l 278 903 l 278 972 l 347 972 l 347 1042 l 486 1042 l 486 903 l 417 903 l 417 833 l 347 833 l 347 764 l 208 764 l 208 903 z "},"ΰ":{"ha":903,"x_min":0,"x_max":833,"o":"m 833 486 l 764 486 l 764 417 l 694 417 l 694 347 l 625 347 l 625 278 l 556 278 l 556 0 l 278 0 l 278 278 l 208 278 l 208 347 l 139 347 l 139 417 l 69 417 l 69 486 l 0 486 l 0 694 l 208 694 l 208 625 l 278 625 l 278 556 l 347 556 l 347 486 l 486 486 l 486 556 l 556 556 l 556 625 l 625 625 l 625 694 l 833 694 l 833 486 m 347 903 l 417 903 l 417 972 l 486 972 l 486 1042 l 625 1042 l 625 903 l 556 903 l 556 833 l 486 833 l 486 764 l 347 764 l 347 903 z "},"α":{"ha":833,"x_min":0,"x_max":764,"o":"m 486 556 l 278 556 l 278 417 l 486 417 l 486 556 m 278 0 l 0 0 l 0 625 l 69 625 l 69 694 l 694 694 l 694 625 l 764 625 l 764 0 l 486 0 l 486 278 l 278 278 l 278 0 z "},"β":{"ha":833,"x_min":0,"x_max":764,"o":"m 486 278 l 278 278 l 278 139 l 486 139 l 486 278 m 486 556 l 278 556 l 278 417 l 486 417 l 486 556 m 694 0 l 0 0 l 0 694 l 694 694 l 694 625 l 764 625 l 764 417 l 694 417 l 694 278 l 764 278 l 764 69 l 694 69 l 694 0 z "},"γ":{"ha":833,"x_min":0,"x_max":764,"o":"m 278 556 l 278 0 l 0 0 l 0 694 l 764 694 l 764 556 l 278 556 l 278 556 z "},"δ":{"ha":833,"x_min":0,"x_max":764,"o":"m 417 556 l 278 556 l 278 139 l 417 139 l 417 208 l 486 208 l 486 486 l 417 486 l 417 556 m 0 0 l 0 694 l 625 694 l 625 625 l 694 625 l 694 556 l 764 556 l 764 139 l 694 139 l 694 69 l 625 69 l 625 0 l 0 0 z "},"ε":{"ha":833,"x_min":0,"x_max":764,"o":"m 278 417 l 486 417 l 486 278 l 278 278 l 278 139 l 764 139 l 764 0 l 69 0 l 69 69 l 0 69 l 0 625 l 69 625 l 69 694 l 764 694 l 764 556 l 278 556 l 278 417 l 278 417 z "},"ζ":{"ha":833,"x_min":0,"x_max":764,"o":"m 0 694 l 764 694 l 764 486 l 694 486 l 694 417 l 625 417 l 625 347 l 556 347 l 556 278 l 486 278 l 486 208 l 417 208 l 417 139 l 764 139 l 764 0 l 0 0 l 0 139 l 69 139 l 69 208 l 139 208 l 139 278 l 208 278 l 208 347 l 278 347 l 278 417 l 347 417 l 347 486 l 417 486 l 417 556 l 0 556 l 0 694 l 0 694 z "},"η":{"ha":833,"x_min":0,"x_max":764,"o":"m 0 0 l 0 694 l 278 694 l 278 417 l 486 417 l 486 694 l 764 694 l 764 0 l 486 0 l 486 278 l 278 278 l 278 0 l 0 0 l 0 0 z "},"θ":{"ha":833,"x_min":0,"x_max":764,"o":"m 278 556 l 278 417 l 486 417 l 486 556 l 278 556 m 486 139 l 486 278 l 278 278 l 278 139 l 486 139 m 694 69 l 694 0 l 69 0 l 69 69 l 0 69 l 0 625 l 69 625 l 69 694 l 694 694 l 694 625 l 764 625 l 764 69 l 694 69 z "},"ι":{"ha":764,"x_min":0,"x_max":694,"o":"m 0 694 l 694 694 l 694 556 l 486 556 l 486 139 l 694 139 l 694 0 l 0 0 l 0 139 l 208 139 l 208 556 l 0 556 l 0 694 l 0 694 z "},"κ":{"ha":833,"x_min":0,"x_max":764,"o":"m 0 0 l 0 694 l 278 694 l 278 486 l 347 486 l 347 556 l 417 556 l 417 625 l 486 625 l 486 694 l 764 694 l 764 556 l 694 556 l 694 486 l 625 486 l 625 417 l 556 417 l 556 278 l 625 278 l 625 208 l 694 208 l 694 139 l 764 139 l 764 0 l 486 0 l 486 69 l 417 69 l 417 139 l 347 139 l 347 208 l 278 208 l 278 0 l 0 0 l 0 0 z "},"λ":{"ha":833,"x_min":0,"x_max":764,"o":"m 278 0 l 0 0 l 0 417 l 69 417 l 69 486 l 139 486 l 139 556 l 208 556 l 208 625 l 278 625 l 278 694 l 764 694 l 764 0 l 486 0 l 486 486 l 417 486 l 417 417 l 347 417 l 347 347 l 278 347 l 278 0 l 278 0 z "},"μ":{"ha":972,"x_min":0,"x_max":903,"o":"m 486 278 l 486 208 l 417 208 l 417 278 l 347 278 l 347 347 l 278 347 l 278 0 l 0 0 l 0 694 l 278 694 l 278 625 l 347 625 l 347 556 l 417 556 l 417 486 l 486 486 l 486 556 l 556 556 l 556 625 l 625 625 l 625 694 l 903 694 l 903 0 l 625 0 l 625 347 l 556 347 l 556 278 l 486 278 l 486 278 z "},"ν":{"ha":833,"x_min":0,"x_max":764,"o":"m 486 486 l 486 694 l 764 694 l 764 0 l 486 0 l 486 208 l 417 208 l 417 278 l 347 278 l 347 347 l 278 347 l 278 0 l 0 0 l 0 694 l 278 694 l 278 625 l 347 625 l 347 556 l 417 556 l 417 486 l 486 486 l 486 486 z "},"ξ":{"ha":833,"x_min":0,"x_max":764,"o":"m 694 278 l 556 278 l 556 208 l 417 208 l 417 139 l 764 139 l 764 0 l 0 0 l 0 139 l 139 139 l 139 208 l 278 208 l 278 278 l 69 278 l 69 417 l 208 417 l 208 486 l 347 486 l 347 556 l 0 556 l 0 694 l 764 694 l 764 556 l 625 556 l 625 486 l 486 486 l 486 417 l 694 417 l 694 278 l 694 278 z "},"ο":{"ha":833,"x_min":0,"x_max":764,"o":"m 694 69 l 694 0 l 69 0 l 69 69 l 0 69 l 0 625 l 69 625 l 69 694 l 694 694 l 694 625 l 764 625 l 764 69 l 694 69 m 278 139 l 486 139 l 486 556 l 278 556 l 278 139 z "},"π":{"ha":833,"x_min":0,"x_max":764,"o":"m 0 0 l 0 694 l 764 694 l 764 0 l 486 0 l 486 556 l 278 556 l 278 0 l 0 0 l 0 0 z "},"ρ":{"ha":833,"x_min":0,"x_max":764,"o":"m 486 556 l 278 556 l 278 417 l 486 417 l 486 556 m 278 0 l 0 0 l 0 694 l 694 694 l 694 625 l 764 625 l 764 347 l 694 347 l 694 278 l 278 278 l 278 0 z "},"ς":{"ha":833,"x_min":0,"x_max":764,"o":"m 486 278 l 417 278 l 417 208 l 347 208 l 347 139 l 764 139 l 764 0 l 0 0 l 0 139 l 69 139 l 69 208 l 139 208 l 139 278 l 208 278 l 208 417 l 139 417 l 139 486 l 69 486 l 69 556 l 0 556 l 0 694 l 764 694 l 764 556 l 347 556 l 347 486 l 417 486 l 417 417 l 486 417 l 486 278 l 486 278 z "},"σ":{"ha":833,"x_min":0,"x_max":764,"o":"m 486 278 l 417 278 l 417 208 l 347 208 l 347 139 l 764 139 l 764 0 l 0 0 l 0 139 l 69 139 l 69 208 l 139 208 l 139 278 l 208 278 l 208 417 l 139 417 l 139 486 l 69 486 l 69 556 l 0 556 l 0 694 l 764 694 l 764 556 l 347 556 l 347 486 l 417 486 l 417 417 l 486 417 l 486 278 l 486 278 z "},"τ":{"ha":764,"x_min":0,"x_max":694,"o":"m 0 694 l 694 694 l 694 556 l 486 556 l 486 0 l 208 0 l 208 556 l 0 556 l 0 694 l 0 694 z "},"υ":{"ha":903,"x_min":0,"x_max":833,"o":"m 625 694 l 833 694 l 833 486 l 764 486 l 764 417 l 694 417 l 694 347 l 625 347 l 625 278 l 556 278 l 556 0 l 278 0 l 278 278 l 208 278 l 208 347 l 139 347 l 139 417 l 69 417 l 69 486 l 0 486 l 0 694 l 208 694 l 208 625 l 278 625 l 278 556 l 347 556 l 347 486 l 486 486 l 486 556 l 556 556 l 556 625 l 625 625 l 625 694 l 625 694 z "},"φ":{"ha":1181,"x_min":0,"x_max":1111,"o":"m 1042 694 l 1042 625 l 1111 625 l 1111 139 l 1042 139 l 1042 69 l 694 69 l 694 0 l 417 0 l 417 69 l 69 69 l 69 139 l 0 139 l 0 625 l 69 625 l 69 694 l 1042 694 m 417 208 l 417 556 l 278 556 l 278 208 l 417 208 m 833 556 l 694 556 l 694 208 l 833 208 l 833 556 z "},"χ":{"ha":833,"x_min":0,"x_max":764,"o":"m 347 556 l 347 486 l 417 486 l 417 556 l 486 556 l 486 625 l 556 625 l 556 694 l 764 694 l 764 486 l 694 486 l 694 417 l 625 417 l 625 278 l 694 278 l 694 208 l 764 208 l 764 0 l 556 0 l 556 69 l 486 69 l 486 139 l 417 139 l 417 208 l 347 208 l 347 139 l 278 139 l 278 69 l 208 69 l 208 0 l 0 0 l 0 208 l 69 208 l 69 278 l 139 278 l 139 417 l 69 417 l 69 486 l 0 486 l 0 694 l 208 694 l 208 625 l 278 625 l 278 556 l 347 556 l 347 556 z "},"ψ":{"ha":1181,"x_min":0,"x_max":1111,"o":"m 694 0 l 417 0 l 417 208 l 69 208 l 69 278 l 0 278 l 0 694 l 278 694 l 278 347 l 417 347 l 417 694 l 694 694 l 694 347 l 833 347 l 833 694 l 1111 694 l 1111 278 l 1042 278 l 1042 208 l 694 208 l 694 0 l 694 0 z "},"ω":{"ha":833,"x_min":0,"x_max":764,"o":"m 278 208 l 347 208 l 347 0 l 0 0 l 0 139 l 69 139 l 69 208 l 0 208 l 0 625 l 69 625 l 69 694 l 694 694 l 694 625 l 764 625 l 764 208 l 694 208 l 694 139 l 764 139 l 764 0 l 417 0 l 417 208 l 486 208 l 486 556 l 278 556 l 278 208 l 278 208 z "},"ϊ":{"ha":764,"x_min":0,"x_max":694,"o":"m 694 556 l 486 556 l 486 139 l 694 139 l 694 0 l 0 0 l 0 139 l 208 139 l 208 556 l 0 556 l 0 694 l 694 694 l 694 556 m 417 833 l 417 1042 l 625 1042 l 625 833 l 417 833 m 69 833 l 69 1042 l 278 1042 l 278 833 l 69 833 z "},"ϋ":{"ha":903,"x_min":0,"x_max":833,"o":"m 486 833 l 486 1042 l 694 1042 l 694 833 l 486 833 m 139 833 l 139 1042 l 347 1042 l 347 833 l 139 833 m 625 694 l 833 694 l 833 486 l 764 486 l 764 417 l 694 417 l 694 347 l 625 347 l 625 278 l 556 278 l 556 0 l 278 0 l 278 278 l 208 278 l 208 347 l 139 347 l 139 417 l 69 417 l 69 486 l 0 486 l 0 694 l 208 694 l 208 625 l 278 625 l 278 556 l 347 556 l 347 486 l 486 486 l 486 556 l 556 556 l 556 625 l 625 625 l 625 694 z "},"ό":{"ha":833,"x_min":0,"x_max":764,"o":"m 486 556 l 278 556 l 278 139 l 486 139 l 486 556 m 69 0 l 69 69 l 0 69 l 0 625 l 69 625 l 69 694 l 694 694 l 694 625 l 764 625 l 764 69 l 694 69 l 694 0 l 69 0 m 278 903 l 347 903 l 347 972 l 417 972 l 417 1042 l 556 1042 l 556 903 l 486 903 l 486 833 l 417 833 l 417 764 l 278 764 l 278 903 z "},"ύ":{"ha":903,"x_min":0,"x_max":833,"o":"m 833 486 l 764 486 l 764 417 l 694 417 l 694 347 l 625 347 l 625 278 l 556 278 l 556 0 l 278 0 l 278 278 l 208 278 l 208 347 l 139 347 l 139 417 l 69 417 l 69 486 l 0 486 l 0 694 l 208 694 l 208 625 l 278 625 l 278 556 l 347 556 l 347 486 l 486 486 l 486 556 l 556 556 l 556 625 l 625 625 l 625 694 l 833 694 l 833 486 m 347 903 l 417 903 l 417 972 l 486 972 l 486 1042 l 625 1042 l 625 903 l 556 903 l 556 833 l 486 833 l 486 764 l 347 764 l 347 903 z "},"ώ":{"ha":833,"x_min":0,"x_max":764,"o":"m 347 0 l 0 0 l 0 139 l 69 139 l 69 208 l 0 208 l 0 625 l 69 625 l 69 694 l 694 694 l 694 625 l 764 625 l 764 208 l 694 208 l 694 139 l 764 139 l 764 0 l 417 0 l 417 208 l 486 208 l 486 556 l 278 556 l 278 208 l 347 208 l 347 0 m 278 903 l 347 903 l 347 972 l 417 972 l 417 1042 l 556 1042 l 556 903 l 486 903 l 486 833 l 417 833 l 417 764 l 278 764 l 278 903 z "},"Ѐ":{"ha":833,"x_min":0,"x_max":764,"o":"m 417 903 l 486 903 l 486 764 l 347 764 l 347 833 l 278 833 l 278 903 l 208 903 l 208 1042 l 347 1042 l 347 972 l 417 972 l 417 903 m 278 417 l 486 417 l 486 278 l 278 278 l 278 139 l 764 139 l 764 0 l 69 0 l 69 69 l 0 69 l 0 625 l 69 625 l 69 694 l 764 694 l 764 556 l 278 556 l 278 417 z "},"Ё":{"ha":833,"x_min":0,"x_max":764,"o":"m 69 833 l 69 1042 l 278 1042 l 278 833 l 69 833 m 486 833 l 486 1042 l 694 1042 l 694 833 l 486 833 m 278 417 l 486 417 l 486 278 l 278 278 l 278 139 l 764 139 l 764 0 l 69 0 l 69 69 l 0 69 l 0 625 l 69 625 l 69 694 l 764 694 l 764 556 l 278 556 l 278 417 z "},"Ђ":{"ha":972,"x_min":0,"x_max":903,"o":"m 486 0 l 486 139 l 625 139 l 625 278 l 417 278 l 417 0 l 139 0 l 139 556 l 0 556 l 0 694 l 556 694 l 556 556 l 417 556 l 417 417 l 833 417 l 833 347 l 903 347 l 903 69 l 833 69 l 833 0 l 486 0 l 486 0 z "},"Ѓ":{"ha":833,"x_min":0,"x_max":764,"o":"m 278 556 l 278 0 l 0 0 l 0 694 l 764 694 l 764 556 l 278 556 m 278 903 l 347 903 l 347 972 l 417 972 l 417 1042 l 556 1042 l 556 903 l 486 903 l 486 833 l 417 833 l 417 764 l 278 764 l 278 903 z "},"Є":{"ha":833,"x_min":0,"x_max":764,"o":"m 486 278 l 764 278 l 764 69 l 694 69 l 694 0 l 69 0 l 69 69 l 0 69 l 0 625 l 69 625 l 69 694 l 694 694 l 694 625 l 764 625 l 764 417 l 486 417 l 486 556 l 278 556 l 278 417 l 486 417 l 486 278 l 278 278 l 278 139 l 486 139 l 486 278 z "},"Ѕ":{"ha":833,"x_min":0,"x_max":764,"o":"m 486 278 l 69 278 l 69 347 l 0 347 l 0 625 l 69 625 l 69 694 l 764 694 l 764 556 l 278 556 l 278 417 l 694 417 l 694 347 l 764 347 l 764 69 l 694 69 l 694 0 l 0 0 l 0 139 l 486 139 l 486 278 l 486 278 z "},"І":{"ha":764,"x_min":0,"x_max":694,"o":"m 0 694 l 694 694 l 694 556 l 486 556 l 486 139 l 694 139 l 694 0 l 0 0 l 0 139 l 208 139 l 208 556 l 0 556 l 0 694 l 0 694 z "},"Ї":{"ha":764,"x_min":0,"x_max":694,"o":"m 417 833 l 417 1042 l 625 1042 l 625 833 l 417 833 m 69 833 l 69 1042 l 278 1042 l 278 833 l 69 833 m 0 694 l 694 694 l 694 556 l 486 556 l 486 139 l 694 139 l 694 0 l 0 0 l 0 139 l 208 139 l 208 556 l 0 556 l 0 694 z "},"Ј":{"ha":833,"x_min":0,"x_max":764,"o":"m 278 278 l 278 139 l 486 139 l 486 694 l 764 694 l 764 69 l 694 69 l 694 0 l 69 0 l 69 69 l 0 69 l 0 278 l 278 278 l 278 278 z "},"Љ":{"ha":1319,"x_min":0,"x_max":1250,"o":"m 0 0 l 0 417 l 69 417 l 69 486 l 139 486 l 139 556 l 208 556 l 208 625 l 278 625 l 278 694 l 764 694 l 764 417 l 1181 417 l 1181 347 l 1250 347 l 1250 69 l 1181 69 l 1181 0 l 486 0 l 486 486 l 417 486 l 417 417 l 347 417 l 347 347 l 278 347 l 278 0 l 0 0 m 972 139 l 972 278 l 764 278 l 764 139 l 972 139 z "},"Њ":{"ha":1319,"x_min":0,"x_max":1250,"o":"m 764 278 l 764 139 l 972 139 l 972 278 l 764 278 m 486 417 l 486 694 l 764 694 l 764 417 l 1181 417 l 1181 347 l 1250 347 l 1250 69 l 1181 69 l 1181 0 l 486 0 l 486 278 l 278 278 l 278 0 l 0 0 l 0 694 l 278 694 l 278 417 l 486 417 z "},"Ћ":{"ha":972,"x_min":0,"x_max":903,"o":"m 0 694 l 556 694 l 556 556 l 417 556 l 417 417 l 833 417 l 833 347 l 903 347 l 903 0 l 625 0 l 625 278 l 417 278 l 417 0 l 139 0 l 139 556 l 0 556 l 0 694 l 0 694 z "},"Ќ":{"ha":833,"x_min":0,"x_max":764,"o":"m 278 694 l 278 486 l 347 486 l 347 556 l 417 556 l 417 625 l 486 625 l 486 694 l 764 694 l 764 556 l 694 556 l 694 486 l 625 486 l 625 417 l 556 417 l 556 278 l 625 278 l 625 208 l 694 208 l 694 139 l 764 139 l 764 0 l 486 0 l 486 69 l 417 69 l 417 139 l 347 139 l 347 208 l 278 208 l 278 0 l 0 0 l 0 694 l 278 694 m 278 903 l 347 903 l 347 972 l 417 972 l 417 1042 l 556 1042 l 556 903 l 486 903 l 486 833 l 417 833 l 417 764 l 278 764 l 278 903 z "},"Ѝ":{"ha":833,"x_min":0,"x_max":764,"o":"m 417 903 l 486 903 l 486 764 l 347 764 l 347 833 l 278 833 l 278 903 l 208 903 l 208 1042 l 347 1042 l 347 972 l 417 972 l 417 903 m 417 208 l 417 139 l 347 139 l 347 69 l 278 69 l 278 0 l 0 0 l 0 694 l 278 694 l 278 347 l 347 347 l 347 417 l 417 417 l 417 486 l 486 486 l 486 694 l 764 694 l 764 0 l 486 0 l 486 208 l 417 208 z "},"Ў":{"ha":833,"x_min":0,"x_max":764,"o":"m 139 833 l 139 972 l 278 972 l 278 903 l 486 903 l 486 972 l 625 972 l 625 833 l 556 833 l 556 764 l 208 764 l 208 833 l 139 833 m 0 139 l 486 139 l 486 278 l 69 278 l 69 347 l 0 347 l 0 694 l 278 694 l 278 417 l 486 417 l 486 694 l 764 694 l 764 69 l 694 69 l 694 0 l 0 0 l 0 139 z "},"Џ":{"ha":833,"x_min":0,"x_max":764,"o":"m 764 0 l 486 0 l 486 -139 l 278 -139 l 278 0 l 0 0 l 0 694 l 278 694 l 278 139 l 486 139 l 486 694 l 764 694 l 764 0 l 764 0 z "},"А":{"ha":833,"x_min":0,"x_max":764,"o":"m 486 556 l 278 556 l 278 417 l 486 417 l 486 556 m 278 0 l 0 0 l 0 625 l 69 625 l 69 694 l 694 694 l 694 625 l 764 625 l 764 0 l 486 0 l 486 278 l 278 278 l 278 0 z "},"Б":{"ha":833,"x_min":0,"x_max":764,"o":"m 486 278 l 278 278 l 278 139 l 486 139 l 486 278 m 764 556 l 278 556 l 278 417 l 694 417 l 694 347 l 764 347 l 764 69 l 694 69 l 694 0 l 0 0 l 0 694 l 764 694 l 764 556 z "},"В":{"ha":833,"x_min":0,"x_max":764,"o":"m 486 278 l 278 278 l 278 139 l 486 139 l 486 278 m 486 556 l 278 556 l 278 417 l 486 417 l 486 556 m 694 0 l 0 0 l 0 694 l 694 694 l 694 625 l 764 625 l 764 417 l 694 417 l 694 278 l 764 278 l 764 69 l 694 69 l 694 0 z "},"Г":{"ha":833,"x_min":0,"x_max":764,"o":"m 278 556 l 278 0 l 0 0 l 0 694 l 764 694 l 764 556 l 278 556 l 278 556 z "},"Д":{"ha":972,"x_min":0,"x_max":903,"o":"m 0 -139 l 0 139 l 69 139 l 69 625 l 139 625 l 139 694 l 833 694 l 833 139 l 903 139 l 903 -139 l 625 -139 l 625 0 l 278 0 l 278 -139 l 0 -139 m 347 139 l 556 139 l 556 556 l 347 556 l 347 139 z "},"Е":{"ha":833,"x_min":0,"x_max":764,"o":"m 278 417 l 486 417 l 486 278 l 278 278 l 278 139 l 764 139 l 764 0 l 69 0 l 69 69 l 0 69 l 0 625 l 69 625 l 69 694 l 764 694 l 764 556 l 278 556 l 278 417 l 278 417 z "},"Ж":{"ha":1319,"x_min":0,"x_max":1250,"o":"m 486 694 l 764 694 l 764 556 l 833 556 l 833 625 l 903 625 l 903 694 l 1181 694 l 1181 556 l 1111 556 l 1111 486 l 1042 486 l 1042 417 l 972 417 l 972 347 l 1042 347 l 1042 278 l 1111 278 l 1111 208 l 1181 208 l 1181 139 l 1250 139 l 1250 0 l 972 0 l 972 69 l 903 69 l 903 139 l 833 139 l 833 208 l 764 208 l 764 0 l 486 0 l 486 208 l 417 208 l 417 139 l 347 139 l 347 69 l 278 69 l 278 0 l 0 0 l 0 139 l 69 139 l 69 208 l 139 208 l 139 278 l 208 278 l 208 347 l 278 347 l 278 417 l 208 417 l 208 486 l 139 486 l 139 556 l 69 556 l 69 694 l 347 694 l 347 625 l 417 625 l 417 556 l 486 556 l 486 694 l 486 694 z "},"З":{"ha":833,"x_min":0,"x_max":764,"o":"m 278 417 l 486 417 l 486 556 l 0 556 l 0 694 l 694 694 l 694 625 l 764 625 l 764 417 l 694 417 l 694 278 l 764 278 l 764 69 l 694 69 l 694 0 l 0 0 l 0 139 l 486 139 l 486 278 l 278 278 l 278 417 l 278 417 z "},"И":{"ha":833,"x_min":0,"x_max":764,"o":"m 486 0 l 486 208 l 417 208 l 417 139 l 347 139 l 347 69 l 278 69 l 278 0 l 0 0 l 0 694 l 278 694 l 278 347 l 347 347 l 347 417 l 417 417 l 417 486 l 486 486 l 486 694 l 764 694 l 764 0 l 486 0 l 486 0 z "},"Й":{"ha":833,"x_min":0,"x_max":764,"o":"m 417 208 l 417 139 l 347 139 l 347 69 l 278 69 l 278 0 l 0 0 l 0 694 l 278 694 l 278 347 l 347 347 l 347 417 l 417 417 l 417 486 l 486 486 l 486 694 l 764 694 l 764 0 l 486 0 l 486 208 l 417 208 m 139 833 l 139 972 l 278 972 l 278 903 l 486 903 l 486 972 l 625 972 l 625 833 l 556 833 l 556 764 l 208 764 l 208 833 l 139 833 z "},"К":{"ha":833,"x_min":0,"x_max":764,"o":"m 0 0 l 0 694 l 278 694 l 278 486 l 347 486 l 347 556 l 417 556 l 417 625 l 486 625 l 486 694 l 764 694 l 764 556 l 694 556 l 694 486 l 625 486 l 625 417 l 556 417 l 556 278 l 625 278 l 625 208 l 694 208 l 694 139 l 764 139 l 764 0 l 486 0 l 486 69 l 417 69 l 417 139 l 347 139 l 347 208 l 278 208 l 278 0 l 0 0 l 0 0 z "},"Л":{"ha":833,"x_min":0,"x_max":764,"o":"m 278 0 l 0 0 l 0 417 l 69 417 l 69 486 l 139 486 l 139 556 l 208 556 l 208 625 l 278 625 l 278 694 l 764 694 l 764 0 l 486 0 l 486 486 l 417 486 l 417 417 l 347 417 l 347 347 l 278 347 l 278 0 l 278 0 z "},"М":{"ha":972,"x_min":0,"x_max":903,"o":"m 486 278 l 486 208 l 417 208 l 417 278 l 347 278 l 347 347 l 278 347 l 278 0 l 0 0 l 0 694 l 278 694 l 278 625 l 347 625 l 347 556 l 417 556 l 417 486 l 486 486 l 486 556 l 556 556 l 556 625 l 625 625 l 625 694 l 903 694 l 903 0 l 625 0 l 625 347 l 556 347 l 556 278 l 486 278 l 486 278 z "},"Н":{"ha":833,"x_min":0,"x_max":764,"o":"m 0 0 l 0 694 l 278 694 l 278 417 l 486 417 l 486 694 l 764 694 l 764 0 l 486 0 l 486 278 l 278 278 l 278 0 l 0 0 l 0 0 z "},"О":{"ha":833,"x_min":0,"x_max":764,"o":"m 694 69 l 694 0 l 69 0 l 69 69 l 0 69 l 0 625 l 69 625 l 69 694 l 694 694 l 694 625 l 764 625 l 764 69 l 694 69 m 278 139 l 486 139 l 486 556 l 278 556 l 278 139 z "},"П":{"ha":833,"x_min":0,"x_max":764,"o":"m 0 0 l 0 694 l 764 694 l 764 0 l 486 0 l 486 556 l 278 556 l 278 0 l 0 0 l 0 0 z "},"Р":{"ha":833,"x_min":0,"x_max":764,"o":"m 486 556 l 278 556 l 278 417 l 486 417 l 486 556 m 278 0 l 0 0 l 0 694 l 694 694 l 694 625 l 764 625 l 764 347 l 694 347 l 694 278 l 278 278 l 278 0 z "},"С":{"ha":833,"x_min":0,"x_max":764,"o":"m 278 556 l 278 139 l 486 139 l 486 278 l 764 278 l 764 69 l 694 69 l 694 0 l 69 0 l 69 69 l 0 69 l 0 625 l 69 625 l 69 694 l 694 694 l 694 625 l 764 625 l 764 417 l 486 417 l 486 556 l 278 556 l 278 556 z "},"Т":{"ha":764,"x_min":0,"x_max":694,"o":"m 0 694 l 694 694 l 694 556 l 486 556 l 486 0 l 208 0 l 208 556 l 0 556 l 0 694 l 0 694 z "},"У":{"ha":833,"x_min":0,"x_max":764,"o":"m 0 139 l 486 139 l 486 278 l 69 278 l 69 347 l 0 347 l 0 694 l 278 694 l 278 417 l 486 417 l 486 694 l 764 694 l 764 69 l 694 69 l 694 0 l 0 0 l 0 139 l 0 139 z "},"Ф":{"ha":1181,"x_min":0,"x_max":1111,"o":"m 1042 694 l 1042 625 l 1111 625 l 1111 139 l 1042 139 l 1042 69 l 694 69 l 694 0 l 417 0 l 417 69 l 69 69 l 69 139 l 0 139 l 0 625 l 69 625 l 69 694 l 1042 694 m 417 208 l 417 556 l 278 556 l 278 208 l 417 208 m 833 556 l 694 556 l 694 208 l 833 208 l 833 556 z "},"Х":{"ha":833,"x_min":0,"x_max":764,"o":"m 347 556 l 347 486 l 417 486 l 417 556 l 486 556 l 486 625 l 556 625 l 556 694 l 764 694 l 764 486 l 694 486 l 694 417 l 625 417 l 625 278 l 694 278 l 694 208 l 764 208 l 764 0 l 556 0 l 556 69 l 486 69 l 486 139 l 417 139 l 417 208 l 347 208 l 347 139 l 278 139 l 278 69 l 208 69 l 208 0 l 0 0 l 0 208 l 69 208 l 69 278 l 139 278 l 139 417 l 69 417 l 69 486 l 0 486 l 0 694 l 208 694 l 208 625 l 278 625 l 278 556 l 347 556 l 347 556 z "},"Ц":{"ha":903,"x_min":0,"x_max":833,"o":"m 764 694 l 764 139 l 833 139 l 833 -139 l 556 -139 l 556 0 l 0 0 l 0 694 l 278 694 l 278 139 l 486 139 l 486 694 l 764 694 l 764 694 z "},"Ч":{"ha":833,"x_min":0,"x_max":764,"o":"m 764 694 l 764 0 l 486 0 l 486 278 l 69 278 l 69 347 l 0 347 l 0 694 l 278 694 l 278 417 l 486 417 l 486 694 l 764 694 l 764 694 z "},"Ш":{"ha":1319,"x_min":0,"x_max":1250,"o":"m 278 139 l 486 139 l 486 694 l 764 694 l 764 139 l 972 139 l 972 694 l 1250 694 l 1250 0 l 0 0 l 0 694 l 278 694 l 278 139 l 278 139 z "},"Щ":{"ha":1389,"x_min":0,"x_max":1319,"o":"m 1250 694 l 1250 139 l 1319 139 l 1319 -139 l 1042 -139 l 1042 0 l 0 0 l 0 694 l 278 694 l 278 139 l 486 139 l 486 694 l 764 694 l 764 139 l 972 139 l 972 694 l 1250 694 l 1250 694 z "},"Ъ":{"ha":972,"x_min":0,"x_max":903,"o":"m 0 556 l 0 694 l 417 694 l 417 417 l 833 417 l 833 347 l 903 347 l 903 69 l 833 69 l 833 0 l 139 0 l 139 556 l 0 556 m 417 278 l 417 139 l 625 139 l 625 278 l 417 278 z "},"Ы":{"ha":1181,"x_min":0,"x_max":1111,"o":"m 0 694 l 278 694 l 278 417 l 694 417 l 694 347 l 764 347 l 764 69 l 694 69 l 694 0 l 0 0 l 0 694 m 278 139 l 486 139 l 486 278 l 278 278 l 278 139 m 1111 694 l 1111 0 l 833 0 l 833 694 l 1111 694 z "},"Ь":{"ha":833,"x_min":0,"x_max":764,"o":"m 0 694 l 278 694 l 278 417 l 694 417 l 694 347 l 764 347 l 764 69 l 694 69 l 694 0 l 0 0 l 0 694 m 278 139 l 486 139 l 486 278 l 278 278 l 278 139 z "},"Э":{"ha":833,"x_min":0,"x_max":764,"o":"m 0 69 l 0 278 l 278 278 l 278 417 l 0 417 l 0 625 l 69 625 l 69 694 l 694 694 l 694 625 l 764 625 l 764 69 l 694 69 l 694 0 l 69 0 l 69 69 l 0 69 m 486 278 l 278 278 l 278 139 l 486 139 l 486 278 m 486 556 l 278 556 l 278 417 l 486 417 l 486 556 z "},"Ю":{"ha":1250,"x_min":0,"x_max":1181,"o":"m 0 0 l 0 694 l 278 694 l 278 417 l 417 417 l 417 625 l 486 625 l 486 694 l 1111 694 l 1111 625 l 1181 625 l 1181 69 l 1111 69 l 1111 0 l 486 0 l 486 69 l 417 69 l 417 278 l 278 278 l 278 0 l 0 0 m 694 139 l 903 139 l 903 556 l 694 556 l 694 139 z "},"Я":{"ha":833,"x_min":0,"x_max":764,"o":"m 139 278 l 69 278 l 69 347 l 0 347 l 0 625 l 69 625 l 69 694 l 764 694 l 764 0 l 486 0 l 486 208 l 417 208 l 417 139 l 347 139 l 347 69 l 278 69 l 278 0 l 0 0 l 0 139 l 69 139 l 69 208 l 139 208 l 139 278 m 486 417 l 486 556 l 278 556 l 278 417 l 486 417 z "},"а":{"ha":833,"x_min":0,"x_max":764,"o":"m 486 556 l 278 556 l 278 417 l 486 417 l 486 556 m 278 0 l 0 0 l 0 625 l 69 625 l 69 694 l 694 694 l 694 625 l 764 625 l 764 0 l 486 0 l 486 278 l 278 278 l 278 0 z "},"б":{"ha":833,"x_min":0,"x_max":764,"o":"m 486 278 l 278 278 l 278 139 l 486 139 l 486 278 m 764 556 l 278 556 l 278 417 l 694 417 l 694 347 l 764 347 l 764 69 l 694 69 l 694 0 l 0 0 l 0 694 l 764 694 l 764 556 z "},"в":{"ha":833,"x_min":0,"x_max":764,"o":"m 486 278 l 278 278 l 278 139 l 486 139 l 486 278 m 486 556 l 278 556 l 278 417 l 486 417 l 486 556 m 694 0 l 0 0 l 0 694 l 694 694 l 694 625 l 764 625 l 764 417 l 694 417 l 694 278 l 764 278 l 764 69 l 694 69 l 694 0 z "},"г":{"ha":833,"x_min":0,"x_max":764,"o":"m 278 556 l 278 0 l 0 0 l 0 694 l 764 694 l 764 556 l 278 556 l 278 556 z "},"д":{"ha":972,"x_min":0,"x_max":903,"o":"m 0 -139 l 0 139 l 69 139 l 69 625 l 139 625 l 139 694 l 833 694 l 833 139 l 903 139 l 903 -139 l 625 -139 l 625 0 l 278 0 l 278 -139 l 0 -139 m 347 139 l 556 139 l 556 556 l 347 556 l 347 139 z "},"е":{"ha":833,"x_min":0,"x_max":764,"o":"m 278 417 l 486 417 l 486 278 l 278 278 l 278 139 l 764 139 l 764 0 l 69 0 l 69 69 l 0 69 l 0 625 l 69 625 l 69 694 l 764 694 l 764 556 l 278 556 l 278 417 l 278 417 z "},"ж":{"ha":1319,"x_min":0,"x_max":1250,"o":"m 486 694 l 764 694 l 764 556 l 833 556 l 833 625 l 903 625 l 903 694 l 1181 694 l 1181 556 l 1111 556 l 1111 486 l 1042 486 l 1042 417 l 972 417 l 972 347 l 1042 347 l 1042 278 l 1111 278 l 1111 208 l 1181 208 l 1181 139 l 1250 139 l 1250 0 l 972 0 l 972 69 l 903 69 l 903 139 l 833 139 l 833 208 l 764 208 l 764 0 l 486 0 l 486 208 l 417 208 l 417 139 l 347 139 l 347 69 l 278 69 l 278 0 l 0 0 l 0 139 l 69 139 l 69 208 l 139 208 l 139 278 l 208 278 l 208 347 l 278 347 l 278 417 l 208 417 l 208 486 l 139 486 l 139 556 l 69 556 l 69 694 l 347 694 l 347 625 l 417 625 l 417 556 l 486 556 l 486 694 l 486 694 z "},"з":{"ha":833,"x_min":0,"x_max":764,"o":"m 278 417 l 486 417 l 486 556 l 0 556 l 0 694 l 694 694 l 694 625 l 764 625 l 764 417 l 694 417 l 694 278 l 764 278 l 764 69 l 694 69 l 694 0 l 0 0 l 0 139 l 486 139 l 486 278 l 278 278 l 278 417 l 278 417 z "},"и":{"ha":833,"x_min":0,"x_max":764,"o":"m 486 0 l 486 208 l 417 208 l 417 139 l 347 139 l 347 69 l 278 69 l 278 0 l 0 0 l 0 694 l 278 694 l 278 347 l 347 347 l 347 417 l 417 417 l 417 486 l 486 486 l 486 694 l 764 694 l 764 0 l 486 0 l 486 0 z "},"й":{"ha":833,"x_min":0,"x_max":764,"o":"m 417 208 l 417 139 l 347 139 l 347 69 l 278 69 l 278 0 l 0 0 l 0 694 l 278 694 l 278 347 l 347 347 l 347 417 l 417 417 l 417 486 l 486 486 l 486 694 l 764 694 l 764 0 l 486 0 l 486 208 l 417 208 m 139 833 l 139 972 l 278 972 l 278 903 l 486 903 l 486 972 l 625 972 l 625 833 l 556 833 l 556 764 l 208 764 l 208 833 l 139 833 z "},"к":{"ha":833,"x_min":0,"x_max":764,"o":"m 0 0 l 0 694 l 278 694 l 278 486 l 347 486 l 347 556 l 417 556 l 417 625 l 486 625 l 486 694 l 764 694 l 764 556 l 694 556 l 694 486 l 625 486 l 625 417 l 556 417 l 556 278 l 625 278 l 625 208 l 694 208 l 694 139 l 764 139 l 764 0 l 486 0 l 486 69 l 417 69 l 417 139 l 347 139 l 347 208 l 278 208 l 278 0 l 0 0 l 0 0 z "},"л":{"ha":833,"x_min":0,"x_max":764,"o":"m 278 0 l 0 0 l 0 417 l 69 417 l 69 486 l 139 486 l 139 556 l 208 556 l 208 625 l 278 625 l 278 694 l 764 694 l 764 0 l 486 0 l 486 486 l 417 486 l 417 417 l 347 417 l 347 347 l 278 347 l 278 0 l 278 0 z "},"м":{"ha":972,"x_min":0,"x_max":903,"o":"m 486 278 l 486 208 l 417 208 l 417 278 l 347 278 l 347 347 l 278 347 l 278 0 l 0 0 l 0 694 l 278 694 l 278 625 l 347 625 l 347 556 l 417 556 l 417 486 l 486 486 l 486 556 l 556 556 l 556 625 l 625 625 l 625 694 l 903 694 l 903 0 l 625 0 l 625 347 l 556 347 l 556 278 l 486 278 l 486 278 z "},"н":{"ha":833,"x_min":0,"x_max":764,"o":"m 0 0 l 0 694 l 278 694 l 278 417 l 486 417 l 486 694 l 764 694 l 764 0 l 486 0 l 486 278 l 278 278 l 278 0 l 0 0 l 0 0 z "},"о":{"ha":833,"x_min":0,"x_max":764,"o":"m 694 69 l 694 0 l 69 0 l 69 69 l 0 69 l 0 625 l 69 625 l 69 694 l 694 694 l 694 625 l 764 625 l 764 69 l 694 69 m 278 139 l 486 139 l 486 556 l 278 556 l 278 139 z "},"п":{"ha":833,"x_min":0,"x_max":764,"o":"m 0 0 l 0 694 l 764 694 l 764 0 l 486 0 l 486 556 l 278 556 l 278 0 l 0 0 l 0 0 z "},"р":{"ha":833,"x_min":0,"x_max":764,"o":"m 486 556 l 278 556 l 278 417 l 486 417 l 486 556 m 278 0 l 0 0 l 0 694 l 694 694 l 694 625 l 764 625 l 764 347 l 694 347 l 694 278 l 278 278 l 278 0 z "},"с":{"ha":833,"x_min":0,"x_max":764,"o":"m 278 556 l 278 139 l 486 139 l 486 278 l 764 278 l 764 69 l 694 69 l 694 0 l 69 0 l 69 69 l 0 69 l 0 625 l 69 625 l 69 694 l 694 694 l 694 625 l 764 625 l 764 417 l 486 417 l 486 556 l 278 556 l 278 556 z "},"т":{"ha":764,"x_min":0,"x_max":694,"o":"m 0 694 l 694 694 l 694 556 l 486 556 l 486 0 l 208 0 l 208 556 l 0 556 l 0 694 l 0 694 z "},"у":{"ha":833,"x_min":0,"x_max":764,"o":"m 0 139 l 486 139 l 486 278 l 69 278 l 69 347 l 0 347 l 0 694 l 278 694 l 278 417 l 486 417 l 486 694 l 764 694 l 764 69 l 694 69 l 694 0 l 0 0 l 0 139 l 0 139 z "},"ф":{"ha":1181,"x_min":0,"x_max":1111,"o":"m 1042 694 l 1042 625 l 1111 625 l 1111 139 l 1042 139 l 1042 69 l 694 69 l 694 0 l 417 0 l 417 69 l 69 69 l 69 139 l 0 139 l 0 625 l 69 625 l 69 694 l 1042 694 m 417 208 l 417 556 l 278 556 l 278 208 l 417 208 m 833 556 l 694 556 l 694 208 l 833 208 l 833 556 z "},"х":{"ha":833,"x_min":0,"x_max":764,"o":"m 347 556 l 347 486 l 417 486 l 417 556 l 486 556 l 486 625 l 556 625 l 556 694 l 764 694 l 764 486 l 694 486 l 694 417 l 625 417 l 625 278 l 694 278 l 694 208 l 764 208 l 764 0 l 556 0 l 556 69 l 486 69 l 486 139 l 417 139 l 417 208 l 347 208 l 347 139 l 278 139 l 278 69 l 208 69 l 208 0 l 0 0 l 0 208 l 69 208 l 69 278 l 139 278 l 139 417 l 69 417 l 69 486 l 0 486 l 0 694 l 208 694 l 208 625 l 278 625 l 278 556 l 347 556 l 347 556 z "},"ц":{"ha":903,"x_min":0,"x_max":833,"o":"m 764 694 l 764 139 l 833 139 l 833 -139 l 556 -139 l 556 0 l 0 0 l 0 694 l 278 694 l 278 139 l 486 139 l 486 694 l 764 694 l 764 694 z "},"ч":{"ha":833,"x_min":0,"x_max":764,"o":"m 764 694 l 764 0 l 486 0 l 486 278 l 69 278 l 69 347 l 0 347 l 0 694 l 278 694 l 278 417 l 486 417 l 486 694 l 764 694 l 764 694 z "},"ш":{"ha":1319,"x_min":0,"x_max":1250,"o":"m 278 139 l 486 139 l 486 694 l 764 694 l 764 139 l 972 139 l 972 694 l 1250 694 l 1250 0 l 0 0 l 0 694 l 278 694 l 278 139 l 278 139 z "},"щ":{"ha":1389,"x_min":0,"x_max":1319,"o":"m 1250 694 l 1250 139 l 1319 139 l 1319 -139 l 1042 -139 l 1042 0 l 0 0 l 0 694 l 278 694 l 278 139 l 486 139 l 486 694 l 764 694 l 764 139 l 972 139 l 972 694 l 1250 694 l 1250 694 z "},"ъ":{"ha":972,"x_min":0,"x_max":903,"o":"m 0 556 l 0 694 l 417 694 l 417 417 l 833 417 l 833 347 l 903 347 l 903 69 l 833 69 l 833 0 l 139 0 l 139 556 l 0 556 m 417 278 l 417 139 l 625 139 l 625 278 l 417 278 z "},"ы":{"ha":1181,"x_min":0,"x_max":1111,"o":"m 0 694 l 278 694 l 278 417 l 694 417 l 694 347 l 764 347 l 764 69 l 694 69 l 694 0 l 0 0 l 0 694 m 278 139 l 486 139 l 486 278 l 278 278 l 278 139 m 1111 694 l 1111 0 l 833 0 l 833 694 l 1111 694 z "},"ь":{"ha":833,"x_min":0,"x_max":764,"o":"m 0 694 l 278 694 l 278 417 l 694 417 l 694 347 l 764 347 l 764 69 l 694 69 l 694 0 l 0 0 l 0 694 m 278 139 l 486 139 l 486 278 l 278 278 l 278 139 z "},"э":{"ha":833,"x_min":0,"x_max":764,"o":"m 0 69 l 0 278 l 278 278 l 278 417 l 0 417 l 0 625 l 69 625 l 69 694 l 694 694 l 694 625 l 764 625 l 764 69 l 694 69 l 694 0 l 69 0 l 69 69 l 0 69 m 486 278 l 278 278 l 278 139 l 486 139 l 486 278 m 486 556 l 278 556 l 278 417 l 486 417 l 486 556 z "},"ю":{"ha":1250,"x_min":0,"x_max":1181,"o":"m 0 0 l 0 694 l 278 694 l 278 417 l 417 417 l 417 625 l 486 625 l 486 694 l 1111 694 l 1111 625 l 1181 625 l 1181 69 l 1111 69 l 1111 0 l 486 0 l 486 69 l 417 69 l 417 278 l 278 278 l 278 0 l 0 0 m 694 139 l 903 139 l 903 556 l 694 556 l 694 139 z "},"я":{"ha":833,"x_min":0,"x_max":764,"o":"m 139 278 l 69 278 l 69 347 l 0 347 l 0 625 l 69 625 l 69 694 l 764 694 l 764 0 l 486 0 l 486 208 l 417 208 l 417 139 l 347 139 l 347 69 l 278 69 l 278 0 l 0 0 l 0 139 l 69 139 l 69 208 l 139 208 l 139 278 m 486 417 l 486 556 l 278 556 l 278 417 l 486 417 z "},"ѐ":{"ha":833,"x_min":0,"x_max":764,"o":"m 417 903 l 486 903 l 486 764 l 347 764 l 347 833 l 278 833 l 278 903 l 208 903 l 208 1042 l 347 1042 l 347 972 l 417 972 l 417 903 m 278 417 l 486 417 l 486 278 l 278 278 l 278 139 l 764 139 l 764 0 l 69 0 l 69 69 l 0 69 l 0 625 l 69 625 l 69 694 l 764 694 l 764 556 l 278 556 l 278 417 z "},"ё":{"ha":833,"x_min":0,"x_max":764,"o":"m 69 833 l 69 1042 l 278 1042 l 278 833 l 69 833 m 486 833 l 486 1042 l 694 1042 l 694 833 l 486 833 m 278 417 l 486 417 l 486 278 l 278 278 l 278 139 l 764 139 l 764 0 l 69 0 l 69 69 l 0 69 l 0 625 l 69 625 l 69 694 l 764 694 l 764 556 l 278 556 l 278 417 z "},"ђ":{"ha":972,"x_min":0,"x_max":903,"o":"m 486 0 l 486 139 l 625 139 l 625 278 l 417 278 l 417 0 l 139 0 l 139 556 l 0 556 l 0 694 l 556 694 l 556 556 l 417 556 l 417 417 l 833 417 l 833 347 l 903 347 l 903 69 l 833 69 l 833 0 l 486 0 l 486 0 z "},"ѓ":{"ha":833,"x_min":0,"x_max":764,"o":"m 278 556 l 278 0 l 0 0 l 0 694 l 764 694 l 764 556 l 278 556 m 278 903 l 347 903 l 347 972 l 417 972 l 417 1042 l 556 1042 l 556 903 l 486 903 l 486 833 l 417 833 l 417 764 l 278 764 l 278 903 z "},"є":{"ha":833,"x_min":0,"x_max":764,"o":"m 486 278 l 764 278 l 764 69 l 694 69 l 694 0 l 69 0 l 69 69 l 0 69 l 0 625 l 69 625 l 69 694 l 694 694 l 694 625 l 764 625 l 764 417 l 486 417 l 486 556 l 278 556 l 278 417 l 486 417 l 486 278 l 278 278 l 278 139 l 486 139 l 486 278 z "},"ѕ":{"ha":833,"x_min":0,"x_max":764,"o":"m 486 278 l 69 278 l 69 347 l 0 347 l 0 625 l 69 625 l 69 694 l 764 694 l 764 556 l 278 556 l 278 417 l 694 417 l 694 347 l 764 347 l 764 69 l 694 69 l 694 0 l 0 0 l 0 139 l 486 139 l 486 278 l 486 278 z "},"і":{"ha":764,"x_min":0,"x_max":694,"o":"m 0 694 l 694 694 l 694 556 l 486 556 l 486 139 l 694 139 l 694 0 l 0 0 l 0 139 l 208 139 l 208 556 l 0 556 l 0 694 l 0 694 z "},"ї":{"ha":764,"x_min":0,"x_max":694,"o":"m 417 833 l 417 1042 l 625 1042 l 625 833 l 417 833 m 69 833 l 69 1042 l 278 1042 l 278 833 l 69 833 m 0 694 l 694 694 l 694 556 l 486 556 l 486 139 l 694 139 l 694 0 l 0 0 l 0 139 l 208 139 l 208 556 l 0 556 l 0 694 z "},"ј":{"ha":833,"x_min":0,"x_max":764,"o":"m 278 278 l 278 139 l 486 139 l 486 694 l 764 694 l 764 69 l 694 69 l 694 0 l 69 0 l 69 69 l 0 69 l 0 278 l 278 278 l 278 278 z "},"љ":{"ha":1319,"x_min":0,"x_max":1250,"o":"m 0 0 l 0 417 l 69 417 l 69 486 l 139 486 l 139 556 l 208 556 l 208 625 l 278 625 l 278 694 l 764 694 l 764 417 l 1181 417 l 1181 347 l 1250 347 l 1250 69 l 1181 69 l 1181 0 l 486 0 l 486 486 l 417 486 l 417 417 l 347 417 l 347 347 l 278 347 l 278 0 l 0 0 m 972 139 l 972 278 l 764 278 l 764 139 l 972 139 z "},"њ":{"ha":1319,"x_min":0,"x_max":1250,"o":"m 764 278 l 764 139 l 972 139 l 972 278 l 764 278 m 486 417 l 486 694 l 764 694 l 764 417 l 1181 417 l 1181 347 l 1250 347 l 1250 69 l 1181 69 l 1181 0 l 486 0 l 486 278 l 278 278 l 278 0 l 0 0 l 0 694 l 278 694 l 278 417 l 486 417 z "},"ћ":{"ha":972,"x_min":0,"x_max":903,"o":"m 0 694 l 556 694 l 556 556 l 417 556 l 417 417 l 833 417 l 833 347 l 903 347 l 903 0 l 625 0 l 625 278 l 417 278 l 417 0 l 139 0 l 139 556 l 0 556 l 0 694 l 0 694 z "},"ќ":{"ha":833,"x_min":0,"x_max":764,"o":"m 278 694 l 278 486 l 347 486 l 347 556 l 417 556 l 417 625 l 486 625 l 486 694 l 764 694 l 764 556 l 694 556 l 694 486 l 625 486 l 625 417 l 556 417 l 556 278 l 625 278 l 625 208 l 694 208 l 694 139 l 764 139 l 764 0 l 486 0 l 486 69 l 417 69 l 417 139 l 347 139 l 347 208 l 278 208 l 278 0 l 0 0 l 0 694 l 278 694 m 278 903 l 347 903 l 347 972 l 417 972 l 417 1042 l 556 1042 l 556 903 l 486 903 l 486 833 l 417 833 l 417 764 l 278 764 l 278 903 z "},"ѝ":{"ha":833,"x_min":0,"x_max":764,"o":"m 417 903 l 486 903 l 486 764 l 347 764 l 347 833 l 278 833 l 278 903 l 208 903 l 208 1042 l 347 1042 l 347 972 l 417 972 l 417 903 m 417 208 l 417 139 l 347 139 l 347 69 l 278 69 l 278 0 l 0 0 l 0 694 l 278 694 l 278 347 l 347 347 l 347 417 l 417 417 l 417 486 l 486 486 l 486 694 l 764 694 l 764 0 l 486 0 l 486 208 l 417 208 z "},"ў":{"ha":833,"x_min":0,"x_max":764,"o":"m 139 833 l 139 972 l 278 972 l 278 903 l 486 903 l 486 972 l 625 972 l 625 833 l 556 833 l 556 764 l 208 764 l 208 833 l 139 833 m 0 139 l 486 139 l 486 278 l 69 278 l 69 347 l 0 347 l 0 694 l 278 694 l 278 417 l 486 417 l 486 694 l 764 694 l 764 69 l 694 69 l 694 0 l 0 0 l 0 139 z "},"џ":{"ha":833,"x_min":0,"x_max":764,"o":"m 764 0 l 486 0 l 486 -139 l 278 -139 l 278 0 l 0 0 l 0 694 l 278 694 l 278 139 l 486 139 l 486 694 l 764 694 l 764 0 l 764 0 z "},"Ѣ":{"ha":972,"x_min":0,"x_max":903,"o":"m 0 486 l 0 625 l 139 625 l 139 694 l 417 694 l 417 625 l 556 625 l 556 486 l 417 486 l 417 417 l 833 417 l 833 347 l 903 347 l 903 69 l 833 69 l 833 0 l 139 0 l 139 486 l 0 486 m 417 278 l 417 139 l 625 139 l 625 278 l 417 278 z "},"ѣ":{"ha":972,"x_min":0,"x_max":903,"o":"m 0 486 l 0 625 l 139 625 l 139 694 l 417 694 l 417 625 l 556 625 l 556 486 l 417 486 l 417 417 l 833 417 l 833 347 l 903 347 l 903 69 l 833 69 l 833 0 l 139 0 l 139 486 l 0 486 m 417 278 l 417 139 l 625 139 l 625 278 l 417 278 z "},"Ѳ":{"ha":833,"x_min":0,"x_max":764,"o":"m 278 556 l 278 417 l 486 417 l 486 556 l 278 556 m 486 139 l 486 278 l 278 278 l 278 139 l 486 139 m 694 69 l 694 0 l 69 0 l 69 69 l 0 69 l 0 625 l 69 625 l 69 694 l 694 694 l 694 625 l 764 625 l 764 69 l 694 69 z "},"ѳ":{"ha":833,"x_min":0,"x_max":764,"o":"m 278 556 l 278 417 l 486 417 l 486 556 l 278 556 m 486 139 l 486 278 l 278 278 l 278 139 l 486 139 m 694 69 l 694 0 l 69 0 l 69 69 l 0 69 l 0 625 l 69 625 l 69 694 l 694 694 l 694 625 l 764 625 l 764 69 l 694 69 z "},"Ѵ":{"ha":833,"x_min":0,"x_max":764,"o":"m 486 694 l 764 694 l 764 278 l 694 278 l 694 208 l 625 208 l 625 139 l 556 139 l 556 69 l 486 69 l 486 0 l 0 0 l 0 694 l 278 694 l 278 208 l 347 208 l 347 278 l 417 278 l 417 347 l 486 347 l 486 694 l 486 694 z "},"ѵ":{"ha":833,"x_min":0,"x_max":764,"o":"m 486 694 l 764 694 l 764 278 l 694 278 l 694 208 l 625 208 l 625 139 l 556 139 l 556 69 l 486 69 l 486 0 l 0 0 l 0 694 l 278 694 l 278 208 l 347 208 l 347 278 l 417 278 l 417 347 l 486 347 l 486 694 l 486 694 z "},"Ґ":{"ha":833,"x_min":0,"x_max":764,"o":"m 486 694 l 486 833 l 764 833 l 764 556 l 278 556 l 278 0 l 0 0 l 0 694 l 486 694 l 486 694 z "},"ґ":{"ha":833,"x_min":0,"x_max":764,"o":"m 486 694 l 486 833 l 764 833 l 764 556 l 278 556 l 278 0 l 0 0 l 0 694 l 486 694 l 486 694 z "},"Ẁ":{"ha":972,"x_min":0,"x_max":903,"o":"m 486 903 l 556 903 l 556 764 l 417 764 l 417 833 l 347 833 l 347 903 l 278 903 l 278 1042 l 417 1042 l 417 972 l 486 972 l 486 903 m 556 417 l 556 347 l 625 347 l 625 694 l 903 694 l 903 0 l 625 0 l 625 69 l 556 69 l 556 139 l 486 139 l 486 208 l 417 208 l 417 139 l 347 139 l 347 69 l 278 69 l 278 0 l 0 0 l 0 694 l 278 694 l 278 347 l 347 347 l 347 417 l 417 417 l 417 486 l 486 486 l 486 417 l 556 417 z "},"ẁ":{"ha":972,"x_min":0,"x_max":903,"o":"m 486 903 l 556 903 l 556 764 l 417 764 l 417 833 l 347 833 l 347 903 l 278 903 l 278 1042 l 417 1042 l 417 972 l 486 972 l 486 903 m 556 417 l 556 347 l 625 347 l 625 694 l 903 694 l 903 0 l 625 0 l 625 69 l 556 69 l 556 139 l 486 139 l 486 208 l 417 208 l 417 139 l 347 139 l 347 69 l 278 69 l 278 0 l 0 0 l 0 694 l 278 694 l 278 347 l 347 347 l 347 417 l 417 417 l 417 486 l 486 486 l 486 417 l 556 417 z "},"Ẃ":{"ha":972,"x_min":0,"x_max":903,"o":"m 486 486 l 486 417 l 556 417 l 556 347 l 625 347 l 625 694 l 903 694 l 903 0 l 625 0 l 625 69 l 556 69 l 556 139 l 486 139 l 486 208 l 417 208 l 417 139 l 347 139 l 347 69 l 278 69 l 278 0 l 0 0 l 0 694 l 278 694 l 278 347 l 347 347 l 347 417 l 417 417 l 417 486 l 486 486 m 347 903 l 417 903 l 417 972 l 486 972 l 486 1042 l 625 1042 l 625 903 l 556 903 l 556 833 l 486 833 l 486 764 l 347 764 l 347 903 z "},"ẃ":{"ha":972,"x_min":0,"x_max":903,"o":"m 486 486 l 486 417 l 556 417 l 556 347 l 625 347 l 625 694 l 903 694 l 903 0 l 625 0 l 625 69 l 556 69 l 556 139 l 486 139 l 486 208 l 417 208 l 417 139 l 347 139 l 347 69 l 278 69 l 278 0 l 0 0 l 0 694 l 278 694 l 278 347 l 347 347 l 347 417 l 417 417 l 417 486 l 486 486 m 347 903 l 417 903 l 417 972 l 486 972 l 486 1042 l 625 1042 l 625 903 l 556 903 l 556 833 l 486 833 l 486 764 l 347 764 l 347 903 z "},"Ẅ":{"ha":972,"x_min":0,"x_max":903,"o":"m 556 833 l 556 1042 l 764 1042 l 764 833 l 556 833 m 139 833 l 139 1042 l 347 1042 l 347 833 l 139 833 m 556 417 l 556 347 l 625 347 l 625 694 l 903 694 l 903 0 l 625 0 l 625 69 l 556 69 l 556 139 l 486 139 l 486 208 l 417 208 l 417 139 l 347 139 l 347 69 l 278 69 l 278 0 l 0 0 l 0 694 l 278 694 l 278 347 l 347 347 l 347 417 l 417 417 l 417 486 l 486 486 l 486 417 l 556 417 z "},"ẅ":{"ha":972,"x_min":0,"x_max":903,"o":"m 556 833 l 556 1042 l 764 1042 l 764 833 l 556 833 m 139 833 l 139 1042 l 347 1042 l 347 833 l 139 833 m 556 417 l 556 347 l 625 347 l 625 694 l 903 694 l 903 0 l 625 0 l 625 69 l 556 69 l 556 139 l 486 139 l 486 208 l 417 208 l 417 139 l 347 139 l 347 69 l 278 69 l 278 0 l 0 0 l 0 694 l 278 694 l 278 347 l 347 347 l 347 417 l 417 417 l 417 486 l 486 486 l 486 417 l 556 417 z "},"Ỳ":{"ha":903,"x_min":0,"x_max":833,"o":"m 417 903 l 486 903 l 486 764 l 347 764 l 347 833 l 278 833 l 278 903 l 208 903 l 208 1042 l 347 1042 l 347 972 l 417 972 l 417 903 m 556 694 l 833 694 l 833 417 l 764 417 l 764 347 l 694 347 l 694 278 l 556 278 l 556 0 l 278 0 l 278 278 l 139 278 l 139 347 l 69 347 l 69 417 l 0 417 l 0 694 l 278 694 l 278 486 l 347 486 l 347 417 l 486 417 l 486 486 l 556 486 l 556 694 z "},"ỳ":{"ha":903,"x_min":0,"x_max":833,"o":"m 417 903 l 486 903 l 486 764 l 347 764 l 347 833 l 278 833 l 278 903 l 208 903 l 208 1042 l 347 1042 l 347 972 l 417 972 l 417 903 m 556 694 l 833 694 l 833 417 l 764 417 l 764 347 l 694 347 l 694 278 l 556 278 l 556 0 l 278 0 l 278 278 l 139 278 l 139 347 l 69 347 l 69 417 l 0 417 l 0 694 l 278 694 l 278 486 l 347 486 l 347 417 l 486 417 l 486 486 l 556 486 l 556 694 z "},"⁺":{"ha":486,"x_min":0,"x_max":417,"o":"m 0 486 l 0 556 l 139 556 l 139 625 l 278 625 l 278 556 l 417 556 l 417 486 l 278 486 l 278 417 l 139 417 l 139 486 l 0 486 l 0 486 z "},"⁻":{"ha":486,"x_min":0,"x_max":417,"o":"m 0 486 l 0 556 l 417 556 l 417 486 l 0 486 l 0 486 z "},"⁼":{"ha":486,"x_min":0,"x_max":417,"o":"m 0 417 l 0 486 l 417 486 l 417 417 l 0 417 m 0 556 l 0 625 l 417 625 l 417 556 l 0 556 z "},"₊":{"ha":486,"x_min":0,"x_max":417,"o":"m 0 139 l 0 208 l 139 208 l 139 278 l 278 278 l 278 208 l 417 208 l 417 139 l 278 139 l 278 69 l 139 69 l 139 139 l 0 139 l 0 139 z "},"₋":{"ha":486,"x_min":0,"x_max":417,"o":"m 0 139 l 0 208 l 417 208 l 417 139 l 0 139 l 0 139 z "},"₌":{"ha":486,"x_min":0,"x_max":417,"o":"m 0 69 l 0 139 l 417 139 l 417 69 l 0 69 m 0 208 l 0 278 l 417 278 l 417 208 l 0 208 z "},"∑":{"ha":833,"x_min":0,"x_max":0,"o":""},"≈":{"ha":833,"x_min":0,"x_max":0,"o":""},"≠":{"ha":833,"x_min":0,"x_max":0,"o":""},"´":{"ha":833,"x_min":278,"x_max":556,"o":"m 278 903 l 347 903 l 347 972 l 417 972 l 417 1042 l 556 1042 l 556 903 l 486 903 l 486 833 l 417 833 l 417 764 l 278 764 l 278 903 l 278 903 z "},"῾":{"ha":833,"x_min":278,"x_max":486,"o":"m 278 972 l 486 972 l 486 833 l 417 833 l 417 764 l 278 764 l 278 972 l 278 972 z "},"`":{"ha":833,"x_min":208,"x_max":486,"o":"m 417 903 l 486 903 l 486 764 l 347 764 l 347 833 l 278 833 l 278 903 l 208 903 l 208 1042 l 347 1042 l 347 972 l 417 972 l 417 903 l 417 903 z "},"῭":{"ha":833,"x_min":69,"x_max":694,"o":"m 417 903 l 486 903 l 486 764 l 347 764 l 347 833 l 278 833 l 278 903 l 208 903 l 208 1042 l 347 1042 l 347 972 l 417 972 l 417 903 m 694 903 l 694 764 l 556 764 l 556 903 l 694 903 m 69 903 l 69 903 l 69 903 l 69 903 m 69 903 l 208 903 l 208 764 l 69 764 l 69 903 l 69 903 z "},"΅":{"ha":833,"x_min":69,"x_max":694,"o":"m 556 764 l 556 903 l 694 903 l 694 764 l 556 764 m 69 764 l 69 903 l 208 903 l 208 764 l 69 764 m 278 903 l 347 903 l 347 972 l 417 972 l 417 1042 l 556 1042 l 556 903 l 486 903 l 486 833 l 417 833 l 417 764 l 278 764 l 278 903 z "},"῞":{"ha":833,"x_min":139,"x_max":694,"o":"m 139 972 l 347 972 l 347 833 l 278 833 l 278 764 l 139 764 l 139 972 m 417 903 l 486 903 l 486 972 l 556 972 l 556 1042 l 694 1042 l 694 903 l 625 903 l 625 833 l 556 833 l 556 764 l 417 764 l 417 903 z "},"῝":{"ha":833,"x_min":139,"x_max":694,"o":"m 625 903 l 694 903 l 694 764 l 556 764 l 556 833 l 486 833 l 486 903 l 417 903 l 417 1042 l 556 1042 l 556 972 l 625 972 l 625 903 m 347 833 l 278 833 l 278 764 l 139 764 l 139 972 l 347 972 l 347 833 z "},"᾽":{"ha":833,"x_min":278,"x_max":486,"o":"m 278 972 l 486 972 l 486 764 l 347 764 l 347 833 l 278 833 l 278 972 l 278 972 z "},"᾿":{"ha":833,"x_min":278,"x_max":486,"o":"m 278 972 l 486 972 l 486 764 l 347 764 l 347 833 l 278 833 l 278 972 l 278 972 z "},"ι":{"ha":833,"x_min":278,"x_max":556,"o":"m 278 -69 l 486 -69 l 486 -139 l 556 -139 l 556 -207 l 347 -207 l 347 -139 l 278 -139 l 278 -69 l 278 -69 z "},"῍":{"ha":833,"x_min":139,"x_max":694,"o":"m 347 764 l 208 764 l 208 833 l 139 833 l 139 972 l 347 972 l 347 764 m 625 903 l 694 903 l 694 764 l 556 764 l 556 833 l 486 833 l 486 903 l 417 903 l 417 1042 l 556 1042 l 556 972 l 625 972 l 625 903 z "},"῎":{"ha":833,"x_min":139,"x_max":694,"o":"m 417 903 l 486 903 l 486 972 l 556 972 l 556 1042 l 694 1042 l 694 903 l 625 903 l 625 833 l 556 833 l 556 764 l 417 764 l 417 903 m 139 972 l 347 972 l 347 764 l 208 764 l 208 833 l 139 833 l 139 972 z "},"῏":{"ha":833,"x_min":139,"x_max":625,"o":"m 486 764 l 347 764 l 347 833 l 278 833 l 278 903 l 486 903 l 486 764 m 139 972 l 208 972 l 208 1042 l 278 1042 l 278 1111 l 347 1111 l 347 1181 l 417 1181 l 417 1111 l 486 1111 l 486 1042 l 556 1042 l 556 972 l 625 972 l 625 903 l 486 903 l 486 972 l 417 972 l 417 1042 l 347 1042 l 347 972 l 278 972 l 278 903 l 139 903 l 139 972 z "},"῟":{"ha":833,"x_min":139,"x_max":625,"o":"m 278 903 l 486 903 l 486 833 l 417 833 l 417 764 l 278 764 l 278 903 m 139 972 l 208 972 l 208 1042 l 278 1042 l 278 1111 l 347 1111 l 347 1181 l 417 1181 l 417 1111 l 486 1111 l 486 1042 l 556 1042 l 556 972 l 625 972 l 625 903 l 486 903 l 486 972 l 417 972 l 417 1042 l 347 1042 l 347 972 l 278 972 l 278 903 l 139 903 l 139 972 z "},"῀":{"ha":833,"x_min":139,"x_max":625,"o":"m 139 833 l 208 833 l 208 903 l 278 903 l 278 972 l 347 972 l 347 1042 l 417 1042 l 417 972 l 486 972 l 486 903 l 556 903 l 556 833 l 625 833 l 625 764 l 486 764 l 486 833 l 417 833 l 417 903 l 347 903 l 347 833 l 278 833 l 278 764 l 139 764 l 139 833 l 139 833 z "},"῁":{"ha":833,"x_min":139,"x_max":625,"o":"m 139 972 l 208 972 l 208 1042 l 278 1042 l 278 1111 l 347 1111 l 347 1181 l 417 1181 l 417 1111 l 486 1111 l 486 1042 l 556 1042 l 556 972 l 625 972 l 625 903 l 486 903 l 486 972 l 417 972 l 417 1042 l 347 1042 l 347 972 l 278 972 l 278 903 l 139 903 l 139 972 m 278 833 l 278 764 l 139 764 l 139 833 l 278 833 m 625 833 l 625 764 l 486 764 l 486 833 l 625 833 z "},"ἀ":{"ha":833,"x_min":0,"x_max":764,"o":"m 278 972 l 486 972 l 486 764 l 347 764 l 347 833 l 278 833 l 278 972 m 0 625 l 69 625 l 69 694 l 694 694 l 694 625 l 764 625 l 764 0 l 486 0 l 486 278 l 278 278 l 278 0 l 0 0 l 0 625 m 278 417 l 486 417 l 486 556 l 278 556 l 278 417 z "},"ἐ":{"ha":833,"x_min":0,"x_max":764,"o":"m 278 972 l 486 972 l 486 764 l 347 764 l 347 833 l 278 833 l 278 972 m 486 278 l 278 278 l 278 139 l 764 139 l 764 0 l 69 0 l 69 69 l 0 69 l 0 625 l 69 625 l 69 694 l 764 694 l 764 556 l 278 556 l 278 417 l 486 417 l 486 278 z "},"ἠ":{"ha":833,"x_min":0,"x_max":764,"o":"m 278 972 l 486 972 l 486 764 l 347 764 l 347 833 l 278 833 l 278 972 m 278 694 l 278 417 l 486 417 l 486 694 l 764 694 l 764 0 l 486 0 l 486 278 l 278 278 l 278 0 l 0 0 l 0 694 l 278 694 z "},"ἰ":{"ha":764,"x_min":0,"x_max":694,"o":"m 208 972 l 486 972 l 486 764 l 278 764 l 278 833 l 208 833 l 208 972 m 694 556 l 486 556 l 486 139 l 694 139 l 694 0 l 0 0 l 0 139 l 208 139 l 208 556 l 0 556 l 0 694 l 694 694 l 694 556 z "},"ὀ":{"ha":833,"x_min":0,"x_max":764,"o":"m 278 972 l 486 972 l 486 764 l 347 764 l 347 833 l 278 833 l 278 972 m 486 556 l 278 556 l 278 139 l 486 139 l 486 556 m 69 0 l 69 69 l 0 69 l 0 625 l 69 625 l 69 694 l 694 694 l 694 625 l 764 625 l 764 69 l 694 69 l 694 0 l 69 0 z "},"ὐ":{"ha":903,"x_min":0,"x_max":833,"o":"m 278 972 l 556 972 l 556 764 l 347 764 l 347 833 l 278 833 l 278 972 m 833 486 l 764 486 l 764 417 l 694 417 l 694 347 l 625 347 l 625 278 l 556 278 l 556 0 l 278 0 l 278 278 l 208 278 l 208 347 l 139 347 l 139 417 l 69 417 l 69 486 l 0 486 l 0 694 l 208 694 l 208 625 l 278 625 l 278 556 l 347 556 l 347 486 l 486 486 l 486 556 l 556 556 l 556 625 l 625 625 l 625 694 l 833 694 l 833 486 z "},"ὠ":{"ha":833,"x_min":0,"x_max":764,"o":"m 278 972 l 486 972 l 486 764 l 347 764 l 347 833 l 278 833 l 278 972 m 347 0 l 0 0 l 0 139 l 69 139 l 69 208 l 0 208 l 0 625 l 69 625 l 69 694 l 694 694 l 694 625 l 764 625 l 764 208 l 694 208 l 694 139 l 764 139 l 764 0 l 417 0 l 417 208 l 486 208 l 486 556 l 278 556 l 278 208 l 347 208 l 347 0 z "},"ῲ":{"ha":833,"x_min":0,"x_max":764,"o":"m 278 208 l 347 208 l 347 0 l 0 0 l 0 139 l 69 139 l 69 208 l 0 208 l 0 625 l 69 625 l 69 694 l 694 694 l 694 625 l 764 625 l 764 208 l 694 208 l 694 139 l 764 139 l 764 0 l 417 0 l 417 208 l 486 208 l 486 556 l 278 556 l 278 208 m 278 -69 l 486 -69 l 486 -139 l 556 -139 l 556 -207 l 347 -207 l 347 -139 l 278 -139 l 278 -69 m 417 903 l 486 903 l 486 764 l 347 764 l 347 833 l 278 833 l 278 903 l 208 903 l 208 1042 l 347 1042 l 347 972 l 417 972 l 417 903 z "},"ἑ":{"ha":833,"x_min":0,"x_max":764,"o":"m 278 417 l 486 417 l 486 278 l 278 278 l 278 139 l 764 139 l 764 0 l 69 0 l 69 69 l 0 69 l 0 625 l 69 625 l 69 694 l 764 694 l 764 556 l 278 556 l 278 417 m 278 972 l 486 972 l 486 833 l 417 833 l 417 764 l 278 764 l 278 972 z "},"ἒ":{"ha":833,"x_min":0,"x_max":764,"o":"m 278 417 l 486 417 l 486 278 l 278 278 l 278 139 l 764 139 l 764 0 l 69 0 l 69 69 l 0 69 l 0 625 l 69 625 l 69 694 l 764 694 l 764 556 l 278 556 l 278 417 m 347 764 l 208 764 l 208 833 l 139 833 l 139 972 l 347 972 l 347 764 m 625 903 l 694 903 l 694 764 l 556 764 l 556 833 l 486 833 l 486 903 l 417 903 l 417 1042 l 556 1042 l 556 972 l 625 972 l 625 903 z "},"ἓ":{"ha":833,"x_min":0,"x_max":764,"o":"m 625 903 l 694 903 l 694 764 l 556 764 l 556 833 l 486 833 l 486 903 l 417 903 l 417 1042 l 556 1042 l 556 972 l 625 972 l 625 903 m 347 833 l 278 833 l 278 764 l 139 764 l 139 972 l 347 972 l 347 833 m 486 278 l 278 278 l 278 139 l 764 139 l 764 0 l 69 0 l 69 69 l 0 69 l 0 625 l 69 625 l 69 694 l 764 694 l 764 556 l 278 556 l 278 417 l 486 417 l 486 278 z "},"ἔ":{"ha":833,"x_min":0,"x_max":764,"o":"m 417 903 l 486 903 l 486 972 l 556 972 l 556 1042 l 694 1042 l 694 903 l 625 903 l 625 833 l 556 833 l 556 764 l 417 764 l 417 903 m 139 972 l 347 972 l 347 764 l 208 764 l 208 833 l 139 833 l 139 972 m 486 278 l 278 278 l 278 139 l 764 139 l 764 0 l 69 0 l 69 69 l 0 69 l 0 625 l 69 625 l 69 694 l 764 694 l 764 556 l 278 556 l 278 417 l 486 417 l 486 278 z "},"ἕ":{"ha":833,"x_min":0,"x_max":764,"o":"m 278 417 l 486 417 l 486 278 l 278 278 l 278 139 l 764 139 l 764 0 l 69 0 l 69 69 l 0 69 l 0 625 l 69 625 l 69 694 l 764 694 l 764 556 l 278 556 l 278 417 m 139 972 l 347 972 l 347 833 l 278 833 l 278 764 l 139 764 l 139 972 m 417 903 l 486 903 l 486 972 l 556 972 l 556 1042 l 694 1042 l 694 903 l 625 903 l 625 833 l 556 833 l 556 764 l 417 764 l 417 903 z "},"ἁ":{"ha":833,"x_min":0,"x_max":764,"o":"m 486 556 l 278 556 l 278 417 l 486 417 l 486 556 m 278 0 l 0 0 l 0 625 l 69 625 l 69 694 l 694 694 l 694 625 l 764 625 l 764 0 l 486 0 l 486 278 l 278 278 l 278 0 m 278 972 l 486 972 l 486 833 l 417 833 l 417 764 l 278 764 l 278 972 z "},"ἂ":{"ha":833,"x_min":0,"x_max":764,"o":"m 486 556 l 278 556 l 278 417 l 486 417 l 486 556 m 278 0 l 0 0 l 0 625 l 69 625 l 69 694 l 694 694 l 694 625 l 764 625 l 764 0 l 486 0 l 486 278 l 278 278 l 278 0 m 347 764 l 208 764 l 208 833 l 139 833 l 139 972 l 347 972 l 347 764 m 625 903 l 694 903 l 694 764 l 556 764 l 556 833 l 486 833 l 486 903 l 417 903 l 417 1042 l 556 1042 l 556 972 l 625 972 l 625 903 z "},"ἃ":{"ha":833,"x_min":0,"x_max":764,"o":"m 625 903 l 694 903 l 694 764 l 556 764 l 556 833 l 486 833 l 486 903 l 417 903 l 417 1042 l 556 1042 l 556 972 l 625 972 l 625 903 m 347 833 l 278 833 l 278 764 l 139 764 l 139 972 l 347 972 l 347 833 m 0 625 l 69 625 l 69 694 l 694 694 l 694 625 l 764 625 l 764 0 l 486 0 l 486 278 l 278 278 l 278 0 l 0 0 l 0 625 m 278 417 l 486 417 l 486 556 l 278 556 l 278 417 z "},"ἄ":{"ha":833,"x_min":0,"x_max":764,"o":"m 417 903 l 486 903 l 486 972 l 556 972 l 556 1042 l 694 1042 l 694 903 l 625 903 l 625 833 l 556 833 l 556 764 l 417 764 l 417 903 m 139 972 l 347 972 l 347 764 l 208 764 l 208 833 l 139 833 l 139 972 m 0 625 l 69 625 l 69 694 l 694 694 l 694 625 l 764 625 l 764 0 l 486 0 l 486 278 l 278 278 l 278 0 l 0 0 l 0 625 m 278 417 l 486 417 l 486 556 l 278 556 l 278 417 z "},"ἅ":{"ha":833,"x_min":0,"x_max":764,"o":"m 486 556 l 278 556 l 278 417 l 486 417 l 486 556 m 278 0 l 0 0 l 0 625 l 69 625 l 69 694 l 694 694 l 694 625 l 764 625 l 764 0 l 486 0 l 486 278 l 278 278 l 278 0 m 139 972 l 347 972 l 347 833 l 278 833 l 278 764 l 139 764 l 139 972 m 417 903 l 486 903 l 486 972 l 556 972 l 556 1042 l 694 1042 l 694 903 l 625 903 l 625 833 l 556 833 l 556 764 l 417 764 l 417 903 z "},"ἆ":{"ha":833,"x_min":0,"x_max":764,"o":"m 486 556 l 278 556 l 278 417 l 486 417 l 486 556 m 278 0 l 0 0 l 0 625 l 69 625 l 69 694 l 694 694 l 694 625 l 764 625 l 764 0 l 486 0 l 486 278 l 278 278 l 278 0 m 486 764 l 347 764 l 347 833 l 278 833 l 278 903 l 486 903 l 486 764 m 139 972 l 208 972 l 208 1042 l 278 1042 l 278 1111 l 347 1111 l 347 1181 l 417 1181 l 417 1111 l 486 1111 l 486 1042 l 556 1042 l 556 972 l 625 972 l 625 903 l 486 903 l 486 972 l 417 972 l 417 1042 l 347 1042 l 347 972 l 278 972 l 278 903 l 139 903 l 139 972 z "},"ἇ":{"ha":833,"x_min":0,"x_max":764,"o":"m 486 556 l 278 556 l 278 417 l 486 417 l 486 556 m 278 0 l 0 0 l 0 625 l 69 625 l 69 694 l 694 694 l 694 625 l 764 625 l 764 0 l 486 0 l 486 278 l 278 278 l 278 0 m 278 903 l 486 903 l 486 833 l 417 833 l 417 764 l 278 764 l 278 903 m 139 972 l 208 972 l 208 1042 l 278 1042 l 278 1111 l 347 1111 l 347 1181 l 417 1181 l 417 1111 l 486 1111 l 486 1042 l 556 1042 l 556 972 l 625 972 l 625 903 l 486 903 l 486 972 l 417 972 l 417 1042 l 347 1042 l 347 972 l 278 972 l 278 903 l 139 903 l 139 972 z "},"ἡ":{"ha":833,"x_min":0,"x_max":764,"o":"m 0 0 l 0 694 l 278 694 l 278 417 l 486 417 l 486 694 l 764 694 l 764 0 l 486 0 l 486 278 l 278 278 l 278 0 l 0 0 m 278 972 l 486 972 l 486 833 l 417 833 l 417 764 l 278 764 l 278 972 z "},"ἢ":{"ha":833,"x_min":0,"x_max":764,"o":"m 0 0 l 0 694 l 278 694 l 278 417 l 486 417 l 486 694 l 764 694 l 764 0 l 486 0 l 486 278 l 278 278 l 278 0 l 0 0 m 347 764 l 208 764 l 208 833 l 139 833 l 139 972 l 347 972 l 347 764 m 625 903 l 694 903 l 694 764 l 556 764 l 556 833 l 486 833 l 486 903 l 417 903 l 417 1042 l 556 1042 l 556 972 l 625 972 l 625 903 z "},"ἣ":{"ha":833,"x_min":0,"x_max":764,"o":"m 625 903 l 694 903 l 694 764 l 556 764 l 556 833 l 486 833 l 486 903 l 417 903 l 417 1042 l 556 1042 l 556 972 l 625 972 l 625 903 m 347 833 l 278 833 l 278 764 l 139 764 l 139 972 l 347 972 l 347 833 m 278 694 l 278 417 l 486 417 l 486 694 l 764 694 l 764 0 l 486 0 l 486 278 l 278 278 l 278 0 l 0 0 l 0 694 l 278 694 z "},"ἤ":{"ha":833,"x_min":0,"x_max":764,"o":"m 417 903 l 486 903 l 486 972 l 556 972 l 556 1042 l 694 1042 l 694 903 l 625 903 l 625 833 l 556 833 l 556 764 l 417 764 l 417 903 m 139 972 l 347 972 l 347 764 l 208 764 l 208 833 l 139 833 l 139 972 m 278 694 l 278 417 l 486 417 l 486 694 l 764 694 l 764 0 l 486 0 l 486 278 l 278 278 l 278 0 l 0 0 l 0 694 l 278 694 z "},"ἥ":{"ha":833,"x_min":0,"x_max":764,"o":"m 0 0 l 0 694 l 278 694 l 278 417 l 486 417 l 486 694 l 764 694 l 764 0 l 486 0 l 486 278 l 278 278 l 278 0 l 0 0 m 139 972 l 347 972 l 347 833 l 278 833 l 278 764 l 139 764 l 139 972 m 417 903 l 486 903 l 486 972 l 556 972 l 556 1042 l 694 1042 l 694 903 l 625 903 l 625 833 l 556 833 l 556 764 l 417 764 l 417 903 z "},"ἦ":{"ha":833,"x_min":0,"x_max":764,"o":"m 0 0 l 0 694 l 278 694 l 278 417 l 486 417 l 486 694 l 764 694 l 764 0 l 486 0 l 486 278 l 278 278 l 278 0 l 0 0 m 486 764 l 347 764 l 347 833 l 278 833 l 278 903 l 486 903 l 486 764 m 139 972 l 208 972 l 208 1042 l 278 1042 l 278 1111 l 347 1111 l 347 1181 l 417 1181 l 417 1111 l 486 1111 l 486 1042 l 556 1042 l 556 972 l 625 972 l 625 903 l 486 903 l 486 972 l 417 972 l 417 1042 l 347 1042 l 347 972 l 278 972 l 278 903 l 139 903 l 139 972 z "},"ἧ":{"ha":833,"x_min":0,"x_max":764,"o":"m 0 0 l 0 694 l 278 694 l 278 417 l 486 417 l 486 694 l 764 694 l 764 0 l 486 0 l 486 278 l 278 278 l 278 0 l 0 0 m 278 903 l 486 903 l 486 833 l 417 833 l 417 764 l 278 764 l 278 903 m 139 972 l 208 972 l 208 1042 l 278 1042 l 278 1111 l 347 1111 l 347 1181 l 417 1181 l 417 1111 l 486 1111 l 486 1042 l 556 1042 l 556 972 l 625 972 l 625 903 l 486 903 l 486 972 l 417 972 l 417 1042 l 347 1042 l 347 972 l 278 972 l 278 903 l 139 903 l 139 972 z "},"ἱ":{"ha":764,"x_min":0,"x_max":694,"o":"m 0 694 l 694 694 l 694 556 l 486 556 l 486 139 l 694 139 l 694 0 l 0 0 l 0 139 l 208 139 l 208 556 l 0 556 l 0 694 m 208 972 l 486 972 l 486 833 l 417 833 l 417 764 l 208 764 l 208 972 z "},"ἲ":{"ha":764,"x_min":0,"x_max":694,"o":"m 0 694 l 694 694 l 694 556 l 486 556 l 486 139 l 694 139 l 694 0 l 0 0 l 0 139 l 208 139 l 208 556 l 0 556 l 0 694 m 278 764 l 139 764 l 139 833 l 69 833 l 69 972 l 278 972 l 278 764 m 556 903 l 625 903 l 625 764 l 486 764 l 486 833 l 417 833 l 417 903 l 347 903 l 347 1042 l 486 1042 l 486 972 l 556 972 l 556 903 z "},"ἳ":{"ha":764,"x_min":0,"x_max":694,"o":"m 556 903 l 625 903 l 625 764 l 486 764 l 486 833 l 417 833 l 417 903 l 347 903 l 347 1042 l 486 1042 l 486 972 l 556 972 l 556 903 m 278 833 l 208 833 l 208 764 l 69 764 l 69 972 l 278 972 l 278 833 m 694 556 l 486 556 l 486 139 l 694 139 l 694 0 l 0 0 l 0 139 l 208 139 l 208 556 l 0 556 l 0 694 l 694 694 l 694 556 z "},"ἴ":{"ha":764,"x_min":0,"x_max":694,"o":"m 347 903 l 417 903 l 417 972 l 486 972 l 486 1042 l 625 1042 l 625 903 l 556 903 l 556 833 l 486 833 l 486 764 l 347 764 l 347 903 m 69 972 l 278 972 l 278 764 l 139 764 l 139 833 l 69 833 l 69 972 m 694 556 l 486 556 l 486 139 l 694 139 l 694 0 l 0 0 l 0 139 l 208 139 l 208 556 l 0 556 l 0 694 l 694 694 l 694 556 z "},"ἵ":{"ha":764,"x_min":0,"x_max":694,"o":"m 0 694 l 694 694 l 694 556 l 486 556 l 486 139 l 694 139 l 694 0 l 0 0 l 0 139 l 208 139 l 208 556 l 0 556 l 0 694 m 69 972 l 278 972 l 278 833 l 208 833 l 208 764 l 69 764 l 69 972 m 347 903 l 417 903 l 417 972 l 486 972 l 486 1042 l 625 1042 l 625 903 l 556 903 l 556 833 l 486 833 l 486 764 l 347 764 l 347 903 z "},"ἶ":{"ha":764,"x_min":0,"x_max":694,"o":"m 0 694 l 694 694 l 694 556 l 486 556 l 486 139 l 694 139 l 694 0 l 0 0 l 0 139 l 208 139 l 208 556 l 0 556 l 0 694 m 486 764 l 278 764 l 278 833 l 208 833 l 208 903 l 486 903 l 486 764 m 69 972 l 139 972 l 139 1042 l 208 1042 l 208 1111 l 278 1111 l 278 1181 l 417 1181 l 417 1111 l 486 1111 l 486 1042 l 556 1042 l 556 972 l 625 972 l 625 903 l 486 903 l 486 972 l 417 972 l 417 1042 l 278 1042 l 278 972 l 208 972 l 208 903 l 69 903 l 69 972 z "},"ἷ":{"ha":764,"x_min":0,"x_max":694,"o":"m 0 694 l 694 694 l 694 556 l 486 556 l 486 139 l 694 139 l 694 0 l 0 0 l 0 139 l 208 139 l 208 556 l 0 556 l 0 694 m 208 903 l 486 903 l 486 833 l 417 833 l 417 764 l 208 764 l 208 903 m 69 972 l 139 972 l 139 1042 l 208 1042 l 208 1111 l 278 1111 l 278 1181 l 417 1181 l 417 1111 l 486 1111 l 486 1042 l 556 1042 l 556 972 l 625 972 l 625 903 l 486 903 l 486 972 l 417 972 l 417 1042 l 278 1042 l 278 972 l 208 972 l 208 903 l 69 903 l 69 972 z "},"ὁ":{"ha":833,"x_min":0,"x_max":764,"o":"m 694 69 l 694 0 l 69 0 l 69 69 l 0 69 l 0 625 l 69 625 l 69 694 l 694 694 l 694 625 l 764 625 l 764 69 l 694 69 m 278 139 l 486 139 l 486 556 l 278 556 l 278 139 m 278 972 l 486 972 l 486 833 l 417 833 l 417 764 l 278 764 l 278 972 z "},"ὂ":{"ha":833,"x_min":0,"x_max":764,"o":"m 694 69 l 694 0 l 69 0 l 69 69 l 0 69 l 0 625 l 69 625 l 69 694 l 694 694 l 694 625 l 764 625 l 764 69 l 694 69 m 278 139 l 486 139 l 486 556 l 278 556 l 278 139 m 347 764 l 208 764 l 208 833 l 139 833 l 139 972 l 347 972 l 347 764 m 625 903 l 694 903 l 694 764 l 556 764 l 556 833 l 486 833 l 486 903 l 417 903 l 417 1042 l 556 1042 l 556 972 l 625 972 l 625 903 z "},"ὃ":{"ha":833,"x_min":0,"x_max":764,"o":"m 625 903 l 694 903 l 694 764 l 556 764 l 556 833 l 486 833 l 486 903 l 417 903 l 417 1042 l 556 1042 l 556 972 l 625 972 l 625 903 m 347 833 l 278 833 l 278 764 l 139 764 l 139 972 l 347 972 l 347 833 m 486 556 l 278 556 l 278 139 l 486 139 l 486 556 m 69 0 l 69 69 l 0 69 l 0 625 l 69 625 l 69 694 l 694 694 l 694 625 l 764 625 l 764 69 l 694 69 l 694 0 l 69 0 z "},"ὄ":{"ha":833,"x_min":0,"x_max":764,"o":"m 417 903 l 486 903 l 486 972 l 556 972 l 556 1042 l 694 1042 l 694 903 l 625 903 l 625 833 l 556 833 l 556 764 l 417 764 l 417 903 m 139 972 l 347 972 l 347 764 l 208 764 l 208 833 l 139 833 l 139 972 m 486 556 l 278 556 l 278 139 l 486 139 l 486 556 m 69 0 l 69 69 l 0 69 l 0 625 l 69 625 l 69 694 l 694 694 l 694 625 l 764 625 l 764 69 l 694 69 l 694 0 l 69 0 z "},"ὅ":{"ha":833,"x_min":0,"x_max":764,"o":"m 694 69 l 694 0 l 69 0 l 69 69 l 0 69 l 0 625 l 69 625 l 69 694 l 694 694 l 694 625 l 764 625 l 764 69 l 694 69 m 278 139 l 486 139 l 486 556 l 278 556 l 278 139 m 139 972 l 347 972 l 347 833 l 278 833 l 278 764 l 139 764 l 139 972 m 417 903 l 486 903 l 486 972 l 556 972 l 556 1042 l 694 1042 l 694 903 l 625 903 l 625 833 l 556 833 l 556 764 l 417 764 l 417 903 z "},"ὑ":{"ha":903,"x_min":0,"x_max":833,"o":"m 625 694 l 833 694 l 833 486 l 764 486 l 764 417 l 694 417 l 694 347 l 625 347 l 625 278 l 556 278 l 556 0 l 278 0 l 278 278 l 208 278 l 208 347 l 139 347 l 139 417 l 69 417 l 69 486 l 0 486 l 0 694 l 208 694 l 208 625 l 278 625 l 278 556 l 347 556 l 347 486 l 486 486 l 486 556 l 556 556 l 556 625 l 625 625 l 625 694 m 278 972 l 556 972 l 556 833 l 486 833 l 486 764 l 278 764 l 278 972 z "},"ὒ":{"ha":903,"x_min":0,"x_max":833,"o":"m 625 694 l 833 694 l 833 486 l 764 486 l 764 417 l 694 417 l 694 347 l 625 347 l 625 278 l 556 278 l 556 0 l 278 0 l 278 278 l 208 278 l 208 347 l 139 347 l 139 417 l 69 417 l 69 486 l 0 486 l 0 694 l 208 694 l 208 625 l 278 625 l 278 556 l 347 556 l 347 486 l 486 486 l 486 556 l 556 556 l 556 625 l 625 625 l 625 694 m 347 764 l 208 764 l 208 833 l 139 833 l 139 972 l 347 972 l 347 764 m 625 903 l 694 903 l 694 764 l 556 764 l 556 833 l 486 833 l 486 903 l 417 903 l 417 1042 l 556 1042 l 556 972 l 625 972 l 625 903 z "},"ὓ":{"ha":903,"x_min":0,"x_max":833,"o":"m 625 903 l 694 903 l 694 764 l 556 764 l 556 833 l 486 833 l 486 903 l 417 903 l 417 1042 l 556 1042 l 556 972 l 625 972 l 625 903 m 347 833 l 278 833 l 278 764 l 139 764 l 139 972 l 347 972 l 347 833 m 833 486 l 764 486 l 764 417 l 694 417 l 694 347 l 625 347 l 625 278 l 556 278 l 556 0 l 278 0 l 278 278 l 208 278 l 208 347 l 139 347 l 139 417 l 69 417 l 69 486 l 0 486 l 0 694 l 208 694 l 208 625 l 278 625 l 278 556 l 347 556 l 347 486 l 486 486 l 486 556 l 556 556 l 556 625 l 625 625 l 625 694 l 833 694 l 833 486 z "},"ὔ":{"ha":903,"x_min":0,"x_max":833,"o":"m 417 903 l 486 903 l 486 972 l 556 972 l 556 1042 l 694 1042 l 694 903 l 625 903 l 625 833 l 556 833 l 556 764 l 417 764 l 417 903 m 139 972 l 347 972 l 347 764 l 208 764 l 208 833 l 139 833 l 139 972 m 833 486 l 764 486 l 764 417 l 694 417 l 694 347 l 625 347 l 625 278 l 556 278 l 556 0 l 278 0 l 278 278 l 208 278 l 208 347 l 139 347 l 139 417 l 69 417 l 69 486 l 0 486 l 0 694 l 208 694 l 208 625 l 278 625 l 278 556 l 347 556 l 347 486 l 486 486 l 486 556 l 556 556 l 556 625 l 625 625 l 625 694 l 833 694 l 833 486 z "},"ὕ":{"ha":903,"x_min":0,"x_max":833,"o":"m 625 694 l 833 694 l 833 486 l 764 486 l 764 417 l 694 417 l 694 347 l 625 347 l 625 278 l 556 278 l 556 0 l 278 0 l 278 278 l 208 278 l 208 347 l 139 347 l 139 417 l 69 417 l 69 486 l 0 486 l 0 694 l 208 694 l 208 625 l 278 625 l 278 556 l 347 556 l 347 486 l 486 486 l 486 556 l 556 556 l 556 625 l 625 625 l 625 694 m 139 972 l 347 972 l 347 833 l 278 833 l 278 764 l 139 764 l 139 972 m 417 903 l 486 903 l 486 972 l 556 972 l 556 1042 l 694 1042 l 694 903 l 625 903 l 625 833 l 556 833 l 556 764 l 417 764 l 417 903 z "},"ὖ":{"ha":903,"x_min":0,"x_max":833,"o":"m 625 694 l 833 694 l 833 486 l 764 486 l 764 417 l 694 417 l 694 347 l 625 347 l 625 278 l 556 278 l 556 0 l 278 0 l 278 278 l 208 278 l 208 347 l 139 347 l 139 417 l 69 417 l 69 486 l 0 486 l 0 694 l 208 694 l 208 625 l 278 625 l 278 556 l 347 556 l 347 486 l 486 486 l 486 556 l 556 556 l 556 625 l 625 625 l 625 694 m 556 764 l 347 764 l 347 833 l 278 833 l 278 903 l 556 903 l 556 764 m 139 972 l 208 972 l 208 1042 l 278 1042 l 278 1111 l 347 1111 l 347 1181 l 486 1181 l 486 1111 l 556 1111 l 556 1042 l 625 1042 l 625 972 l 694 972 l 694 903 l 556 903 l 556 972 l 486 972 l 486 1042 l 347 1042 l 347 972 l 278 972 l 278 903 l 139 903 l 139 972 z "},"ὗ":{"ha":903,"x_min":0,"x_max":833,"o":"m 625 694 l 833 694 l 833 486 l 764 486 l 764 417 l 694 417 l 694 347 l 625 347 l 625 278 l 556 278 l 556 0 l 278 0 l 278 278 l 208 278 l 208 347 l 139 347 l 139 417 l 69 417 l 69 486 l 0 486 l 0 694 l 208 694 l 208 625 l 278 625 l 278 556 l 347 556 l 347 486 l 486 486 l 486 556 l 556 556 l 556 625 l 625 625 l 625 694 m 278 903 l 556 903 l 556 833 l 486 833 l 486 764 l 278 764 l 278 903 m 139 972 l 208 972 l 208 1042 l 278 1042 l 278 1111 l 347 1111 l 347 1181 l 486 1181 l 486 1111 l 556 1111 l 556 1042 l 625 1042 l 625 972 l 694 972 l 694 903 l 556 903 l 556 972 l 486 972 l 486 1042 l 347 1042 l 347 972 l 278 972 l 278 903 l 139 903 l 139 972 z "},"ὡ":{"ha":833,"x_min":0,"x_max":764,"o":"m 278 208 l 347 208 l 347 0 l 0 0 l 0 139 l 69 139 l 69 208 l 0 208 l 0 625 l 69 625 l 69 694 l 694 694 l 694 625 l 764 625 l 764 208 l 694 208 l 694 139 l 764 139 l 764 0 l 417 0 l 417 208 l 486 208 l 486 556 l 278 556 l 278 208 m 278 972 l 486 972 l 486 833 l 417 833 l 417 764 l 278 764 l 278 972 z "},"ὢ":{"ha":833,"x_min":0,"x_max":764,"o":"m 278 208 l 347 208 l 347 0 l 0 0 l 0 139 l 69 139 l 69 208 l 0 208 l 0 625 l 69 625 l 69 694 l 694 694 l 694 625 l 764 625 l 764 208 l 694 208 l 694 139 l 764 139 l 764 0 l 417 0 l 417 208 l 486 208 l 486 556 l 278 556 l 278 208 m 347 764 l 208 764 l 208 833 l 139 833 l 139 972 l 347 972 l 347 764 m 625 903 l 694 903 l 694 764 l 556 764 l 556 833 l 486 833 l 486 903 l 417 903 l 417 1042 l 556 1042 l 556 972 l 625 972 l 625 903 z "},"ὣ":{"ha":833,"x_min":0,"x_max":764,"o":"m 625 903 l 694 903 l 694 764 l 556 764 l 556 833 l 486 833 l 486 903 l 417 903 l 417 1042 l 556 1042 l 556 972 l 625 972 l 625 903 m 347 833 l 278 833 l 278 764 l 139 764 l 139 972 l 347 972 l 347 833 m 347 0 l 0 0 l 0 139 l 69 139 l 69 208 l 0 208 l 0 625 l 69 625 l 69 694 l 694 694 l 694 625 l 764 625 l 764 208 l 694 208 l 694 139 l 764 139 l 764 0 l 417 0 l 417 208 l 486 208 l 486 556 l 278 556 l 278 208 l 347 208 l 347 0 z "},"ὤ":{"ha":833,"x_min":0,"x_max":764,"o":"m 417 903 l 486 903 l 486 972 l 556 972 l 556 1042 l 694 1042 l 694 903 l 625 903 l 625 833 l 556 833 l 556 764 l 417 764 l 417 903 m 139 972 l 347 972 l 347 764 l 208 764 l 208 833 l 139 833 l 139 972 m 347 0 l 0 0 l 0 139 l 69 139 l 69 208 l 0 208 l 0 625 l 69 625 l 69 694 l 694 694 l 694 625 l 764 625 l 764 208 l 694 208 l 694 139 l 764 139 l 764 0 l 417 0 l 417 208 l 486 208 l 486 556 l 278 556 l 278 208 l 347 208 l 347 0 z "},"ὥ":{"ha":833,"x_min":0,"x_max":764,"o":"m 278 208 l 347 208 l 347 0 l 0 0 l 0 139 l 69 139 l 69 208 l 0 208 l 0 625 l 69 625 l 69 694 l 694 694 l 694 625 l 764 625 l 764 208 l 694 208 l 694 139 l 764 139 l 764 0 l 417 0 l 417 208 l 486 208 l 486 556 l 278 556 l 278 208 m 139 972 l 347 972 l 347 833 l 278 833 l 278 764 l 139 764 l 139 972 m 417 903 l 486 903 l 486 972 l 556 972 l 556 1042 l 694 1042 l 694 903 l 625 903 l 625 833 l 556 833 l 556 764 l 417 764 l 417 903 z "},"ὦ":{"ha":833,"x_min":0,"x_max":764,"o":"m 278 208 l 347 208 l 347 0 l 0 0 l 0 139 l 69 139 l 69 208 l 0 208 l 0 625 l 69 625 l 69 694 l 694 694 l 694 625 l 764 625 l 764 208 l 694 208 l 694 139 l 764 139 l 764 0 l 417 0 l 417 208 l 486 208 l 486 556 l 278 556 l 278 208 m 486 764 l 347 764 l 347 833 l 278 833 l 278 903 l 486 903 l 486 764 m 139 972 l 208 972 l 208 1042 l 278 1042 l 278 1111 l 347 1111 l 347 1181 l 417 1181 l 417 1111 l 486 1111 l 486 1042 l 556 1042 l 556 972 l 625 972 l 625 903 l 486 903 l 486 972 l 417 972 l 417 1042 l 347 1042 l 347 972 l 278 972 l 278 903 l 139 903 l 139 972 z "},"ὧ":{"ha":833,"x_min":0,"x_max":764,"o":"m 278 208 l 347 208 l 347 0 l 0 0 l 0 139 l 69 139 l 69 208 l 0 208 l 0 625 l 69 625 l 69 694 l 694 694 l 694 625 l 764 625 l 764 208 l 694 208 l 694 139 l 764 139 l 764 0 l 417 0 l 417 208 l 486 208 l 486 556 l 278 556 l 278 208 m 278 903 l 486 903 l 486 833 l 417 833 l 417 764 l 278 764 l 278 903 m 139 972 l 208 972 l 208 1042 l 278 1042 l 278 1111 l 347 1111 l 347 1181 l 417 1181 l 417 1111 l 486 1111 l 486 1042 l 556 1042 l 556 972 l 625 972 l 625 903 l 486 903 l 486 972 l 417 972 l 417 1042 l 347 1042 l 347 972 l 278 972 l 278 903 l 139 903 l 139 972 z "},"ῳ":{"ha":833,"x_min":0,"x_max":764,"o":"m 278 208 l 347 208 l 347 0 l 0 0 l 0 139 l 69 139 l 69 208 l 0 208 l 0 625 l 69 625 l 69 694 l 694 694 l 694 625 l 764 625 l 764 208 l 694 208 l 694 139 l 764 139 l 764 0 l 417 0 l 417 208 l 486 208 l 486 556 l 278 556 l 278 208 m 278 -69 l 486 -69 l 486 -139 l 556 -139 l 556 -207 l 347 -207 l 347 -139 l 278 -139 l 278 -69 z "},"ῴ":{"ha":833,"x_min":0,"x_max":764,"o":"m 278 903 l 347 903 l 347 972 l 417 972 l 417 1042 l 556 1042 l 556 903 l 486 903 l 486 833 l 417 833 l 417 764 l 278 764 l 278 903 m 486 -139 l 556 -139 l 556 -207 l 347 -207 l 347 -139 l 278 -139 l 278 -69 l 486 -69 l 486 -139 m 347 0 l 0 0 l 0 139 l 69 139 l 69 208 l 0 208 l 0 625 l 69 625 l 69 694 l 694 694 l 694 625 l 764 625 l 764 208 l 694 208 l 694 139 l 764 139 l 764 0 l 417 0 l 417 208 l 486 208 l 486 556 l 278 556 l 278 208 l 347 208 l 347 0 z "},"ῶ":{"ha":833,"x_min":0,"x_max":764,"o":"m 278 208 l 347 208 l 347 0 l 0 0 l 0 139 l 69 139 l 69 208 l 0 208 l 0 625 l 69 625 l 69 694 l 694 694 l 694 625 l 764 625 l 764 208 l 694 208 l 694 139 l 764 139 l 764 0 l 417 0 l 417 208 l 486 208 l 486 556 l 278 556 l 278 208 m 139 833 l 208 833 l 208 903 l 278 903 l 278 972 l 347 972 l 347 1042 l 417 1042 l 417 972 l 486 972 l 486 903 l 556 903 l 556 833 l 625 833 l 625 764 l 486 764 l 486 833 l 417 833 l 417 903 l 347 903 l 347 833 l 278 833 l 278 764 l 139 764 l 139 833 z "},"ῷ":{"ha":833,"x_min":0,"x_max":764,"o":"m 278 208 l 347 208 l 347 0 l 0 0 l 0 139 l 69 139 l 69 208 l 0 208 l 0 625 l 69 625 l 69 694 l 694 694 l 694 625 l 764 625 l 764 208 l 694 208 l 694 139 l 764 139 l 764 0 l 417 0 l 417 208 l 486 208 l 486 556 l 278 556 l 278 208 m 278 -69 l 486 -69 l 486 -139 l 556 -139 l 556 -207 l 347 -207 l 347 -139 l 278 -139 l 278 -69 m 139 833 l 208 833 l 208 903 l 278 903 l 278 972 l 347 972 l 347 1042 l 417 1042 l 417 972 l 486 972 l 486 903 l 556 903 l 556 833 l 625 833 l 625 764 l 486 764 l 486 833 l 417 833 l 417 903 l 347 903 l 347 833 l 278 833 l 278 764 l 139 764 l 139 833 z "},"Ἀ":{"ha":833,"x_min":0,"x_max":764,"o":"m 278 972 l 486 972 l 486 764 l 347 764 l 347 833 l 278 833 l 278 972 m 0 625 l 69 625 l 69 694 l 694 694 l 694 625 l 764 625 l 764 0 l 486 0 l 486 278 l 278 278 l 278 0 l 0 0 l 0 625 m 278 417 l 486 417 l 486 556 l 278 556 l 278 417 z "},"Ἁ":{"ha":833,"x_min":0,"x_max":764,"o":"m 486 556 l 278 556 l 278 417 l 486 417 l 486 556 m 278 0 l 0 0 l 0 625 l 69 625 l 69 694 l 694 694 l 694 625 l 764 625 l 764 0 l 486 0 l 486 278 l 278 278 l 278 0 m 278 972 l 486 972 l 486 833 l 417 833 l 417 764 l 278 764 l 278 972 z "},"Ἂ":{"ha":833,"x_min":0,"x_max":764,"o":"m 486 556 l 278 556 l 278 417 l 486 417 l 486 556 m 278 0 l 0 0 l 0 625 l 69 625 l 69 694 l 694 694 l 694 625 l 764 625 l 764 0 l 486 0 l 486 278 l 278 278 l 278 0 m 347 764 l 208 764 l 208 833 l 139 833 l 139 972 l 347 972 l 347 764 m 625 903 l 694 903 l 694 764 l 556 764 l 556 833 l 486 833 l 486 903 l 417 903 l 417 1042 l 556 1042 l 556 972 l 625 972 l 625 903 z "},"Ἃ":{"ha":833,"x_min":0,"x_max":764,"o":"m 625 903 l 694 903 l 694 764 l 556 764 l 556 833 l 486 833 l 486 903 l 417 903 l 417 1042 l 556 1042 l 556 972 l 625 972 l 625 903 m 347 833 l 278 833 l 278 764 l 139 764 l 139 972 l 347 972 l 347 833 m 0 625 l 69 625 l 69 694 l 694 694 l 694 625 l 764 625 l 764 0 l 486 0 l 486 278 l 278 278 l 278 0 l 0 0 l 0 625 m 278 417 l 486 417 l 486 556 l 278 556 l 278 417 z "},"Ἄ":{"ha":833,"x_min":0,"x_max":764,"o":"m 417 903 l 486 903 l 486 972 l 556 972 l 556 1042 l 694 1042 l 694 903 l 625 903 l 625 833 l 556 833 l 556 764 l 417 764 l 417 903 m 139 972 l 347 972 l 347 764 l 208 764 l 208 833 l 139 833 l 139 972 m 0 625 l 69 625 l 69 694 l 694 694 l 694 625 l 764 625 l 764 0 l 486 0 l 486 278 l 278 278 l 278 0 l 0 0 l 0 625 m 278 417 l 486 417 l 486 556 l 278 556 l 278 417 z "},"Ἅ":{"ha":833,"x_min":0,"x_max":764,"o":"m 486 556 l 278 556 l 278 417 l 486 417 l 486 556 m 278 0 l 0 0 l 0 625 l 69 625 l 69 694 l 694 694 l 694 625 l 764 625 l 764 0 l 486 0 l 486 278 l 278 278 l 278 0 m 139 972 l 347 972 l 347 833 l 278 833 l 278 764 l 139 764 l 139 972 m 417 903 l 486 903 l 486 972 l 556 972 l 556 1042 l 694 1042 l 694 903 l 625 903 l 625 833 l 556 833 l 556 764 l 417 764 l 417 903 z "},"Ἆ":{"ha":833,"x_min":0,"x_max":764,"o":"m 486 556 l 278 556 l 278 417 l 486 417 l 486 556 m 278 0 l 0 0 l 0 625 l 69 625 l 69 694 l 694 694 l 694 625 l 764 625 l 764 0 l 486 0 l 486 278 l 278 278 l 278 0 m 486 764 l 347 764 l 347 833 l 278 833 l 278 903 l 486 903 l 486 764 m 139 972 l 208 972 l 208 1042 l 278 1042 l 278 1111 l 347 1111 l 347 1181 l 417 1181 l 417 1111 l 486 1111 l 486 1042 l 556 1042 l 556 972 l 625 972 l 625 903 l 486 903 l 486 972 l 417 972 l 417 1042 l 347 1042 l 347 972 l 278 972 l 278 903 l 139 903 l 139 972 z "},"Ἇ":{"ha":833,"x_min":0,"x_max":764,"o":"m 486 556 l 278 556 l 278 417 l 486 417 l 486 556 m 278 0 l 0 0 l 0 625 l 69 625 l 69 694 l 694 694 l 694 625 l 764 625 l 764 0 l 486 0 l 486 278 l 278 278 l 278 0 m 278 903 l 486 903 l 486 833 l 417 833 l 417 764 l 278 764 l 278 903 m 139 972 l 208 972 l 208 1042 l 278 1042 l 278 1111 l 347 1111 l 347 1181 l 417 1181 l 417 1111 l 486 1111 l 486 1042 l 556 1042 l 556 972 l 625 972 l 625 903 l 486 903 l 486 972 l 417 972 l 417 1042 l 347 1042 l 347 972 l 278 972 l 278 903 l 139 903 l 139 972 z "},"Ἐ":{"ha":833,"x_min":0,"x_max":764,"o":"m 278 972 l 486 972 l 486 764 l 347 764 l 347 833 l 278 833 l 278 972 m 486 278 l 278 278 l 278 139 l 764 139 l 764 0 l 69 0 l 69 69 l 0 69 l 0 625 l 69 625 l 69 694 l 764 694 l 764 556 l 278 556 l 278 417 l 486 417 l 486 278 z "},"Ἑ":{"ha":833,"x_min":0,"x_max":764,"o":"m 278 417 l 486 417 l 486 278 l 278 278 l 278 139 l 764 139 l 764 0 l 69 0 l 69 69 l 0 69 l 0 625 l 69 625 l 69 694 l 764 694 l 764 556 l 278 556 l 278 417 m 278 972 l 486 972 l 486 833 l 417 833 l 417 764 l 278 764 l 278 972 z "},"Ἒ":{"ha":833,"x_min":0,"x_max":764,"o":"m 278 417 l 486 417 l 486 278 l 278 278 l 278 139 l 764 139 l 764 0 l 69 0 l 69 69 l 0 69 l 0 625 l 69 625 l 69 694 l 764 694 l 764 556 l 278 556 l 278 417 m 347 764 l 208 764 l 208 833 l 139 833 l 139 972 l 347 972 l 347 764 m 625 903 l 694 903 l 694 764 l 556 764 l 556 833 l 486 833 l 486 903 l 417 903 l 417 1042 l 556 1042 l 556 972 l 625 972 l 625 903 z "},"Ἓ":{"ha":833,"x_min":0,"x_max":764,"o":"m 625 903 l 694 903 l 694 764 l 556 764 l 556 833 l 486 833 l 486 903 l 417 903 l 417 1042 l 556 1042 l 556 972 l 625 972 l 625 903 m 347 833 l 278 833 l 278 764 l 139 764 l 139 972 l 347 972 l 347 833 m 486 278 l 278 278 l 278 139 l 764 139 l 764 0 l 69 0 l 69 69 l 0 69 l 0 625 l 69 625 l 69 694 l 764 694 l 764 556 l 278 556 l 278 417 l 486 417 l 486 278 z "},"Ἔ":{"ha":833,"x_min":0,"x_max":764,"o":"m 417 903 l 486 903 l 486 972 l 556 972 l 556 1042 l 694 1042 l 694 903 l 625 903 l 625 833 l 556 833 l 556 764 l 417 764 l 417 903 m 139 972 l 347 972 l 347 764 l 208 764 l 208 833 l 139 833 l 139 972 m 486 278 l 278 278 l 278 139 l 764 139 l 764 0 l 69 0 l 69 69 l 0 69 l 0 625 l 69 625 l 69 694 l 764 694 l 764 556 l 278 556 l 278 417 l 486 417 l 486 278 z "},"Ἕ":{"ha":833,"x_min":0,"x_max":764,"o":"m 278 417 l 486 417 l 486 278 l 278 278 l 278 139 l 764 139 l 764 0 l 69 0 l 69 69 l 0 69 l 0 625 l 69 625 l 69 694 l 764 694 l 764 556 l 278 556 l 278 417 m 139 972 l 347 972 l 347 833 l 278 833 l 278 764 l 139 764 l 139 972 m 417 903 l 486 903 l 486 972 l 556 972 l 556 1042 l 694 1042 l 694 903 l 625 903 l 625 833 l 556 833 l 556 764 l 417 764 l 417 903 z "},"Ἠ":{"ha":833,"x_min":0,"x_max":764,"o":"m 278 972 l 486 972 l 486 764 l 347 764 l 347 833 l 278 833 l 278 972 m 278 694 l 278 417 l 486 417 l 486 694 l 764 694 l 764 0 l 486 0 l 486 278 l 278 278 l 278 0 l 0 0 l 0 694 l 278 694 z "},"Ἡ":{"ha":833,"x_min":0,"x_max":764,"o":"m 0 0 l 0 694 l 278 694 l 278 417 l 486 417 l 486 694 l 764 694 l 764 0 l 486 0 l 486 278 l 278 278 l 278 0 l 0 0 m 278 972 l 486 972 l 486 833 l 417 833 l 417 764 l 278 764 l 278 972 z "},"Ἢ":{"ha":833,"x_min":0,"x_max":764,"o":"m 0 0 l 0 694 l 278 694 l 278 417 l 486 417 l 486 694 l 764 694 l 764 0 l 486 0 l 486 278 l 278 278 l 278 0 l 0 0 m 347 764 l 208 764 l 208 833 l 139 833 l 139 972 l 347 972 l 347 764 m 625 903 l 694 903 l 694 764 l 556 764 l 556 833 l 486 833 l 486 903 l 417 903 l 417 1042 l 556 1042 l 556 972 l 625 972 l 625 903 z "},"Ἣ":{"ha":833,"x_min":0,"x_max":764,"o":"m 0 0 l 0 694 l 278 694 l 278 417 l 486 417 l 486 694 l 764 694 l 764 0 l 486 0 l 486 278 l 278 278 l 278 0 l 0 0 m 139 972 l 347 972 l 347 833 l 278 833 l 278 764 l 139 764 l 139 972 m 417 903 l 486 903 l 486 972 l 556 972 l 556 1042 l 694 1042 l 694 903 l 625 903 l 625 833 l 556 833 l 556 764 l 417 764 l 417 903 z "},"Ἤ":{"ha":833,"x_min":0,"x_max":764,"o":"m 417 903 l 486 903 l 486 972 l 556 972 l 556 1042 l 694 1042 l 694 903 l 625 903 l 625 833 l 556 833 l 556 764 l 417 764 l 417 903 m 139 972 l 347 972 l 347 764 l 208 764 l 208 833 l 139 833 l 139 972 m 278 694 l 278 417 l 486 417 l 486 694 l 764 694 l 764 0 l 486 0 l 486 278 l 278 278 l 278 0 l 0 0 l 0 694 l 278 694 z "},"Ἥ":{"ha":833,"x_min":0,"x_max":764,"o":"m 0 0 l 0 694 l 278 694 l 278 417 l 486 417 l 486 694 l 764 694 l 764 0 l 486 0 l 486 278 l 278 278 l 278 0 l 0 0 m 139 972 l 347 972 l 347 833 l 278 833 l 278 764 l 139 764 l 139 972 m 417 903 l 486 903 l 486 972 l 556 972 l 556 1042 l 694 1042 l 694 903 l 625 903 l 625 833 l 556 833 l 556 764 l 417 764 l 417 903 z "},"Ἦ":{"ha":833,"x_min":0,"x_max":764,"o":"m 0 0 l 0 694 l 278 694 l 278 417 l 486 417 l 486 694 l 764 694 l 764 0 l 486 0 l 486 278 l 278 278 l 278 0 l 0 0 m 486 764 l 347 764 l 347 833 l 278 833 l 278 903 l 486 903 l 486 764 m 139 972 l 208 972 l 208 1042 l 278 1042 l 278 1111 l 347 1111 l 347 1181 l 417 1181 l 417 1111 l 486 1111 l 486 1042 l 556 1042 l 556 972 l 625 972 l 625 903 l 486 903 l 486 972 l 417 972 l 417 1042 l 347 1042 l 347 972 l 278 972 l 278 903 l 139 903 l 139 972 z "}}}
